<?xml version="1.0" encoding="UTF-8"?>
<svg width="480px" height="480px" viewBox="0 0 480 480" version="1.1" xmlns="http://www.w3.org/2000/svg" xmlns:xlink="http://www.w3.org/1999/xlink">
    <!-- Generator: sketchtool 50 (54983) - http://www.bohemiancoding.com/sketch -->
    <title>3AB17A3D-5EA8-4C22-BFEF-68ADF4819A97</title>
    <desc>Created with sketchtool.</desc>
    <defs></defs>
    <g id="Page-1" stroke="none" stroke-width="1" fill="none" fill-rule="evenodd">
        <g id="01" transform="translate(-261.000000, -3517.000000)">
            <g id="Group-20" transform="translate(261.000000, 3517.000000)">
                <g id="meta-chart" transform="translate(240.000000, 240.000000) scale(-1, 1) translate(-240.000000, -240.000000) " fill-rule="nonzero">
                    <g id="Group">
                        <path d="M239.546479,4.96953842e-06 C334.153177,-0.0192638801 419.912887,55.6336387 458.43216,142.043669 C496.951433,228.453698 481.016903,329.439164 417.762244,399.790253 C354.507584,470.141341 255.778263,496.68366 165.774049,467.534576 L239.595278,239.595278 L239.546479,4.96953842e-06 Z" id="Shape" fill="#635CE4"></path>
                        <path d="M165.546146,467.460641 C66.882381,435.397996 0.0615255689,343.479976 4.20775152e-05,239.737275 L239.595278,239.595278 L165.546146,467.460641 Z" id="Shape" fill="#4492FE"></path>
                        <path d="M1.98781535e-05,239.49768 C0.0312107315,162.926853 36.6584034,90.9829816 98.5572955,45.9094894 L239.595278,239.595278 L1.98781535e-05,239.49768 Z" id="Shape" fill="#3BC37E"></path>
                        <path d="M98.7510518,45.7685483 C139.595915,16.0886217 188.772922,0.070360179 239.262485,0.000231121536 L239.595278,239.595278 L98.7510518,45.7685483 Z" id="Shape" fill="#FDCF78"></path>
                    </g>
                </g>
                <circle id="Oval-7" fill="#FDFEFE" cx="239.6" cy="239.6" r="153.6"></circle>
                <text id="Use-of-Proceeds" font-family="Din Next medium" font-size="36" font-weight="400" fill="#103363">
                    <tspan x="190.518" y="231">Use of</tspan>
                    <tspan x="166.128" y="267">Proceeds</tspan>
                </text>
            </g>
        </g>
    </g>
</svg>