<?xml version="1.0" encoding="UTF-8"?>
<!DOCTYPE svg PUBLIC "-//W3C//DTD SVG 1.0//EN" "http://www.w3.org/TR/2001/REC-SVG-20010904/DTD/svg10.dtd">
<!-- Creator: CorelDRAW X7 -->
<svg xmlns="http://www.w3.org/2000/svg" xml:space="preserve" width="2230px" height="1186px" version="1.0" style="shape-rendering:geometricPrecision; text-rendering:geometricPrecision; image-rendering:optimizeQuality; fill-rule:evenodd; clip-rule:evenodd"
viewBox="0 0 1161 617"
 xmlns:xlink="http://www.w3.org/1999/xlink">
 <defs>
  <style type="text/css">
   <![CDATA[
    .fil11 {fill:none}
    .fil1 {fill:#FEFEFE}
    .fil9 {fill:#00C877}
    .fil0 {fill:#1559BA}
    .fil7 {fill:#3F99FF}
    .fil10 {fill:#6A55ED}
    .fil8 {fill:#FFD970}
    .fil4 {fill:#606062;fill-rule:nonzero}
    .fil6 {fill:#4B4B4D;fill-rule:nonzero}
    .fil3 {fill:#373435;fill-rule:nonzero}
    .fil5 {fill:#313F49;fill-rule:nonzero}
    .fil2 {fill:#35414A;fill-rule:nonzero}
   ]]>
  </style>
 </defs>
 <g id="Layer_x0020_1">
  <metadata id="CorelCorpID_0Corel-Layer"/>
  <g id="_2375161268656">
   <circle class="fil0" cx="261" cy="295" r="219"/>
   <circle class="fil1" cx="261" cy="295" r="190"/>
   <path class="fil2" d="M130 203l-2 0c-1,-1 -1,-2 -2,-4 0,-1 0,-2 0,-4 0,-1 0,-2 0,-4 1,-1 1,-2 2,-3l2 0c-1,2 -2,3 -2,4 0,1 0,2 0,4 0,0 0,1 0,2 0,1 0,2 1,3 0,0 0,1 1,2z"/>
   <path id="1" class="fil2" d="M133 200l0 -12 2 0 5 8 0 -8 2 0 0 12 -3 0 -4 -8 0 8 -2 0z"/>
   <path id="2" class="fil2" d="M145 200l0 -12 3 0 0 5 4 0 0 -5 2 0 0 12 -2 0 0 -5 -4 0 0 5 -3 0z"/>
   <path id="3" class="fil2" d="M165 195l3 1c-1,1 -1,2 -2,3 -1,1 -2,1 -3,1 -2,0 -3,-1 -4,-2 -1,-1 -1,-2 -1,-4 0,-2 0,-3 1,-4 1,-2 2,-2 4,-2 1,0 3,0 3,1 1,1 1,1 2,2l-3 1c0,-1 0,-1 -1,-2 0,0 0,0 -1,0 -1,0 -2,0 -2,1 -1,0 -1,1 -1,3 0,1 0,2 1,3 0,1 1,1 2,1 0,0 1,0 1,-1 1,0 1,-1 1,-2z"/>
   <path id="4" class="fil2" d="M173 200l0 -10 -3 0 0 -2 9 0 0 2 -3 0 0 10 -3 0z"/>
   <path id="5" class="fil2" d="M181 203c1,-1 1,-2 1,-2 0,-1 1,-1 1,-2 0,0 0,-1 0,-2 0,0 0,-1 0,-1 0,-2 0,-3 0,-4 -1,-1 -1,-2 -2,-4l2 0c1,1 1,2 2,4 0,1 0,2 0,3 0,1 0,3 0,4 -1,1 -1,3 -2,4l-2 0z"/>
   <path id="6" class="fil2" d="M191 197l0 -3 4 0 0 3 -4 0z"/>
   <path id="7" class="fil2" d="M215 194l-2 0c0,-1 1,-2 1,-2 1,-1 1,-1 2,-1 1,0 2,0 3,0 0,1 0,1 1,1 0,1 0,1 0,2l0 3c0,1 0,1 0,2 0,0 0,0 0,1l-2 0c0,0 0,-1 0,-1 0,0 0,0 0,0 0,0 -1,0 -1,1 -1,0 -1,0 -2,0 0,0 -1,0 -2,-1 0,0 0,-1 0,-2 0,0 0,0 0,-1 0,0 1,0 1,-1 0,0 1,0 2,0 1,0 1,-1 2,-1l0 0c0,0 0,-1 -1,-1 0,0 0,0 -1,0 0,0 0,0 -1,0 0,0 0,0 0,1zm3 2c-1,0 -1,0 -2,0 0,0 -1,0 -1,0 0,1 0,1 0,1 0,0 0,1 0,1 0,0 1,0 1,0 0,0 1,0 1,0 0,0 1,-1 1,-1 0,0 0,0 0,-1l0 0z"/>
   <path id="8" class="fil2" d="M231 200l-2 0 0 -5c0,0 0,-1 0,-1 -1,-1 -1,-1 -1,-1 0,0 0,0 -1,0 0,0 0,0 -1,0 0,0 0,1 0,1 0,0 0,1 0,2l0 4 -3 0 0 -9 2 0 0 2c1,-1 2,-2 3,-2 1,0 1,0 1,0 1,1 1,1 1,1 1,0 1,1 1,1 0,0 0,1 0,1l0 6z"/>
   <path id="9" class="fil2" d="M234 195c0,0 0,-1 0,-2 1,0 1,-1 2,-1 1,-1 1,-1 2,-1 1,0 2,1 3,1 1,1 1,2 1,3 0,2 0,3 -1,4 -1,0 -2,1 -3,1 -1,0 -1,0 -2,-1 -1,0 -1,0 -2,-1 0,-1 0,-2 0,-3zm2 1c0,0 0,1 1,1 0,1 1,1 1,1 1,0 1,0 1,-1 1,0 1,-1 1,-2 0,0 0,-1 -1,-1 0,-1 0,-1 -1,-1 0,0 -1,0 -1,1 -1,0 -1,1 -1,2z"/>
   <path id="10" class="fil2" d="M263 197l2 0c0,1 -1,2 -1,2 -1,1 -2,1 -2,1 -2,0 -3,-1 -4,-2 0,0 0,-1 0,-2 0,-2 0,-3 1,-4 0,0 1,-1 2,-1 2,0 3,1 3,1 1,1 1,2 1,4l-5 0c0,1 0,1 0,2 1,0 1,0 2,0 0,0 0,0 0,0 1,0 1,-1 1,-1zm0 -2c0,-1 0,-1 0,-2 -1,0 -1,0 -1,0 -1,0 -1,0 -2,0 0,1 0,1 0,2l3 0z"/>
   <path id="11" class="fil2" d="M270 194l-2 0c0,-1 1,-2 1,-2 1,-1 1,-1 3,-1 0,0 1,0 2,0 0,1 0,1 1,1 0,1 0,1 0,2l0 3c0,1 0,1 0,2 0,0 0,0 0,1l-2 0c0,0 0,-1 0,-1 0,0 0,0 0,0 0,0 -1,0 -1,1 -1,0 -1,0 -1,0 -1,0 -2,0 -2,-1 -1,0 -1,-1 -1,-2 0,0 0,0 0,-1 0,0 1,0 1,-1 0,0 1,0 2,0 1,0 1,-1 2,-1l0 0c0,0 0,-1 0,-1 -1,0 -1,0 -2,0 0,0 0,0 -1,0 0,0 0,0 0,1zm3 2c0,0 -1,0 -1,0 -1,0 -1,0 -2,0 0,1 0,1 0,1 0,0 0,1 0,1 1,0 1,0 1,0 1,0 1,0 1,0 1,0 1,-1 1,-1 0,0 0,0 0,-1l0 0z"/>
   <path id="12" class="fil2" d="M279 200l0 -12 2 0 0 12 -2 0z"/>
   <path id="13" class="fil2" d="M288 191l0 2 -1 0 0 3c0,1 0,2 0,2 0,0 0,0 0,0 0,0 0,0 0,0 0,0 1,0 1,0l0 2c0,0 -1,0 -1,0 -1,0 -1,0 -2,0 0,0 0,-1 0,-1 0,0 0,0 0,-1 -1,0 -1,0 -1,-1l0 -4 -1 0 0 -2 1 0 0 -1 3 -2 0 3 1 0z"/>
   <path id="14" class="fil2" d="M293 188l0 4c1,0 2,-1 3,-1 0,0 1,0 1,0 0,1 1,1 1,1 0,0 0,1 0,1 0,0 0,1 0,2l0 5 -2 0 0 -5c0,-1 0,-1 0,-1 0,-1 0,-1 0,-1 0,0 -1,0 -1,0 0,0 -1,0 -1,0 0,0 0,1 -1,1 0,0 0,1 0,1l0 5 -2 0 0 -12 2 0z"/>
   <path id="15" class="fil2" d="M309 194l-2 0c0,0 0,-1 0,-1 -1,0 -1,0 -1,0 -1,0 -1,0 -2,0 0,1 0,1 0,2 0,1 0,2 0,2 1,1 1,1 2,1 0,0 0,0 1,0 0,-1 0,-1 0,-2l2 1c0,1 0,2 -1,2 -1,1 -1,1 -2,1 -2,0 -3,0 -3,-1 -1,-1 -1,-2 -1,-3 0,-2 0,-3 1,-4 0,0 1,-1 3,-1 1,0 1,0 2,1 1,0 1,1 1,2z"/>
   <path id="16" class="fil2" d="M314 194l-2 0c0,-1 0,-2 1,-2 0,-1 1,-1 2,-1 1,0 2,0 2,0 1,1 1,1 1,1 1,1 1,1 1,2l0 3c0,1 0,1 0,2 0,0 0,0 0,1l-2 0c0,0 0,-1 0,-1 0,0 0,0 0,0 -1,0 -1,0 -1,1 -1,0 -1,0 -2,0 -1,0 -1,0 -2,-1 0,0 0,-1 0,-2 0,0 0,0 0,-1 0,0 0,0 1,-1 0,0 1,0 1,0 1,0 2,-1 3,-1l0 0c0,0 -1,-1 -1,-1 0,0 0,0 -1,0 0,0 -1,0 -1,0 0,0 0,0 0,1zm3 2c-1,0 -1,0 -2,0 0,0 -1,0 -1,0 0,1 0,1 0,1 0,0 0,1 0,1 0,0 1,0 1,0 0,0 1,0 1,0 0,0 0,-1 0,-1 1,0 1,0 1,-1l0 0z"/>
   <path id="17" class="fil2" d="M324 200l-2 0 0 -9 2 0 0 2c1,-1 1,-1 1,-2 0,0 1,0 1,0 1,0 1,0 1,1l0 1c-1,0 -1,0 -1,0 0,0 -1,0 -1,0 0,1 0,1 0,1 -1,1 -1,2 -1,3l0 3z"/>
   <path id="18" class="fil2" d="M334 197l3 0c-1,1 -1,2 -2,2 0,1 -1,1 -2,1 -1,0 -2,-1 -3,-2 -1,0 -1,-1 -1,-2 0,-2 1,-3 1,-4 1,0 2,-1 3,-1 1,0 2,1 3,1 0,1 1,2 1,4l-6 0c0,1 1,1 1,2 0,0 1,0 1,0 0,0 1,0 1,0 0,0 0,-1 0,-1zm1 -2c0,-1 -1,-1 -1,-2 0,0 -1,0 -1,0 0,0 -1,0 -1,0 0,1 -1,1 -1,2l4 0z"/>
   <path id="19" class="fil2" d="M348 200l0 -10 -3 0 0 -2 9 0 0 2 -4 0 0 10 -2 0z"/>
   <path id="20" class="fil2" d="M355 195c0,0 0,-1 0,-2 1,0 1,-1 2,-1 0,-1 1,-1 2,-1 1,0 2,1 3,1 1,1 1,2 1,3 0,2 0,3 -1,4 -1,0 -2,1 -3,1 -1,0 -2,0 -2,-1 -1,0 -1,0 -2,-1 0,-1 0,-2 0,-3zm2 1c0,0 0,1 1,1 0,1 0,1 1,1 0,0 1,0 1,-1 1,0 1,-1 1,-2 0,0 0,-1 -1,-1 0,-1 -1,-1 -1,-1 -1,0 -1,0 -1,1 -1,0 -1,1 -1,2z"/>
   <path id="21" class="fil2" d="M366 200l0 -12 2 0 0 6 3 -3 2 0 -2 3 3 6 -3 0 -2 -4 -1 1 0 3 -2 0z"/>
   <path id="22" class="fil2" d="M381 197l2 0c0,1 0,2 -1,2 -1,1 -1,1 -2,1 -2,0 -3,-1 -3,-2 -1,0 -1,-1 -1,-2 0,-2 0,-3 1,-4 1,0 1,-1 2,-1 2,0 3,1 3,1 1,1 1,2 1,4l-5 0c0,1 0,1 0,2 1,0 1,0 2,0 0,0 0,0 1,0 0,0 0,-1 0,-1zm0 -2c0,-1 0,-1 0,-2 -1,0 -1,0 -1,0 -1,0 -1,0 -2,0 0,1 0,1 0,2l3 0z"/>
   <path id="23" class="fil2" d="M394 200l-2 0 0 -5c0,0 0,-1 0,-1 0,-1 -1,-1 -1,-1 0,0 0,0 0,0 -1,0 -1,0 -1,0 -1,0 -1,1 -1,1 0,0 0,1 0,2l0 4 -2 0 0 -9 2 0 0 2c0,-1 1,-2 2,-2 1,0 1,0 2,0 0,1 0,1 0,1 1,0 1,1 1,1 0,0 0,1 0,1l0 6z"/>
   <path id="24" class="fil2" d="M200 200l0 -12 3 0 4 8 0 -8 2 0 0 12 -2 0 -4 -8 0 8 -3 0z"/>
   <path id="25" class="fil2" d="M246 200l0 -12 2 0 0 5 4 0 0 -5 2 0 0 12 -2 0 0 -5 -4 0 0 5 -2 0z"/>
   <path class="fil3" d="M168 178l0 -21 16 0 0 4 -12 0 0 4 11 0 0 4 -11 0 0 6 12 0 0 3 -16 0z"/>
   <path id="1" class="fil3" d="M188 178l0 -21 9 0c2,0 4,0 5,1 1,0 1,1 2,2 1,1 1,2 1,3 0,2 -1,3 -1,4 -1,1 -3,2 -5,2 1,0 2,1 3,2 0,0 1,1 2,3l3 4 -5 0 -3 -4c-2,-2 -2,-3 -3,-4 0,0 -1,0 -1,0 0,-1 -1,-1 -2,-1l-1 0 0 9 -4 0zm4 -12l3 0c2,0 3,0 4,0 0,0 1,-1 1,-1 0,-1 1,-1 1,-2 0,0 -1,-1 -1,-1 0,-1 -1,-1 -2,-1 0,0 -1,0 -3,0l-3 0 0 5z"/>
   <path id="2" class="fil3" d="M222 170l4 2c0,2 -1,4 -3,5 -1,1 -3,1 -5,1 -3,0 -5,0 -7,-2 -2,-2 -3,-5 -3,-8 0,-4 1,-6 3,-8 2,-2 4,-3 7,-3 3,0 5,0 6,2 1,1 2,2 2,4l-4 1c0,-1 -1,-2 -1,-3 -1,0 -2,-1 -3,-1 -2,0 -3,1 -4,2 -1,1 -1,3 -1,5 0,3 0,5 1,6 1,1 2,2 4,2 1,0 2,-1 3,-1 0,-1 1,-2 1,-4z"/>
   <path id="3" class="fil3" d="M251 174l0 4 -14 0c0,-1 0,-3 1,-4 1,-1 3,-3 5,-5 2,-2 3,-3 3,-3 1,-1 1,-2 1,-3 0,-1 0,-1 -1,-2 0,0 -1,-1 -2,-1 -1,0 -1,1 -2,1 0,1 -1,1 -1,3l-4 -1c1,-2 1,-4 3,-5 1,-1 2,-1 4,-1 2,0 4,1 5,2 1,1 2,2 2,4 0,1 0,2 -1,3 0,0 0,1 -1,2 -1,1 -1,2 -3,3 -1,1 -2,2 -2,2 -1,1 -1,1 -1,1l8 0z"/>
   <path id="4" class="fil3" d="M261 157c2,0 3,1 4,2 2,2 2,5 2,9 0,4 0,7 -2,8 -1,2 -2,3 -4,3 -3,0 -4,-1 -5,-3 -2,-1 -2,-4 -2,-8 0,-4 0,-7 2,-9 1,-1 2,-2 5,-2zm0 3c-1,0 -1,0 -2,1 0,0 0,1 -1,1 0,2 0,3 0,6 0,2 0,4 0,5 1,1 1,1 1,2 1,0 1,0 2,0 0,0 0,0 1,0 0,-1 0,-1 1,-2 0,-1 0,-3 0,-5 0,-3 0,-4 0,-5 -1,-1 -1,-2 -1,-2 -1,-1 -1,-1 -1,-1z"/>
   <path id="5" class="fil3" d="M286 163l0 3 -3 0 0 6c0,2 0,2 0,2 0,1 1,1 1,1 0,0 0,0 0,0 1,0 1,0 2,0l0 3c-1,0 -2,1 -3,1 -1,0 -1,-1 -2,-1 0,0 -1,0 -1,-1 0,0 -1,-1 -1,-1 0,-1 0,-2 0,-3l0 -7 -2 0 0 -3 2 0 0 -3 4 -3 0 6 3 0z"/>
   <path id="6" class="fil3" d="M288 170c0,-1 0,-2 1,-4 1,-1 1,-2 3,-2 1,-1 2,-1 4,-1 2,0 4,0 5,2 2,1 3,3 3,5 0,3 -1,5 -3,6 -1,2 -3,3 -5,3 -2,0 -3,-1 -4,-1 -1,-1 -2,-2 -3,-3 -1,-1 -1,-3 -1,-5zm4 1c0,1 0,2 1,3 1,1 2,1 3,1 1,0 2,0 2,-1 1,-1 1,-2 1,-3 0,-2 0,-3 -1,-4 0,-1 -1,-1 -2,-1 -1,0 -2,0 -3,1 -1,1 -1,2 -1,4z"/>
   <path id="7" class="fil3" d="M307 178l0 -21 4 0 0 11 4 -5 5 0 -5 5 6 10 -5 0 -3 -7 -2 2 0 5 -4 0z"/>
   <path id="8" class="fil3" d="M332 173l4 1c-1,1 -1,3 -2,3 -2,1 -3,2 -5,2 -2,0 -4,-1 -6,-3 -1,-1 -1,-3 -1,-5 0,-3 1,-5 2,-6 1,-2 3,-2 5,-2 2,0 4,0 5,2 2,1 2,4 2,7l-10 0c0,1 0,2 1,2 1,1 1,1 2,1 1,0 2,0 2,0 0,0 1,-1 1,-2zm0 -4c0,-1 0,-2 -1,-2 0,-1 -1,-1 -2,-1 -1,0 -1,0 -2,1 -1,0 -1,1 -1,2l6 0z"/>
   <path id="9" class="fil3" d="M353 178l-4 0 0 -8c0,-1 0,-2 0,-3 0,0 0,-1 -1,-1 0,0 -1,0 -1,0 -1,0 -2,0 -2,0 -1,1 -1,1 -1,2 0,0 -1,2 -1,3l0 7 -4 0 0 -15 4 0 0 2c1,-2 3,-2 5,-2 1,0 2,0 3,0 0,0 1,1 1,1 1,1 1,1 1,2 0,1 0,1 0,3l0 9z"/>
   <path class="fil4" d="M110 369l0 -13 3 0 5 8 0 -8 2 0 0 13 -2 0 -5 -9 0 9 -3 0z"/>
   <path id="1" class="fil4" d="M130 369l0 -2c0,1 -1,1 -1,1 -1,1 -1,1 -2,1 0,0 -1,0 -2,-1 0,0 0,0 -1,-1 0,0 0,-1 0,-2l0 -5 2 0 0 4c0,1 1,2 1,2 0,0 0,1 0,1 0,0 1,0 1,0 0,0 1,0 1,0 0,-1 1,-1 1,-1 0,-1 0,-1 0,-3l0 -3 2 0 0 9 -2 0z"/>
   <path id="2" class="fil4" d="M136 360l2 0 0 1c1,-1 2,-2 3,-2 0,0 1,1 1,1 1,0 1,0 1,1 1,-1 1,-1 1,-1 1,0 1,-1 2,-1 1,0 1,1 2,1 0,0 0,0 1,1 0,0 0,1 0,2l0 6 -3 0 0 -6c0,0 0,-1 0,-1 0,-1 0,-1 -1,-1 0,0 0,0 -1,1 0,0 0,0 0,0 0,1 -1,1 -1,2l0 5 -2 0 0 -5c0,-1 0,-2 0,-2 0,0 0,0 0,-1 -1,0 -1,0 -1,0 -1,0 -1,0 -1,1 0,0 -1,0 -1,0 0,1 0,1 0,2l0 5 -2 0 0 -9z"/>
   <path id="3" class="fil4" d="M152 369l0 -13 3 0 0 5c1,-1 1,-2 2,-2 1,0 2,1 3,2 1,0 1,2 1,3 0,2 0,3 -1,4 -1,0 -2,1 -3,1 0,0 -1,0 -1,-1 -1,0 -1,0 -1,-1l0 2 -3 0zm3 -5c0,1 0,2 0,2 1,1 1,1 2,1 0,0 1,0 1,-1 1,0 1,-1 1,-2 0,-1 0,-2 -1,-2 0,-1 -1,-1 -1,-1 -1,0 -1,0 -2,1 0,0 0,1 0,2z"/>
   <path id="4" class="fil4" d="M170 366l2 0c0,1 -1,2 -2,2 0,1 -1,1 -2,1 -2,0 -3,-1 -3,-2 -1,-1 -1,-2 -1,-3 0,-1 0,-2 1,-3 1,-1 2,-2 3,-2 1,0 2,1 3,2 1,1 1,2 1,4l-6 0c0,0 0,1 1,1 0,1 1,1 1,1 0,0 1,0 1,0 0,0 0,-1 1,-1zm0 -3c0,0 0,-1 -1,-1 0,-1 -1,-1 -1,-1 -1,0 -1,0 -1,1 -1,0 -1,1 -1,1l4 0z"/>
   <path id="5" class="fil4" d="M177 369l-2 0 0 -9 2 0 0 1c1,-1 1,-1 1,-1 1,-1 1,-1 1,-1 1,0 1,1 2,1l-1 2c0,0 -1,0 -1,0 0,0 -1,0 -1,0 0,0 0,0 0,1 -1,0 -1,1 -1,3l0 3z"/>
   <path id="6" class="fil4" d="M200 360l1 0 0 -1c0,-1 0,-1 0,-2 1,0 1,0 1,-1 1,0 1,0 2,0 1,0 1,0 2,0l0 2c-1,0 -1,0 -1,0 -1,0 -1,0 -1,0 0,0 0,0 0,1l0 1 1 0 0 1 -1 0 0 8 -3 0 0 -8 -1 0 0 -1z"/>
   <path id="7" class="fil4" d="M225 364c0,-1 0,-2 0,-2 1,-1 1,-2 2,-2 1,0 1,-1 2,-1 2,0 3,1 4,2 0,1 1,2 1,3 0,1 -1,3 -1,3 -1,1 -2,2 -4,2 -1,0 -1,0 -2,-1 -1,0 -1,-1 -2,-1 0,-1 0,-2 0,-3zm2 0c0,1 0,2 1,2 0,1 1,1 1,1 1,0 1,0 2,-1 0,0 0,-1 0,-2 0,-1 0,-1 0,-2 -1,0 -1,-1 -2,-1 0,0 -1,1 -1,1 -1,1 -1,1 -1,2z"/>
   <path id="8" class="fil4" d="M237 369l0 -13 2 0 0 7 3 -3 3 0 -3 3 3 6 -3 0 -2 -4 -1 1 0 3 -2 0z"/>
   <path id="9" class="fil4" d="M253 366l2 0c0,1 0,2 -1,2 -1,1 -2,1 -3,1 -1,0 -2,-1 -3,-2 -1,-1 -1,-2 -1,-3 0,-1 0,-2 1,-3 1,-1 2,-2 3,-2 1,0 3,1 3,2 1,1 1,2 1,4l-6 0c0,0 1,1 1,1 0,1 1,1 1,1 1,0 1,0 1,0 1,0 1,-1 1,-1zm0 -3c0,0 0,-1 0,-1 -1,-1 -1,-1 -2,-1 0,0 -1,0 -1,1 0,0 0,1 0,1l3 0z"/>
   <path id="10" class="fil4" d="M267 369l-3 0 0 -5c0,-1 0,-2 0,-2 0,0 0,0 0,-1 0,0 -1,0 -1,0 0,0 -1,0 -1,1 -1,0 -1,0 -1,0 0,1 0,2 0,3l0 4 -2 0 0 -9 2 0 0 1c1,-1 2,-2 3,-2 0,0 1,0 1,1 1,0 1,0 1,0 0,1 1,1 1,1 0,1 0,1 0,2l0 6z"/>
   <path id="11" class="fil4" d="M269 366l3 0c0,0 0,0 0,1 1,0 1,0 2,0 0,0 1,0 1,0 0,0 0,-1 0,-1 0,0 0,0 0,0 0,0 0,-1 0,-1 -2,0 -4,0 -4,-1 -1,0 -1,-1 -1,-2 0,-1 0,-1 1,-2 0,0 1,-1 3,-1 1,0 2,1 2,1 1,0 1,1 2,2l-3 0c0,0 0,0 0,-1 -1,0 -1,0 -1,0 -1,0 -1,0 -2,0 0,0 0,1 0,1 0,0 0,0 0,0 0,0 1,1 2,1 2,0 3,1 3,1 1,0 1,1 1,2 0,1 0,1 -1,2 -1,1 -2,1 -3,1 -1,0 -2,0 -3,-1 -1,0 -1,-1 -2,-2z"/>
   <path id="12" class="fil4" d="M301 369l-2 0 0 -5c0,-1 0,-2 0,-2 0,0 0,0 -1,-1 0,0 0,0 0,0 -1,0 -1,0 -2,1 0,0 0,0 0,0 0,1 0,2 0,3l0 4 -3 0 0 -9 2 0 0 1c1,-1 2,-2 3,-2 1,0 1,0 2,1 0,0 1,0 1,0 0,1 0,1 0,1 0,1 0,1 0,2l0 6z"/>
   <path id="13" class="fil4" d="M322 358l0 -2 2 0 0 2 -2 0zm0 11l0 -9 2 0 0 9 -2 0z"/>
   <path id="14" class="fil4" d="M330 369l-2 0 0 -9 2 0 0 1c0,-1 1,-1 1,-1 0,-1 1,-1 1,-1 1,0 1,1 2,1l-1 2c0,0 -1,0 -1,0 -1,0 -1,0 -1,0 0,0 0,0 -1,1 0,0 0,1 0,3l0 3z"/>
   <path id="15" class="fil4" d="M344 362l-3 1c0,-1 0,-1 0,-1 0,-1 -1,-1 -1,-1 -1,0 -1,0 -2,1 0,0 0,1 0,2 0,1 0,2 0,2 1,1 1,1 2,1 0,0 1,0 1,-1 0,0 0,0 1,-1l2 1c0,1 -1,1 -2,2 0,1 -1,1 -2,1 -2,0 -3,-1 -3,-1 -1,-1 -2,-2 -2,-4 0,-1 1,-3 2,-3 0,-1 1,-2 3,-2 1,0 2,1 2,1 1,1 1,1 2,2z"/>
   <path id="16" class="fil4" d="M353 369l0 -2c-1,1 -1,1 -2,1 0,1 -1,1 -1,1 -1,0 -2,0 -2,-1 0,0 -1,0 -1,-1 0,0 0,-1 0,-2l0 -5 2 0 0 4c0,1 0,2 0,2 0,0 0,1 1,1 0,0 0,0 1,0 0,0 0,0 1,0 0,-1 0,-1 0,-1 0,-1 0,-1 0,-3l0 -3 3 0 0 9 -2 0z"/>
   <path id="17" class="fil4" d="M359 369l0 -13 2 0 0 13 -2 0z"/>
   <path id="18" class="fil4" d="M366 362l-2 0c0,-1 1,-2 1,-2 1,0 2,-1 3,-1 1,0 2,1 2,1 1,0 1,0 2,1 0,0 0,1 0,2l0 3c0,0 0,1 0,1 0,1 0,1 0,2l-2 0c0,-1 0,-1 0,-1 0,0 0,0 0,0 -1,0 -1,0 -2,1 0,0 -1,0 -1,0 -1,0 -2,0 -2,-1 -1,0 -1,-1 -1,-2 0,0 0,-1 0,-1 1,-1 1,-1 1,-1 1,0 1,-1 2,-1 1,0 2,0 3,0l0 0c0,-1 -1,-1 -1,-1 0,-1 0,-1 -1,-1 0,0 -1,0 -1,0 0,1 0,1 -1,1zm4 2c-1,0 -1,1 -2,1 -1,0 -1,0 -1,0 0,0 -1,1 -1,1 0,0 0,1 1,1 0,0 0,0 1,0 0,0 1,0 1,0 0,-1 0,-1 0,-1 1,0 1,-1 1,-1l0 -1z"/>
   <path id="19" class="fil4" d="M380 360l0 1 -2 0 0 4c0,1 0,1 0,1 0,1 0,1 0,1 1,0 1,0 1,0 0,0 0,0 1,0l0 1c-1,1 -1,1 -2,1 0,0 -1,0 -1,0 0,-1 -1,-1 -1,-1 0,0 0,-1 0,-1 0,0 0,-1 0,-2l0 -4 -1 0 0 -1 1 0 0 -2 2 -2 0 4 2 0z"/>
   <path id="20" class="fil4" d="M383 358l0 -2 2 0 0 2 -2 0zm0 11l0 -9 2 0 0 9 -2 0z"/>
   <path id="21" class="fil4" d="M388 364c0,-1 0,-2 1,-2 0,-1 1,-2 1,-2 1,0 2,-1 3,-1 1,0 2,1 3,2 1,1 1,2 1,3 0,1 0,3 -1,3 -1,1 -2,2 -3,2 -1,0 -2,0 -3,-1 0,0 -1,-1 -1,-1 -1,-1 -1,-2 -1,-3zm3 0c0,1 0,2 0,2 1,1 1,1 2,1 0,0 1,0 1,-1 1,0 1,-1 1,-2 0,-1 0,-1 -1,-2 0,0 -1,-1 -1,-1 -1,0 -1,1 -2,1 0,1 0,1 0,2z"/>
   <path id="22" class="fil4" d="M409 369l-3 0 0 -5c0,-1 0,-2 0,-2 0,0 0,0 0,-1 -1,0 -1,0 -1,0 -1,0 -1,0 -1,1 -1,0 -1,0 -1,0 0,1 0,2 0,3l0 4 -3 0 0 -9 3 0 0 1c0,-1 1,-2 3,-2 0,0 1,0 1,1 0,0 1,0 1,0 0,1 0,1 1,1 0,1 0,1 0,2l0 6z"/>
   <path id="23" class="fil4" d="M191 364c0,-1 1,-2 1,-2 0,-1 1,-2 2,-2 0,0 1,-1 2,-1 1,0 3,1 3,2 1,1 2,2 2,3 0,1 -1,3 -2,3 -1,1 -2,2 -3,2 -1,0 -2,0 -2,-1 -1,0 -2,-1 -2,-1 0,-1 -1,-2 -1,-3zm3 0c0,1 0,2 0,2 1,1 1,1 2,1 1,0 1,0 2,-1 0,0 0,-1 0,-2 0,-1 0,-1 0,-2 -1,0 -1,-1 -2,-1 -1,0 -1,1 -2,1 0,1 0,1 0,2z"/>
   <path id="24" class="fil4" d="M216 369l0 -11 -3 0 0 -2 9 0 0 2 -3 0 0 11 -3 0z"/>
   <path id="25" class="fil4" d="M287 358l0 -2 3 0 0 2 -3 0zm0 11l0 -9 3 0 0 9 -3 0z"/>
   <path id="26" class="fil4" d="M319 362l-2 1c0,-1 -1,-1 -1,-1 0,-1 -1,-1 -1,-1 -1,0 -1,0 -1,1 -1,0 -1,1 -1,2 0,1 0,2 1,2 0,1 0,1 1,1 0,0 1,0 1,-1 0,0 1,0 1,-1l2 1c0,1 -1,1 -1,2 -1,1 -2,1 -3,1 -1,0 -2,-1 -3,-1 -1,-1 -1,-2 -1,-4 0,-1 0,-3 1,-3 1,-1 2,-2 3,-2 1,0 2,1 3,1 0,1 1,1 1,2z"/>
   <path class="fil3" d="M178 342l-4 0 0 -15c-2,2 -3,3 -5,3l0 -3c1,-1 2,-1 3,-2 1,-1 2,-2 3,-4l3 0 0 21z"/>
   <path id="1" class="fil3" d="M185 338l4 0 0 3c0,1 0,2 -1,3 0,1 0,1 -1,2 0,0 -1,1 -2,1l-1 -2c1,0 2,0 2,-1 0,0 1,-1 1,-2l-2 0 0 -4z"/>
   <path id="2" class="fil3" d="M199 321c2,0 4,1 5,2 1,2 2,5 2,9 0,4 -1,7 -2,9 -1,1 -3,2 -5,2 -2,0 -4,-1 -5,-3 -1,-1 -2,-4 -2,-8 0,-4 1,-7 2,-9 1,-1 3,-2 5,-2zm0 4c-1,0 -1,0 -1,0 -1,0 -1,1 -1,2 0,1 -1,3 -1,5 0,3 0,4 1,5 0,1 0,2 1,2 0,0 0,0 1,0 0,0 1,0 1,0 1,0 1,-1 1,-2 0,-1 1,-2 1,-5 0,-2 -1,-4 -1,-5 0,-1 0,-2 -1,-2 0,0 -1,0 -1,0z"/>
   <path id="3" class="fil3" d="M215 321c2,0 4,1 5,2 1,2 2,5 2,9 0,4 -1,7 -2,9 -1,1 -3,2 -5,2 -2,0 -3,-1 -5,-3 -1,-1 -2,-4 -2,-8 0,-4 1,-7 3,-9 1,-1 2,-2 4,-2zm0 4c0,0 -1,0 -1,0 0,0 -1,1 -1,2 0,1 0,3 0,5 0,3 0,4 0,5 0,1 1,2 1,2 0,0 1,0 1,0 1,0 1,0 2,0 0,0 0,-1 0,-2 1,-1 1,-2 1,-5 0,-2 0,-4 -1,-5 0,-1 0,-2 0,-2 -1,0 -1,0 -2,0z"/>
   <path id="4" class="fil3" d="M232 321c2,0 3,1 4,2 2,2 2,5 2,9 0,4 0,7 -2,9 -1,1 -2,2 -4,2 -2,0 -4,-1 -5,-3 -2,-1 -2,-4 -2,-8 0,-4 0,-7 2,-9 1,-1 3,-2 5,-2zm0 4c-1,0 -1,0 -2,0 0,0 0,1 -1,2 0,1 0,3 0,5 0,3 0,4 0,5 1,1 1,2 1,2 1,0 1,0 2,0 0,0 1,0 1,0 0,0 1,-1 1,-2 0,-1 0,-2 0,-5 0,-2 0,-4 0,-5 0,-1 -1,-2 -1,-2 0,0 -1,0 -1,0z"/>
   <path id="5" class="fil3" d="M242 338l4 0 0 3c0,1 0,2 0,3 -1,1 -1,1 -2,2 0,0 -1,1 -2,1l0 -2c0,0 1,0 1,-1 1,0 1,-1 1,-2l-2 0 0 -4z"/>
   <path id="6" class="fil3" d="M256 321c2,0 4,1 5,2 1,2 2,5 2,9 0,4 -1,7 -2,9 -1,1 -3,2 -5,2 -2,0 -4,-1 -5,-3 -1,-1 -2,-4 -2,-8 0,-4 1,-7 2,-9 1,-1 3,-2 5,-2zm0 4c0,0 -1,0 -1,0 -1,0 -1,1 -1,2 0,1 0,3 0,5 0,3 0,4 0,5 0,1 0,2 1,2 0,0 1,0 1,0 1,0 1,0 1,0 1,0 1,-1 1,-2 1,-1 1,-2 1,-5 0,-2 0,-4 -1,-5 0,-1 0,-2 -1,-2 0,0 0,0 -1,0z"/>
   <path id="7" class="fil3" d="M272 321c2,0 4,1 5,2 2,2 2,5 2,9 0,4 0,7 -2,9 -1,1 -3,2 -5,2 -2,0 -3,-1 -5,-3 -1,-1 -1,-4 -1,-8 0,-4 0,-7 2,-9 1,-1 2,-2 4,-2zm0 4c0,0 0,0 -1,0 0,0 -1,1 -1,2 0,1 0,3 0,5 0,3 0,4 0,5 0,1 1,2 1,2 1,0 1,0 1,0 1,0 1,0 2,0 0,0 0,-1 1,-2 0,-1 0,-2 0,-5 0,-2 0,-4 0,-5 -1,-1 -1,-2 -1,-2 -1,0 -1,0 -2,0z"/>
   <path id="8" class="fil3" d="M289 321c2,0 3,1 5,2 1,2 2,5 2,9 0,4 -1,7 -2,9 -2,1 -3,2 -5,2 -2,0 -4,-1 -5,-3 -1,-1 -2,-4 -2,-8 0,-4 1,-7 2,-9 1,-1 3,-2 5,-2zm0 4c-1,0 -1,0 -2,0 0,0 0,1 0,2 -1,1 -1,3 -1,5 0,3 0,4 1,5 0,1 0,2 0,2 1,0 1,0 2,0 0,0 1,0 1,0 0,0 1,-1 1,-2 0,-1 0,-2 0,-5 0,-2 0,-4 0,-5 0,-1 -1,-2 -1,-2 0,0 -1,0 -1,0z"/>
   <path id="9" class="fil3" d="M299 338l4 0 0 3c0,1 0,2 0,3 0,1 -1,1 -1,2 -1,0 -2,1 -3,1l0 -2c0,0 1,0 1,-1 1,0 1,-1 1,-2l-2 0 0 -4z"/>
   <path id="10" class="fil3" d="M313 321c2,0 4,1 5,2 1,2 2,5 2,9 0,4 -1,7 -2,9 -1,1 -3,2 -5,2 -2,0 -3,-1 -5,-3 -1,-1 -2,-4 -2,-8 0,-4 1,-7 2,-9 2,-1 3,-2 5,-2zm0 4c0,0 -1,0 -1,0 0,0 -1,1 -1,2 0,1 0,3 0,5 0,3 0,4 0,5 0,1 1,2 1,2 0,0 1,0 1,0 1,0 1,0 2,0 0,0 0,-1 0,-2 1,-1 1,-2 1,-5 0,-2 0,-4 -1,-5 0,-1 0,-2 0,-2 -1,0 -1,0 -2,0z"/>
   <path id="11" class="fil3" d="M330 321c2,0 3,1 4,2 2,2 2,5 2,9 0,4 0,7 -2,9 -1,1 -2,2 -4,2 -2,0 -4,-1 -5,-3 -2,-1 -2,-4 -2,-8 0,-4 0,-7 2,-9 1,-1 3,-2 5,-2zm0 4c-1,0 -1,0 -2,0 0,0 0,1 -1,2 0,1 0,3 0,5 0,3 0,4 0,5 1,1 1,2 1,2 1,0 1,0 2,0 0,0 0,0 1,0 0,0 1,-1 1,-2 0,-1 0,-2 0,-5 0,-2 0,-4 0,-5 0,-1 -1,-2 -1,-2 -1,0 -1,0 -1,0z"/>
   <path id="12" class="fil3" d="M346 321c2,0 4,1 5,2 1,2 2,5 2,9 0,4 -1,7 -2,9 -1,1 -3,2 -5,2 -2,0 -4,-1 -5,-3 -1,-1 -2,-4 -2,-8 0,-4 1,-7 2,-9 1,-1 3,-2 5,-2zm0 4c-1,0 -1,0 -1,0 -1,0 -1,1 -1,2 -1,1 -1,3 -1,5 0,3 0,4 1,5 0,1 0,2 1,2 0,0 0,0 1,0 0,0 1,0 1,0 1,0 1,-1 1,-2 0,-1 0,-2 0,-5 0,-2 0,-4 0,-5 0,-1 0,-2 -1,-2 0,0 -1,0 -1,0z"/>
   <path class="fil4" d="M212 433l5 0c1,0 1,0 2,0 0,0 0,1 1,1 0,0 0,0 1,1 0,0 0,0 0,1 0,0 0,1 0,1 -1,1 -1,1 -2,1 1,0 2,1 2,1 0,1 0,1 0,2 0,0 0,1 0,1 0,1 0,1 -1,1 0,1 -1,1 -1,1 -1,0 -2,0 -3,0l-4 0 0 -11zm3 2l0 3 1 0c1,0 1,-1 2,-1 0,0 0,0 0,0 1,0 1,0 1,-1 0,0 0,0 0,-1 -1,0 -1,0 -1,0 0,0 -1,0 -2,0l-1 0zm0 4l0 3 2 0c0,0 1,0 1,0 0,0 1,0 1,0 0,-1 0,-1 0,-1 0,-1 0,-1 0,-1 0,0 0,0 -1,-1 0,0 -1,0 -2,0l-1 0z"/>
   <path id="1" class="fil4" d="M227 439l-2 -1c1,0 1,-1 2,-1 0,-1 1,-1 2,-1 1,0 1,0 2,0 0,1 1,1 1,1 0,1 0,1 0,2l0 2c0,1 0,2 0,2 0,0 0,1 1,1l-2 0c-1,0 -1,0 -1,-1 0,0 0,0 0,0 0,0 0,1 -1,1 0,0 -1,0 -1,0 -1,0 -2,0 -2,0 -1,-1 -1,-1 -1,-2 0,-1 0,-1 1,-1 0,-1 0,-1 0,-1 1,0 1,0 2,-1 1,0 2,0 2,0l0 0c0,-1 0,-1 0,-1 0,0 -1,0 -1,0 -1,0 -1,0 -1,0 0,0 -1,0 -1,1zm3 1c0,0 -1,0 -1,1 -1,0 -1,0 -1,0 -1,0 -1,0 -1,1 0,0 0,0 1,0 0,1 0,1 0,1 1,0 1,0 2,-1 0,0 0,0 0,0 0,-1 0,-1 0,-1l0 -1z"/>
   <path id="2" class="fil4" d="M236 442l2 -1c0,1 0,1 0,1 1,1 1,1 2,1 0,0 0,0 1,-1 0,0 0,0 0,0 0,0 0,0 0,-1 0,0 0,0 -1,0 -2,0 -3,-1 -3,-1 -1,0 -1,-1 -1,-2 0,0 0,-1 1,-1 0,-1 1,-1 2,-1 1,0 2,0 3,1 0,0 1,0 1,1l-2 0c0,0 0,0 -1,0 0,0 0,0 -1,0 0,0 -1,0 -1,0 0,0 0,0 0,0 0,0 0,0 0,1 0,0 1,0 2,0 1,0 2,1 2,1 1,0 1,1 1,2 0,0 0,1 -1,1 0,1 -1,1 -2,1 -2,0 -2,0 -3,0 -1,-1 -1,-1 -1,-2z"/>
   <path id="3" class="fil4" d="M252 442l2 0c0,1 -1,1 -1,2 -1,0 -2,0 -2,0 -2,0 -3,0 -3,-1 -1,-1 -1,-2 -1,-3 0,-1 0,-2 1,-3 0,-1 1,-1 2,-1 2,0 2,0 3,1 1,1 1,2 1,4l-5 0c0,0 0,1 0,1 1,0 1,1 2,1 0,0 0,0 0,-1 1,0 1,0 1,0zm0 -3c0,0 0,-1 0,-1 -1,0 -1,0 -2,0 0,0 0,0 -1,0 0,0 0,1 0,1l3 0z"/>
   <path id="4" class="fil4" d="M278 444l-2 0 0 -8 2 0 0 1c1,0 1,-1 1,-1 0,0 1,0 1,0 1,0 1,0 1,0l0 2c-1,0 -1,0 -1,0 0,0 -1,0 -1,0 0,0 0,1 0,1 0,0 -1,1 -1,3l0 2z"/>
   <path id="5" class="fil4" d="M285 435l0 -2 2 0 0 2 -2 0zm0 9l0 -8 2 0 0 8 -2 0z"/>
   <path id="6" class="fil4" d="M298 439l-2 0c0,-1 0,-1 0,-1 -1,0 -1,0 -1,0 -1,0 -1,0 -1,0 -1,1 -1,1 -1,2 0,1 0,2 1,2 0,0 0,0 1,0 0,0 1,0 1,0 0,0 0,0 0,-1l2 0c0,1 0,2 -1,2 0,1 -1,1 -2,1 -1,0 -2,0 -3,-1 -1,-1 -1,-2 -1,-3 0,-1 0,-2 1,-3 1,-1 2,-1 3,-1 1,0 1,0 2,1 1,0 1,1 1,2z"/>
   <path id="7" class="fil4" d="M307 442l2 0c0,1 -1,1 -1,2 -1,0 -2,0 -3,0 -1,0 -2,0 -3,-1 0,-1 0,-2 0,-3 0,-1 0,-2 1,-3 0,-1 1,-1 2,-1 1,0 2,0 3,1 1,1 1,2 1,4l-5 0c0,0 0,1 0,1 1,0 1,1 1,1 1,0 1,0 1,-1 1,0 1,0 1,0zm0 -3c0,0 0,-1 -1,-1 0,0 0,0 -1,0 0,0 0,0 -1,0 0,0 0,1 0,1l3 0z"/>
   <path id="8" class="fil4" d="M267 436l2 0 0 1c0,0 1,0 1,-1 1,0 1,0 2,0 1,0 1,0 2,1 1,1 1,2 1,3 0,1 0,2 -1,3 -1,1 -1,1 -2,1 -1,0 -1,0 -2,0 0,0 0,-1 -1,-1l0 4 -2 0 0 -11zm2 4c0,1 0,1 1,2 0,0 1,1 1,1 1,0 1,-1 1,-1 1,0 1,-1 1,-2 0,-1 0,-1 -1,-2 0,0 0,0 -1,0 0,0 -1,0 -1,0 -1,1 -1,1 -1,2z"/>
   <path class="fil3" d="M223 422l0 -6c-2,-1 -3,-2 -4,-3 -1,-1 -1,-2 -1,-4 0,-1 0,-3 1,-4 1,-1 2,-1 4,-2l0 -1 2 0 0 1c2,1 3,1 4,2 1,1 1,2 1,3l-3 1c0,-1 -1,-2 -2,-2l0 5c2,1 4,2 5,3 1,1 1,2 1,3 0,2 0,4 -1,5 -2,1 -3,2 -5,2l0 3 -2 0 0 -3c-2,0 -3,-1 -4,-2 -1,-1 -2,-2 -2,-4l4 -1c0,1 0,2 1,2 0,1 1,1 1,2zm0 -15c-1,0 -1,0 -1,1 -1,0 -1,1 -1,1 0,1 0,1 1,2 0,0 0,0 1,1l0 -5zm2 15c1,0 1,-1 2,-1 0,-1 1,-1 1,-2 0,-1 -1,-1 -1,-2 0,0 -1,0 -2,-1l0 6z"/>
   <path id="1" class="fil3" d="M240 404c2,0 4,0 5,2 2,2 2,4 2,8 0,4 0,7 -2,9 -1,1 -3,2 -5,2 -2,0 -3,-1 -5,-2 -1,-2 -1,-5 -1,-9 0,-4 0,-6 2,-8 1,-2 2,-2 4,-2zm0 3c0,0 0,0 -1,0 0,1 -1,1 -1,2 0,1 0,3 0,5 0,3 0,5 0,5 0,1 1,2 1,2 1,1 1,1 1,1 1,0 1,0 2,-1 0,0 0,-1 1,-1 0,-1 0,-3 0,-6 0,-2 0,-4 0,-5 -1,-1 -1,-1 -1,-2 -1,0 -1,0 -2,0z"/>
   <path id="2" class="fil3" d="M251 425l0 -4 4 0 0 4 -4 0z"/>
   <path id="3" class="fil3" d="M265 404c2,0 4,0 5,2 1,2 2,4 2,8 0,4 -1,7 -2,9 -1,1 -3,2 -5,2 -2,0 -4,-1 -5,-2 -1,-2 -2,-5 -2,-9 0,-4 1,-6 2,-8 1,-2 3,-2 5,-2zm0 3c-1,0 -1,0 -1,0 -1,1 -1,1 -1,2 -1,1 -1,3 -1,5 0,3 0,5 1,5 0,1 0,2 1,2 0,1 0,1 1,1 0,0 1,0 1,-1 1,0 1,-1 1,-1 0,-1 0,-3 0,-6 0,-2 0,-4 0,-5 0,-1 0,-1 -1,-2 0,0 -1,0 -1,0z"/>
   <path id="4" class="fil3" d="M274 419l4 0c0,1 1,1 1,2 1,1 1,1 2,1 1,0 2,-1 2,-1 1,-1 1,-2 1,-3 0,-1 0,-2 -1,-2 0,-1 -1,-1 -2,-1 0,0 -1,0 -2,0l1 -3c1,0 2,0 2,-1 1,0 1,-1 1,-2 0,0 0,-1 0,-1 -1,-1 -1,-1 -2,-1 -1,0 -1,0 -2,1 0,0 -1,1 -1,2l-3 -1c0,-1 0,-2 1,-3 0,-1 1,-1 2,-2 1,0 2,0 3,0 2,0 4,0 5,2 1,1 1,2 1,3 0,2 -1,3 -3,4 1,1 2,1 3,2 1,1 1,2 1,3 0,2 0,4 -2,5 -1,2 -3,2 -5,2 -2,0 -3,0 -5,-1 -1,-2 -1,-3 -2,-5z"/>
   <path id="5" class="fil3" d="M304 421l0 4 -14 0c0,-2 1,-3 2,-4 0,-2 2,-3 4,-5 2,-2 3,-3 4,-4 0,-1 0,-1 0,-2 0,-1 0,-2 0,-2 -1,-1 -2,-1 -2,-1 -1,0 -2,0 -2,1 -1,0 -1,1 -1,2l-4 0c0,-2 1,-4 2,-5 1,-1 3,-1 5,-1 2,0 3,0 5,1 1,1 1,3 1,5 0,0 0,1 0,2 0,1 -1,2 -2,3 0,1 -1,1 -2,3 -2,1 -2,2 -3,2 0,0 0,1 -1,1l8 0z"/>
   <g>
    <path class="fil4" d="M122 284l0 -11 2 0 0 4 4 0 0 -4 3 0 0 11 -3 0 0 -5 -4 0 0 5 -2 0z"/>
    <path id="1" class="fil4" d="M136 279l-2 -1c1,0 1,-1 2,-1 0,-1 1,-1 2,-1 1,0 2,0 2,0 1,1 1,1 1,1 0,1 1,1 1,2l-1 3c0,0 1,1 1,1 0,1 0,1 0,1l-2 0c0,0 0,0 0,0 0,0 0,0 0,0 -1,0 -1,0 -2,0 0,1 -1,1 -1,1 -1,0 -2,-1 -2,-1 -1,-1 -1,-1 -1,-2 0,0 0,-1 1,-1 0,0 0,-1 0,-1 1,0 1,0 2,0 1,-1 2,-1 2,-1l0 0c0,-1 0,-1 0,-1 0,0 -1,0 -1,0 -1,0 -1,0 -1,0 0,0 0,0 -1,1zm3 1c0,1 0,1 -1,1 -1,0 -1,0 -1,0 0,0 -1,1 -1,1 0,0 1,1 1,1 0,0 0,0 1,0 0,0 0,0 1,0 0,-1 0,-1 0,-1 0,0 0,-1 0,-1l0 -1z"/>
    <path id="2" class="fil4" d="M147 284l-2 0 0 -8 2 0 0 1c0,0 1,-1 1,-1 0,0 1,0 1,0 0,0 1,0 1,0l0 2c-1,0 -1,0 -1,0 -1,0 -1,0 -1,0 0,0 0,1 -1,1 0,1 0,1 0,3l0 2z"/>
    <path id="3" class="fil4" d="M161 284l-2 0 0 -1c-1,1 -1,1 -2,1 0,1 -1,1 -1,1 -1,0 -2,-1 -3,-2 0,0 -1,-1 -1,-3 0,-1 1,-2 1,-3 1,-1 2,-1 3,-1 1,0 2,0 2,1l0 -4 3 0 0 11zm-6 -4c0,1 0,2 0,2 0,1 1,1 2,1 0,0 1,0 1,-1 0,0 0,-1 0,-2 0,-1 0,-1 0,-2 0,0 -1,0 -1,0 -1,0 -1,0 -2,0 0,1 0,1 0,2z"/>
    <path id="4" class="fil4" d="M178 280l2 1c0,1 -1,2 -2,3 -1,0 -2,1 -3,1 -1,0 -3,-1 -4,-2 -1,-1 -1,-2 -1,-4 0,-2 0,-4 1,-5 1,-1 3,-1 4,-1 2,0 3,0 4,1 0,0 1,1 1,2l-2 1c-1,-1 -1,-1 -1,-2 -1,0 -1,0 -2,0 -1,0 -1,0 -2,1 0,0 -1,1 -1,3 0,1 1,2 1,3 1,0 1,1 2,1 1,0 1,-1 2,-1 0,0 0,-1 1,-2z"/>
    <path id="5" class="fil4" d="M185 279l-2 -1c0,0 1,-1 1,-1 1,-1 1,-1 3,-1 0,0 1,0 2,0 0,1 1,1 1,1 0,1 0,1 0,2l0 3c0,0 0,1 0,1 0,1 0,1 0,1l-2 0c0,0 0,0 0,0 0,0 0,0 0,0 0,0 -1,0 -1,0 -1,1 -1,1 -2,1 0,0 -1,-1 -2,-1 0,-1 0,-1 0,-2 0,0 0,-1 0,-1 0,0 1,-1 1,-1 0,0 1,0 2,0 1,-1 1,-1 2,-1l0 0c0,-1 0,-1 0,-1 -1,0 -1,0 -2,0 0,0 0,0 -1,0 0,0 0,0 0,1zm3 1c0,1 -1,1 -1,1 -1,0 -1,0 -2,0 0,0 0,1 0,1 0,0 0,1 0,1 0,0 1,0 1,0 1,0 1,0 1,0 1,-1 1,-1 1,-1 0,0 0,-1 0,-1l0 -1z"/>
    <path id="6" class="fil4" d="M194 276l2 0 0 1c0,0 0,0 1,-1 0,0 1,0 1,0 1,0 2,0 3,1 0,1 1,2 1,3 0,2 -1,3 -1,3 -1,1 -2,2 -3,2 0,0 -1,0 -1,-1 0,0 -1,0 -1,-1l0 5 -2 0 0 -12zm2 4c0,1 0,2 0,2 1,1 1,1 2,1 0,0 1,0 1,-1 0,0 0,-1 0,-2 0,-1 0,-1 0,-2 0,0 -1,0 -1,0 -1,0 -1,0 -2,0 0,1 0,1 0,2z"/>
    <path class="fil3" d="M100 256l0 -6c-2,0 -3,-1 -4,-2 -1,-1 -1,-2 -1,-4 0,-2 0,-3 1,-4 1,-1 3,-2 4,-2l0 -1 2 0 0 1c2,0 3,1 4,2 1,1 1,2 2,3l-4 1c0,-1 -1,-2 -2,-3l0 6c3,1 4,1 5,2 1,1 1,3 1,4 0,2 0,3 -1,5 -1,1 -3,2 -5,2l0 2 -2 0 0 -2c-1,0 -3,-1 -4,-2 -1,-1 -1,-2 -2,-4l4 -1c0,1 0,2 1,2 0,1 1,1 1,1zm0 -15c0,1 -1,1 -1,1 0,1 -1,1 -1,2 0,0 1,1 1,1 0,1 1,1 1,1l0 -5zm2 16c1,-1 2,-1 2,-1 1,-1 1,-2 1,-2 0,-1 0,-1 -1,-2 0,0 -1,-1 -2,-1l0 6z"/>
    <path id="1" class="fil3" d="M111 255l4 -1c0,1 0,2 1,2 0,0 1,1 1,1 1,0 2,-1 2,-2 1,0 1,-2 1,-4 -1,1 -2,1 -3,1 -2,0 -4,0 -5,-1 -1,-2 -1,-3 -1,-5 0,-3 0,-4 1,-6 2,-1 3,-2 5,-2 2,0 4,1 5,3 2,2 3,4 3,8 0,4 -1,7 -3,8 -1,2 -3,3 -5,3 -2,0 -3,-1 -4,-1 -1,-1 -2,-3 -2,-4zm9 -9c0,-1 0,-2 -1,-3 0,-1 -1,-1 -2,-1 -1,0 -1,0 -2,1 0,0 -1,1 -1,3 0,1 1,2 1,3 1,0 1,0 2,0 1,0 2,0 2,0 1,-1 1,-2 1,-3z"/>
    <path id="2" class="fil3" d="M161 242l0 -3 4 0 0 3 -4 0zm0 18l0 -16 4 0 0 16 -4 0z"/>
    <path id="3" class="fil3" d="M169 260l0 -21 4 0 0 21 -4 0z"/>
    <path id="4" class="fil3" d="M177 260l0 -21 4 0 0 21 -4 0z"/>
    <path id="5" class="fil3" d="M185 242l0 -3 4 0 0 3 -4 0zm0 18l0 -16 4 0 0 16 -4 0z"/>
    <path id="6" class="fil3" d="M192 252c0,-2 1,-3 1,-4 1,-1 2,-2 3,-3 1,-1 3,-1 4,-1 2,0 4,1 6,2 1,2 2,4 2,6 0,2 -1,4 -2,6 -2,1 -4,2 -6,2 -1,0 -3,0 -4,-1 -1,-1 -2,-2 -3,-3 0,-1 -1,-2 -1,-4zm4 0c0,1 1,3 2,3 0,1 1,2 2,2 1,0 2,-1 3,-2 1,0 1,-2 1,-3 0,-2 0,-3 -1,-4 -1,0 -2,-1 -3,-1 -1,0 -2,1 -2,1 -1,1 -2,2 -2,4z"/>
    <path id="7" class="fil3" d="M225 260l-4 0 0 -8c0,-2 0,-3 0,-3 0,-1 -1,-1 -1,-2 0,0 -1,0 -1,0 -1,0 -2,0 -2,1 -1,0 -1,1 -2,1 0,1 0,2 0,4l0 7 -4 0 0 -16 4 0 0 3c1,-2 3,-3 5,-3 1,0 2,0 2,0 1,1 2,1 2,2 0,0 1,1 1,1 0,1 0,2 0,3l0 10z"/>
    <path id="8" class="fil3" d="M136 260l0 -21 7 0 3 14 4 -14 6 0 0 21 -4 0 0 -17 -4 17 -4 0 -4 -17 0 17 -4 0z"/>
    <path class="fil4" d="M326 281l3 -1c0,1 0,2 0,2 1,1 1,1 2,1 1,0 1,0 2,-1 0,0 0,0 0,-1 0,0 0,0 0,-1 0,0 0,0 -1,0 0,0 -1,0 -2,-1 -1,0 -2,0 -2,-1 -1,0 -1,-1 -1,-2 0,-1 0,-1 0,-2 1,0 1,-1 2,-1 0,0 1,0 2,0 1,0 2,0 3,1 1,0 1,1 1,2l-2 0c0,0 0,-1 -1,-1 0,0 0,0 -1,0 -1,0 -1,0 -2,0 0,0 0,1 0,1 0,0 0,0 0,1 1,0 1,0 2,0 2,1 2,1 3,1 0,0 1,1 1,1 1,1 1,1 1,2 0,1 -1,1 -1,2 0,1 -1,1 -1,1 -1,0 -2,1 -3,1 -1,0 -2,-1 -3,-1 -1,-1 -2,-2 -2,-3z"/>
    <path id="1" class="fil4" d="M339 280c0,-1 0,-1 0,-2 1,-1 1,-1 2,-2 1,0 1,0 2,0 1,0 2,0 3,1 1,1 1,2 1,3 0,2 0,3 -1,3 -1,1 -2,2 -3,2 -1,0 -1,-1 -2,-1 -1,0 -1,-1 -2,-1 0,-1 0,-2 0,-3zm2 0c0,1 0,2 1,2 0,1 1,1 1,1 1,0 1,0 2,-1 0,0 0,-1 0,-2 0,-1 0,-1 0,-2 -1,0 -1,0 -2,0 0,0 -1,0 -1,0 -1,1 -1,1 -1,2z"/>
    <path id="2" class="fil4" d="M350 276l1 0 0 -1c0,0 0,-1 0,-1 1,0 1,-1 1,-1 1,0 1,0 2,0 0,0 1,0 2,0l-1 2c0,-1 0,-1 -1,-1 0,0 0,1 0,1 -1,0 -1,0 -1,1l0 0 2 0 0 2 -2 0 0 6 -2 0 0 -6 -1 0 0 -2z"/>
    <path id="3" class="fil4" d="M362 276l0 2 -2 0 0 3c0,1 0,1 0,1 0,1 0,1 1,1 0,0 0,0 0,0 0,0 0,0 1,0l0 1c0,1 -1,1 -2,1 0,0 0,0 -1,-1 0,0 0,0 0,0 -1,0 -1,-1 -1,-1 0,0 0,-1 0,-1l0 -4 -1 0 0 -2 1 0 0 -2 2 -1 0 3 2 0z"/>
    <path id="4" class="fil4" d="M378 280l3 1c-1,1 -1,2 -2,3 -1,0 -2,1 -3,1 -2,0 -3,-1 -4,-2 -1,-1 -1,-2 -1,-4 0,-2 0,-4 1,-5 1,-1 2,-1 4,-1 1,0 3,0 3,1 1,0 1,1 2,2l-3 1c0,-1 0,-1 -1,-2 0,0 -1,0 -1,0 -1,0 -2,0 -2,1 -1,0 -1,1 -1,3 0,1 0,2 1,3 0,0 1,1 2,1 0,0 1,-1 1,-1 1,0 1,-1 1,-2z"/>
    <path id="5" class="fil4" d="M386 279l-2 -1c0,0 0,-1 1,-1 0,-1 1,-1 2,-1 1,0 2,0 3,0 0,1 0,1 1,1 0,1 0,1 0,2l0 3c0,0 0,1 0,1 0,1 0,1 0,1l-2 0c0,0 0,0 0,0 0,0 0,0 0,0 -1,0 -1,0 -1,0 -1,1 -1,1 -2,1 -1,0 -1,-1 -2,-1 0,-1 0,-1 0,-2 0,0 0,-1 0,-1 0,0 0,-1 1,-1 0,0 1,0 2,0 1,-1 1,-1 2,-1l0 0c0,-1 0,-1 -1,-1 0,0 0,0 -1,0 0,0 -1,0 -1,0 0,0 0,0 0,1zm3 1c-1,1 -1,1 -2,1 0,0 -1,0 -1,0 0,0 0,1 0,1 0,0 0,1 0,1 0,0 1,0 1,0 0,0 1,0 1,0 0,-1 1,-1 1,-1 0,0 0,-1 0,-1l0 -1z"/>
    <path id="6" class="fil4" d="M395 276l2 0 0 1c0,0 0,0 1,-1 0,0 1,0 1,0 1,0 2,0 3,1 1,1 1,2 1,3 0,2 0,3 -1,3 -1,1 -2,2 -3,2 0,0 0,0 -1,-1 0,0 -1,0 -1,-1l0 5 -2 0 0 -12zm2 4c0,1 0,2 0,2 1,1 1,1 2,1 0,0 1,0 1,-1 0,0 1,-1 1,-2 0,-1 -1,-1 -1,-2 0,0 -1,0 -1,0 -1,0 -1,0 -2,0 0,1 0,1 0,2z"/>
    <path class="fil3" d="M302 256l0 -6c-1,0 -3,-1 -4,-2 -1,-1 -1,-2 -1,-4 0,-2 0,-3 1,-4 1,-1 3,-2 4,-2l0 -1 2 0 0 1c2,0 3,1 4,2 1,1 2,2 2,3l-4 1c0,-1 -1,-2 -2,-3l0 6c3,1 4,1 5,2 1,1 1,3 1,4 0,2 0,3 -1,5 -1,1 -3,2 -5,2l0 2 -2 0 0 -2c-1,0 -3,-1 -4,-2 -1,-1 -1,-2 -2,-4l4 -1c0,1 1,2 1,2 0,1 1,1 1,1zm0 -15c0,1 -1,1 -1,1 0,1 0,1 0,2 0,0 0,1 0,1 0,1 1,1 1,1l0 -5zm2 16c1,-1 2,-1 2,-1 1,-1 1,-2 1,-2 0,-1 0,-1 -1,-2 0,0 -1,-1 -2,-1l0 6z"/>
    <path id="1" class="fil3" d="M323 260l-4 0 0 -16c-1,2 -3,3 -5,3l0 -3c1,-1 2,-1 3,-2 2,-1 3,-2 3,-4l3 0 0 22z"/>
    <path id="2" class="fil3" d="M363 242l0 -3 4 0 0 3 -4 0zm0 18l0 -16 4 0 0 16 -4 0z"/>
    <path id="3" class="fil3" d="M371 260l0 -21 4 0 0 21 -4 0z"/>
    <path id="4" class="fil3" d="M379 260l0 -21 4 0 0 21 -4 0z"/>
    <path id="5" class="fil3" d="M387 242l0 -3 4 0 0 3 -4 0zm0 18l0 -16 4 0 0 16 -4 0z"/>
    <path id="6" class="fil3" d="M394 252c0,-2 1,-3 1,-4 1,-1 2,-2 3,-3 1,-1 3,-1 4,-1 3,0 5,1 6,2 1,2 2,4 2,6 0,2 -1,4 -2,6 -2,1 -3,2 -6,2 -1,0 -2,0 -4,-1 -1,-1 -2,-2 -3,-3 0,-1 -1,-2 -1,-4zm5 0c0,1 0,3 1,3 0,1 1,2 2,2 1,0 2,-1 3,-2 1,0 1,-2 1,-3 0,-2 0,-3 -1,-4 -1,0 -2,-1 -3,-1 -1,0 -2,1 -2,1 -1,1 -1,2 -1,4z"/>
    <path id="7" class="fil3" d="M427 260l-4 0 0 -8c0,-2 0,-3 0,-3 0,-1 -1,-1 -1,-2 0,0 -1,0 -1,0 -1,0 -2,0 -2,1 -1,0 -1,1 -1,1 -1,1 -1,2 -1,4l0 7 -4 0 0 -16 4 0 0 3c1,-2 3,-3 5,-3 1,0 2,0 3,0 0,1 1,1 1,2 1,0 1,1 1,1 0,1 0,2 0,3l0 10z"/>
    <path id="8" class="fil3" d="M338 260l0 -21 7 0 3 14 4 -14 7 0 0 21 -4 0 0 -17 -5 17 -4 0 -4 -17 0 17 -4 0z"/>
   </g>
   <path class="fil5" d="M536 412c0,0 0,1 0,1l12 0c1,0 1,-1 1,-1l0 -2c0,0 0,0 -1,0l-8 0c-1,0 -1,-1 -1,-1l0 -15c0,-1 0,-1 0,-1l-3 0c0,0 0,0 0,1l0 18z"/>
   <path id="1" class="fil5" d="M557 413c2,0 4,-1 5,-3 0,0 0,0 0,0l-1 -1c0,0 -1,0 -1,0 0,0 -1,1 -3,1 -1,0 -3,-1 -3,-2 0,0 0,-1 0,-1 0,0 0,0 0,0l8 0c1,0 1,0 1,-1 0,-2 0,-3 -1,-4 -1,-2 -3,-3 -5,-3 -3,0 -5,1 -6,3 0,1 0,2 0,4 0,1 0,2 0,3 1,2 3,4 6,4zm2 -9c0,0 0,0 0,0l-5 0c0,0 0,0 0,0 0,0 0,-1 0,-1 0,-1 1,-2 3,-2 1,0 2,1 2,2 0,0 0,1 0,1z"/>
   <path id="2" class="fil5" d="M571 418c4,0 6,-2 6,-6l0 -13c0,0 0,0 0,0l-3 0c0,0 0,0 0,0l0 1 0 0c-1,-1 -2,-1 -4,-1 -2,0 -4,1 -4,3 -1,1 -1,2 -1,3 0,2 0,3 1,4 0,2 2,3 4,3 2,0 3,0 4,-1l0 0 0 1c0,2 -1,3 -3,3 -1,0 -2,0 -3,-1 0,0 0,0 -1,0l-1 1c0,1 0,1 0,1 1,1 3,2 5,2zm0 -9c-1,0 -2,0 -2,-1 0,-1 -1,-2 -1,-3 0,-1 1,-1 1,-2 0,-1 1,-2 2,-2 1,0 2,1 3,2 0,1 0,1 0,2 0,1 0,2 0,3 -1,1 -2,1 -3,1z"/>
   <path id="3" class="fil5" d="M592 413c0,0 0,-1 0,-1l0 -9c0,-3 -2,-4 -6,-4 -2,0 -3,0 -5,1 0,0 0,0 0,0l1 2c1,0 1,0 1,0 0,0 1,-1 3,-1 2,0 3,1 3,3l0 0c0,0 0,0 0,0l-3 0c-3,0 -5,2 -5,5 0,3 2,4 4,4 2,0 3,-1 4,-2l0 0 0 1c0,0 0,1 0,1l3 0zm-6 -3c-2,0 -2,0 -2,-1 0,-2 0,-2 3,-2l2 0c0,0 0,0 0,0l0 1c0,1 -1,2 -3,2z"/>
   <path id="4" class="fil5" d="M601 413c0,0 0,0 0,-1l0 -2c0,0 0,0 0,0l-1 0c-1,0 -1,0 -1,-1l0 -15c0,-1 0,-1 0,-1l-3 0c0,0 0,0 0,1l0 15c0,2 1,4 4,4l1 0z"/>
   <path id="5" class="fil5" d="M621 413c0,0 1,-1 1,-1l0 -9c0,-3 -2,-4 -6,-4 -2,0 -4,0 -5,1 0,0 0,0 0,0l1 2c0,0 0,0 0,0 1,0 2,-1 4,-1 2,0 3,1 3,3l0 0c0,0 -1,0 -1,0l-2 0c-4,0 -6,2 -6,5 0,3 2,4 5,4 2,0 3,-1 4,-2l0 0 0 1c0,0 0,1 0,1l2 0zm-5 -3c-2,0 -3,0 -3,-1 0,-2 1,-2 3,-2l2 0c0,0 1,0 1,0l0 1c0,1 -2,2 -3,2z"/>
   <path id="6" class="fil5" d="M637 413c0,0 0,-1 0,-1l0 -8c0,-3 -2,-5 -5,-5 -1,0 -3,0 -3,1l0 0 0 -1c0,0 0,0 -1,0l-2 0c0,0 0,0 0,0l0 13c0,0 0,1 0,1l2 0c1,0 1,-1 1,-1l0 -8c0,-1 1,-3 2,-3 2,0 3,2 3,3l0 8c0,0 0,1 0,1l3 0z"/>
   <path id="7" class="fil5" d="M652 413c0,0 0,-1 0,-1l0 -18c0,-1 0,-1 0,-1l-3 0c0,0 0,0 0,1l0 6 0 0c-1,-1 -2,-1 -4,-1 -2,0 -4,1 -4,3 -1,1 -1,2 -1,4 0,2 0,2 1,4 0,2 2,3 4,3 2,0 3,-1 4,-2l0 0 0 1c0,0 0,1 0,1l3 0zm-6 -3c-1,0 -2,-1 -2,-2 0,0 -1,-1 -1,-2 0,-2 1,-2 1,-3 0,-1 1,-2 2,-2 2,0 2,1 3,2 0,1 0,1 0,3 0,1 0,2 0,2 -1,1 -1,2 -3,2z"/>
   <path id="8" class="fil5" d="M538 447c2,0 3,-1 4,-2 0,-1 0,-1 0,-1l-2 -1c0,0 0,0 0,0 -1,0 -1,1 -2,1 -2,0 -3,-1 -3,-2 0,-1 0,-1 0,-2 0,-1 0,-2 0,-3 0,-1 1,-2 3,-2 1,0 1,1 2,1 0,1 0,1 0,1l2 -2c0,0 0,0 0,0 -1,-2 -2,-3 -4,-3 -3,0 -5,2 -6,4 0,1 0,2 0,4 0,1 0,2 0,3 1,2 3,4 6,4z"/>
   <path id="9" class="fil5" d="M551 447c3,0 5,-2 6,-4 0,-1 0,-2 0,-3 0,-2 0,-3 0,-4 -1,-2 -3,-4 -6,-4 -3,0 -5,2 -6,4 0,1 0,2 0,4 0,1 0,2 0,3 1,2 3,4 6,4zm0 -3c-1,0 -2,-1 -3,-2 0,-1 0,-1 0,-2 0,-2 0,-2 0,-3 1,-1 2,-2 3,-2 1,0 2,1 3,2 0,1 0,1 0,3 0,1 0,1 0,2 -1,1 -2,2 -3,2z"/>
   <path id="10" class="fil5" d="M572 446c0,0 0,0 0,0l0 -9c0,-2 -2,-5 -5,-5 -2,0 -3,1 -3,2l0 0 0 -1c0,0 -1,0 -1,0l-2 0c0,0 -1,0 -1,0l0 13c0,0 1,0 1,0l2 0c0,0 1,0 1,0l0 -8c0,-2 1,-3 2,-3 2,0 3,1 3,3l0 8c0,0 0,0 0,0l3 0z"/>
   <path id="11" class="fil5" d="M581 447c4,0 6,-2 6,-5 0,-2 -2,-4 -5,-4l-1 0c-2,0 -2,-1 -2,-1 0,-1 0,-2 2,-2 1,0 2,1 3,1 0,0 1,0 1,0l1 -2c0,0 0,0 0,0 -1,-1 -3,-2 -5,-2 -3,0 -5,2 -5,5 0,2 1,3 4,4l1 0c2,0 3,1 3,1 0,1 -1,2 -3,2 -1,0 -3,-1 -4,-2 0,0 0,0 0,0l-2 2c0,0 0,0 0,1 1,1 3,2 6,2z"/>
   <path id="12" class="fil5" d="M601 446c0,0 0,0 0,0l0 -13c0,0 0,0 0,0l-3 0c0,0 0,0 0,0l0 8c0,2 -1,3 -3,3 -1,0 -2,-1 -2,-3l0 -8c0,0 0,0 0,0l-3 0c0,0 0,0 0,0l0 9c0,3 2,5 4,5 2,0 3,-1 4,-2l0 0 0 1c0,0 0,0 0,0l3 0z"/>
   <path id="13" class="fil5" d="M610 447c0,0 0,-1 0,-1l0 -2c0,0 0,0 0,0l0 0c-1,0 -2,-1 -2,-2l0 -15c0,0 0,0 0,0l-3 0c0,0 0,0 0,0l0 16c0,2 1,4 4,4l1 0z"/>
   <path id="14" class="fil5" d="M619 447c0,0 0,-1 0,-1l0 -2c0,0 0,0 0,0l-1 0c-1,0 -1,-1 -1,-2l0 -7c0,0 0,0 0,0l2 0c0,0 0,0 0,0l0 -2c0,0 0,0 0,0l-2 0c0,0 0,0 0,0l0 -4c0,0 -1,0 -1,0l-2 0c0,0 -1,0 -1,0l0 4c0,0 0,0 0,0l-1 0c0,0 0,0 0,0l0 2c0,0 0,0 0,0l1 0c0,0 0,0 0,0l0 8c0,2 1,4 4,4l2 0z"/>
   <path id="15" class="fil5" d="M625 430c0,0 0,0 0,0l0 -3c0,0 0,0 0,0l-2 0c-1,0 -1,0 -1,0l0 3c0,0 0,0 1,0l2 0zm0 16c0,0 0,0 0,0l0 -13c0,0 0,0 0,0l-2 0c-1,0 -1,0 -1,0l0 13c0,0 0,0 1,0l2 0z"/>
   <path id="16" class="fil5" d="M641 446c0,0 0,0 0,0l0 -9c0,-2 -2,-5 -5,-5 -1,0 -3,1 -3,2l0 0 0 -1c0,0 0,0 -1,0l-2 0c0,0 0,0 0,0l0 13c0,0 0,0 0,0l2 0c1,0 1,0 1,0l0 -8c0,-2 1,-3 2,-3 2,0 3,1 3,3l0 8c0,0 0,0 0,0l3 0z"/>
   <path id="17" class="fil5" d="M650 452c4,0 6,-3 6,-7l0 -12c0,0 0,0 0,0l-3 0c0,0 0,0 0,0l0 1 0 0c-1,-1 -2,-2 -4,-2 -2,0 -4,2 -4,4 -1,1 -1,2 -1,3 0,2 0,3 1,4 0,2 2,3 4,3 2,0 3,-1 4,-2l0 0 0 2c0,2 -1,3 -3,3 -1,0 -2,-1 -3,-1 0,0 0,0 -1,0l-1 1c0,0 0,1 0,1 1,1 3,2 5,2zm0 -9c-1,0 -2,0 -2,-2 -1,0 -1,-1 -1,-2 0,-1 0,-1 1,-2 0,-1 1,-2 2,-2 1,0 2,1 3,2 0,1 0,1 0,2 0,1 0,2 0,2 -1,2 -2,2 -3,2z"/>
   <path class="fil6" d="M1010 280c0,0 0,0 0,0l0 -16c0,0 0,0 0,0l5 0c0,0 1,0 1,0l0 -3c0,0 -1,0 -1,0l-13 0c-1,0 -1,0 -1,0l0 3c0,0 0,0 1,0l5 0c0,0 0,0 0,0l0 16c0,0 0,0 0,0l3 0z"/>
   <path id="1" class="fil6" d="M1022 280c2,0 4,-1 5,-2 0,0 0,0 0,0l-1 -2c-1,0 -1,0 -1,0 -1,1 -2,2 -3,2 -2,0 -3,-1 -3,-3 0,0 0,0 0,-1 0,0 0,0 0,0l8 0c0,0 1,0 1,0 0,-2 -1,-3 -1,-4 -1,-2 -3,-4 -6,-4 -2,0 -4,2 -5,4 0,1 -1,2 -1,3 0,2 1,3 1,4 1,2 3,3 6,3zm2 -8c0,0 0,0 0,0l-5 0c0,0 0,0 0,0 0,-1 0,-1 0,-1 0,-2 1,-2 3,-2 1,0 2,0 2,2 0,0 0,0 0,1z"/>
   <path id="2" class="fil6" d="M1036 280c2,0 4,0 5,-2 0,0 0,0 0,0l-2 -2c0,0 0,0 0,0 -1,1 -2,2 -3,2 -1,0 -2,-1 -2,-2 -1,-1 -1,-2 -1,-3 0,-1 0,-2 1,-2 0,-1 1,-2 2,-2 1,0 2,0 3,1 0,0 0,0 0,0l2 -1c0,0 0,-1 0,-1 -1,-1 -3,-2 -5,-2 -3,0 -5,1 -5,4 -1,1 -1,2 -1,3 0,2 0,3 1,4 0,2 2,3 5,3z"/>
   <path id="3" class="fil6" d="M1055 280c1,0 1,0 1,0l0 -9c0,-3 -2,-5 -5,-5 -2,0 -3,1 -4,2l0 0 0 -7c0,0 0,0 0,0l-2 0c-1,0 -1,0 -1,0l0 19c0,0 0,0 1,0l2 0c0,0 0,0 0,0l0 -8c0,-2 1,-3 3,-3 2,0 3,1 3,3l0 8c0,0 0,0 0,0l2 0z"/>
   <path id="4" class="fil6" d="M950 309c0,0 0,0 1,0l6 0c4,0 6,-1 7,-4 0,-1 0,-2 0,-6 0,-3 0,-4 0,-5 -1,-3 -3,-4 -7,-4l-6 0c-1,0 -1,0 -1,0l0 19zm4 -3l0 -13c0,0 0,0 0,0l3 0c2,0 3,1 4,2 0,1 0,2 0,4 0,3 0,4 0,5 -1,1 -2,2 -4,2l-3 0c0,0 0,0 0,0z"/>
   <path id="5" class="fil6" d="M973 309c3,0 5,-1 6,-2 0,0 0,0 0,0l-2 -2c0,0 0,0 0,0 -1,1 -2,1 -3,1 -2,0 -3,0 -3,-2 -1,0 -1,0 -1,-1 0,0 0,0 1,0l8 0c0,0 0,0 0,0 0,-2 0,-3 0,-4 -1,-2 -3,-4 -6,-4 -3,0 -5,1 -5,4 -1,1 -1,2 -1,3 0,2 0,3 1,4 0,2 2,3 5,3zm3 -8c0,0 0,0 0,0l-5 0c-1,0 -1,0 -1,0 0,-1 0,-1 1,-1 0,-2 1,-2 2,-2 2,0 3,0 3,2 0,0 0,0 0,1z"/>
   <path id="6" class="fil6" d="M989 309c0,0 0,0 0,0l5 -13c0,0 0,-1 -1,-1l-2 0c0,0 -1,1 -1,1l-2 9 -1 0 -3 -9c0,0 0,-1 0,-1l-3 0c0,0 0,1 0,1l5 13c0,0 0,0 0,0l3 0z"/>
   <path id="7" class="fil6" d="M1002 309c2,0 4,-1 5,-2 0,0 0,0 0,0l-2 -2c0,0 0,0 0,0 -1,1 -2,1 -3,1 -2,0 -3,0 -3,-2 0,0 0,0 0,-1 0,0 0,0 0,0l8 0c0,0 0,0 0,0 0,-2 0,-3 0,-4 -1,-2 -3,-4 -6,-4 -2,0 -4,1 -5,4 0,1 -1,2 -1,3 0,2 1,3 1,4 1,2 3,3 6,3zm2 -8c0,0 0,0 0,0l-5 0c0,0 0,0 0,0 0,-1 0,-1 0,-1 0,-2 1,-2 2,-2 2,0 3,0 3,2 0,0 0,0 0,1z"/>
   <path id="8" class="fil6" d="M1016 309c0,0 0,0 0,0l0 -2c0,-1 0,-1 0,-1l-1 0c-1,0 -1,0 -1,-1l0 -15c0,0 0,0 0,0l-3 0c0,0 0,0 0,0l0 15c0,3 1,4 4,4l1 0z"/>
   <path id="9" class="fil6" d="M1024 309c3,0 5,-1 6,-3 0,-1 0,-2 0,-4 0,-1 0,-2 0,-3 -1,-3 -3,-4 -6,-4 -2,0 -4,1 -5,4 -1,1 -1,2 -1,3 0,2 0,3 1,4 1,2 3,3 5,3zm0 -3c-1,0 -2,0 -2,-1 0,-1 0,-2 0,-3 0,-1 0,-2 0,-2 0,-1 1,-2 2,-2 2,0 3,1 3,2 0,0 0,1 0,2 0,1 0,2 0,3 0,1 -1,1 -3,1z"/>
   <path id="10" class="fil6" d="M1037 314c0,0 0,0 0,0l0 -6 0 0c1,1 2,1 4,1 2,0 4,-1 4,-3 1,-1 1,-2 1,-4 0,-2 0,-3 -1,-4 0,-2 -2,-3 -4,-3 -2,0 -3,1 -4,2l0 0 0 -1c0,0 0,-1 0,-1l-3 0c0,0 0,1 0,1l0 18c0,0 0,0 0,0l3 0zm3 -8c-2,0 -2,0 -3,-1 0,-1 0,-2 0,-3 0,-1 0,-2 0,-2 1,-1 1,-2 3,-2 1,0 2,1 2,2 1,0 1,1 1,2 0,1 0,2 -1,3 0,1 -1,1 -2,1z"/>
   <path id="11" class="fil6" d="M1069 309c0,0 0,0 0,0l0 -9c0,-3 -2,-5 -5,-5 -2,0 -3,1 -4,2l0 0c-1,-1 -2,-2 -4,-2 -2,0 -3,1 -4,2l0 0 0 -1c0,0 0,-1 0,-1l-3 0c0,0 0,1 0,1l0 13c0,0 0,0 0,0l3 0c0,0 0,0 0,0l0 -8c0,-2 1,-3 3,-3 2,0 3,1 3,3l0 8c0,0 0,0 0,0l2 0c1,0 1,0 1,0l0 -8c0,-2 1,-3 2,-3 2,0 3,1 3,3l0 8c0,0 0,0 0,0l3 0z"/>
   <path id="12" class="fil6" d="M1078 309c3,0 5,-1 6,-2 0,0 0,0 0,0l-2 -2c0,0 0,0 0,0 -1,1 -2,1 -3,1 -2,0 -3,0 -3,-2 -1,0 -1,0 -1,-1 0,0 0,0 1,0l8 0c0,0 0,0 0,0 0,-2 0,-3 0,-4 -1,-2 -3,-4 -6,-4 -2,0 -5,1 -5,4 -1,1 -1,2 -1,3 0,2 0,3 1,4 0,2 2,3 5,3zm3 -8c0,0 0,0 0,0l-5 0c-1,0 -1,0 -1,0 0,-1 0,-1 1,-1 0,-2 1,-2 2,-2 2,0 3,0 3,2 0,0 0,0 0,1z"/>
   <path id="13" class="fil6" d="M1099 309c0,0 0,0 0,0l0 -9c0,-3 -2,-5 -5,-5 -1,0 -3,1 -3,2l0 0 0 -1c0,0 0,-1 0,-1l-3 0c0,0 0,1 0,1l0 13c0,0 0,0 0,0l3 0c0,0 0,0 0,0l0 -8c0,-2 1,-3 2,-3 2,0 3,1 3,3l0 8c0,0 0,0 0,0l3 0z"/>
   <path id="14" class="fil6" d="M1108 309c1,0 1,0 1,0l0 -2c0,-1 0,-1 -1,-1l0 0c-1,0 -2,0 -2,-1l0 -7c0,0 1,0 1,0l1 0c1,0 1,0 1,0l0 -2c0,0 0,-1 -1,-1l-1 0c0,0 -1,0 -1,0l0 -3c0,-1 0,-1 0,-1l-2 0c-1,0 -1,0 -1,1l0 3c0,0 0,0 0,0l-1 0c0,0 0,1 0,1l0 2c0,0 0,0 0,0l1 0c0,0 0,0 0,0l0 7c0,3 1,4 4,4l1 0z"/>
   <path class="fil3" d="M1001 239c0,3 3,5 7,5 4,0 6,-3 6,-7 0,-2 -1,-4 -2,-5l0 0c1,-1 2,-2 2,-4 0,-4 -2,-6 -6,-6 -4,0 -7,2 -7,5 0,0 0,0 0,0l4 1c0,0 0,0 0,0 0,-2 1,-2 2,-2 2,0 3,1 3,2 0,2 -1,3 -3,3l-1 0c0,0 0,0 0,0l0 3c0,0 0,0 0,0l1 0c2,0 3,1 3,3 0,2 -1,3 -2,3 -2,0 -3,-1 -3,-2 0,0 0,0 -1,0l-3 0c0,1 0,1 0,1z"/>
   <path id="1" class="fil3" d="M1018 239c1,3 3,5 7,5 3,0 5,-2 6,-4 0,-1 1,-2 1,-3 0,-2 -1,-3 -1,-4 -1,-2 -3,-4 -5,-4 -2,0 -3,1 -3,1l-1 0 0 -4c0,0 0,0 1,0l8 0c0,0 0,0 0,0l0 -3c0,0 0,-1 0,-1l-12 0c0,0 0,1 0,1l0 11c0,0 0,1 0,1l3 0c0,0 1,-1 1,-1 0,0 1,-1 2,-1 1,0 2,0 2,1 0,1 0,2 0,3 0,1 0,1 0,2 0,1 -1,1 -2,1 -2,0 -2,-1 -3,-2 0,0 0,0 0,0l-3 1c-1,0 -1,0 -1,0l0 0z"/>
   <path id="2" class="fil3" d="M1038 243c0,1 0,1 0,1l3 0c0,0 0,0 0,-1l13 -21c0,0 0,0 -1,0l-2 0c0,0 0,0 -1,0l-12 21zm1 -10c2,0 4,-1 4,-2 1,-1 1,-1 1,-3 0,-2 0,-3 -1,-3 0,-2 -2,-3 -4,-3 -2,0 -3,1 -4,3 0,0 0,1 0,3 0,2 0,2 0,3 1,1 2,2 4,2zm0 -2c0,0 0,0 -1,-1 0,0 0,0 0,-2 0,-2 0,-2 0,-3 1,0 1,0 1,0 1,0 1,0 2,0 0,1 0,1 0,3 0,2 0,2 0,2 -1,1 -1,1 -2,1zm9 10c1,2 2,3 4,3 2,0 4,-1 4,-3 1,-1 1,-1 1,-3 0,-2 0,-2 -1,-3 0,-1 -2,-2 -4,-2 -2,0 -3,1 -4,2 0,1 0,1 0,3 0,2 0,2 0,3zm3 -1c0,0 0,0 0,-2 0,-2 0,-2 0,-2 0,-1 1,-1 1,-1 1,0 1,0 1,1 1,0 1,0 1,2 0,2 0,2 -1,2 0,1 0,1 -1,1 0,0 -1,0 -1,-1z"/>
   <path class="fil3" d="M576 383c0,0 0,1 0,1l4 0c0,0 0,-1 0,-1l0 -20c0,0 0,0 0,0l-4 0c0,0 0,0 0,0l-4 2c0,0 0,1 0,1l0 4c0,0 0,0 0,0l4 -3 0 0 0 16z"/>
   <path id="1" class="fil3" d="M588 380c1,2 3,4 6,4 3,0 6,-2 6,-4 1,-1 1,-2 1,-7 0,-5 0,-6 -1,-7 0,-2 -3,-4 -6,-4 -3,0 -5,2 -6,4 -1,1 -1,2 -1,7 0,5 0,6 1,7zm4 -1c0,-1 0,-1 0,-6 0,-5 0,-5 0,-6 0,-1 1,-1 2,-1 1,0 2,0 2,1 0,1 0,1 0,6 0,5 0,5 0,6 0,1 -1,1 -2,1 -1,0 -2,0 -2,-1z"/>
   <path id="2" class="fil3" d="M608 384c-1,0 0,0 0,0l2 0c1,0 1,0 1,0l12 -21c0,-1 0,-1 0,-1l-3 0c0,0 0,0 0,1l-12 21zm1 -11c2,0 3,-1 4,-2 0,-1 0,-1 0,-3 0,-2 0,-3 0,-3 -1,-2 -2,-3 -4,-3 -2,0 -4,1 -4,3 0,0 0,1 0,3 0,2 0,2 0,3 0,1 2,2 4,2zm0 -2c-1,0 -1,0 -1,-1 0,0 0,0 0,-2 0,-2 0,-2 0,-3 0,0 0,0 1,0 0,0 1,0 1,0 0,1 0,1 0,3 0,2 0,2 0,2 0,1 -1,1 -1,1zm9 10c0,2 2,3 4,3 2,0 3,-1 4,-3 0,0 0,-1 0,-3 0,-2 0,-2 0,-3 -1,-1 -2,-2 -4,-2 -2,0 -4,1 -4,2 -1,1 -1,1 -1,3 0,2 0,3 1,3zm3 0c0,-1 -1,-1 -1,-3 0,-2 1,-2 1,-2 0,-1 0,-1 1,-1 0,0 1,0 1,1 0,0 0,0 0,2 0,2 0,2 0,3 0,0 -1,0 -1,0 -1,0 -1,0 -1,0z"/>
   <path class="fil3" d="M547 208c1,3 3,4 7,4 4,0 7,-2 7,-6 0,-3 -2,-4 -3,-5l0 0c1,-1 2,-3 2,-4 0,-4 -2,-6 -6,-6 -4,0 -6,2 -7,5 0,0 0,0 1,0l3 1c0,0 0,0 0,-1 1,-1 1,-1 3,-1 1,0 2,1 2,2 0,2 -1,3 -3,3l0 0c-1,0 -1,0 -1,0l0 3c0,0 0,0 1,0l0 0c2,0 3,1 3,3 0,2 -1,3 -2,3 -2,0 -3,-1 -3,-2 0,0 0,0 0,0l-4 0c0,0 0,0 0,1z"/>
   <path id="1" class="fil3" d="M565 208c0,3 2,4 6,4 3,0 5,-1 6,-3 0,-1 1,-2 1,-4 0,-1 -1,-2 -1,-3 -1,-3 -3,-4 -5,-4 -2,0 -3,1 -3,1l0 0 0 -4c0,0 0,0 0,0l8 0c0,0 0,0 0,0l0 -3c0,-1 0,-1 0,-1l-12 0c0,0 0,0 0,1l0 11c0,0 0,0 0,0l3 0c1,0 1,0 1,0 0,-1 1,-1 2,-1 1,0 2,0 2,1 0,1 0,1 0,2 0,1 0,2 0,2 0,1 -1,2 -2,2 -1,0 -2,-1 -3,-2 0,0 0,0 0,0l-3 0c0,1 0,1 0,1l0 0z"/>
   <path id="2" class="fil3" d="M584 212c0,0 0,0 0,0l3 0c0,0 0,0 0,0l13 -21c0,0 0,0 -1,0l-2 0c0,0 -1,0 -1,0l-12 21zm1 -10c2,0 4,-1 4,-3 1,0 1,-1 1,-3 0,-1 0,-2 -1,-2 0,-2 -2,-3 -4,-3 -2,0 -3,1 -4,3 0,0 0,1 0,2 0,2 0,3 0,3 1,2 2,3 4,3zm0 -2c0,0 0,-1 -1,-1 0,0 0,-1 0,-3 0,-1 0,-2 0,-2 1,0 1,-1 1,-1 1,0 1,1 2,1 0,0 0,1 0,2 0,2 0,3 0,3 -1,0 -1,1 -2,1zm9 10c1,1 2,2 4,2 2,0 4,-1 4,-2 0,-1 0,-1 0,-3 0,-2 0,-2 0,-3 0,-2 -2,-3 -4,-3 -2,0 -3,1 -4,3 0,1 0,1 0,3 0,2 0,2 0,3zm3 -1c0,0 0,0 0,-2 0,-2 0,-2 0,-2 0,-1 1,-1 1,-1 1,0 1,0 1,1 0,0 0,0 0,2 0,2 0,2 0,2 0,1 0,1 -1,1 0,0 -1,0 -1,-1z"/>
   <path id="3" class="fil6" d="M536 247c5,0 8,-2 8,-6 0,-3 -2,-5 -6,-5l-1 -1c-3,0 -4,-1 -4,-2 0,-2 1,-3 3,-3 2,0 3,1 5,2 0,0 0,0 0,0l2 -2c0,-1 0,-1 0,-1 -2,-1 -4,-2 -7,-2 -3,0 -6,3 -6,6 0,3 2,5 6,6l1 0c2,0 3,1 3,2 0,2 -1,3 -3,3 -2,0 -4,-1 -6,-2 0,0 0,0 0,0l-2 2c0,0 0,0 0,1 2,1 5,2 7,2z"/>
   <path id="4" class="fil6" d="M557 247c1,0 1,0 1,-1l0 -8c0,-4 -2,-5 -6,-5 -2,0 -4,0 -5,1 0,0 0,0 0,1l1 1c0,1 0,1 1,0 0,0 1,0 3,0 2,0 3,0 3,2l0 0c0,1 0,1 -1,1l-2 0c-4,0 -6,1 -6,4 0,3 2,4 5,4 2,0 3,-1 4,-2l0 0 0 1c0,1 0,1 0,1l2 0zm-5 -2c-2,0 -3,-1 -3,-2 0,-1 1,-2 3,-2l2 0c1,0 1,0 1,0l0 1c0,2 -1,3 -3,3z"/>
   <path id="5" class="fil6" d="M567 247c0,0 0,0 0,0l0 -3c0,0 0,0 0,0l-1 0c-1,0 -1,0 -1,-1l0 -15c0,0 0,0 -1,0l-2 0c0,0 0,0 0,0l0 15c0,3 1,4 3,4l2 0z"/>
   <path id="6" class="fil6" d="M575 247c3,0 5,-1 6,-2 0,0 0,-1 0,-1l-2 -1c0,0 0,0 0,0 -1,1 -2,1 -3,1 -2,0 -3,0 -4,-2 0,0 0,0 0,-1 0,0 0,0 0,0l9 0c0,0 0,0 0,0 0,-2 0,-3 0,-4 -1,-3 -3,-4 -6,-4 -3,0 -5,1 -5,4 -1,0 -1,2 -1,3 0,1 0,2 1,3 0,3 2,4 5,4zm3 -9c0,1 0,1 0,1l-6 0c0,0 0,0 0,-1 0,0 0,0 0,-1 1,-1 2,-1 3,-1 1,0 2,0 3,1 0,1 0,1 0,1z"/>
   <path id="7" class="fil6" d="M590 247c3,0 5,-2 5,-5 0,-2 -1,-3 -4,-3l-1 -1c-2,0 -3,0 -3,-1 0,-1 1,-1 2,-1 2,0 3,0 4,1 0,0 0,0 0,0l2 -2c0,0 0,0 0,0 -2,-1 -3,-2 -5,-2 -4,0 -6,2 -6,4 0,2 2,4 4,4l2 0c2,0 2,1 2,2 0,1 -1,1 -2,1 -2,0 -3,0 -4,-1 0,0 -1,0 -1,0l-1 2c0,0 0,0 0,0 1,1 3,2 6,2z"/>
   <path id="8" class="fil6" d="M605 242c0,3 2,5 5,5 2,0 4,-1 5,-2l1 0c1,1 1,2 3,2l0 0c1,0 1,0 1,-1l0 -2c0,0 0,0 -1,0l0 0c0,0 -1,0 -1,-1l-1 -1 2 -2c1,0 1,-1 0,-1l-1 -1c0,0 0,0 -1,0l-1 2 -3 -3c2,-2 3,-4 3,-5 0,-3 -2,-5 -5,-5 -2,0 -5,2 -5,5 0,1 1,2 3,4 -3,2 -4,4 -4,6zm6 -8c-1,-1 -2,-2 -2,-2 0,-1 1,-2 2,-2 1,0 2,1 2,2 0,0 0,1 -2,2l0 0zm-3 8c0,-1 0,-2 2,-4l4 5c-2,1 -2,1 -4,1 -1,0 -2,-1 -2,-2z"/>
   <path id="9" class="fil6" d="M515 280c0,0 0,1 0,1l3 0c0,0 0,-1 0,-1l0 -11 0 0 4 9c0,0 0,0 1,0l1 0c1,0 1,0 1,0l4 -9 0 0 0 11c0,0 0,1 0,1l3 0c0,0 0,-1 0,-1l0 -18c0,0 0,-1 0,-1l-3 0c0,0 0,1 0,1l-5 12 0 0 -6 -12c0,0 0,-1 0,-1l-3 0c0,0 0,1 0,1l0 18z"/>
   <path id="10" class="fil6" d="M547 281c0,0 0,-1 0,-1l0 -9c0,-3 -2,-4 -6,-4 -2,0 -3,0 -4,1 -1,0 -1,0 -1,0l1 2c1,0 1,0 1,0 1,0 1,-1 3,-1 2,0 3,1 3,3l0 0c0,0 0,0 0,0l-3 0c-3,0 -5,2 -5,5 0,3 2,4 4,4 2,0 3,-1 4,-2l0 0 0 1c0,0 0,1 0,1l3 0zm-6 -3c-2,0 -2,0 -2,-1 0,-2 1,-2 3,-2l2 0c0,0 0,0 0,0l0 1c0,2 -1,2 -3,2z"/>
   <path id="11" class="fil6" d="M554 281c0,0 0,-1 0,-1l0 -7c0,-2 1,-3 3,-3 0,0 1,0 2,0 0,0 0,0 0,0l2 -2c0,0 0,0 0,0 -1,-1 -2,-1 -3,-1 -2,0 -3,0 -4,1l0 0 0 -1c0,0 0,0 0,0l-3 0c0,0 0,0 0,0l0 13c0,0 0,1 0,1l3 0z"/>
   <path id="12" class="fil6" d="M575 281c0,0 0,-1 0,-1l-5 -8 4 -5c0,0 0,0 0,0l-3 0c0,0 0,0 0,0l-5 6 0 -11c0,0 0,-1 0,-1l-3 0c0,0 0,1 0,1l0 18c0,0 0,1 0,1l3 0c0,0 0,-1 0,-1l0 -3 2 -2 3 5c0,1 1,1 1,1l3 0z"/>
   <path id="13" class="fil6" d="M583 281c2,0 4,-1 5,-2 0,-1 0,-1 0,-1l-1 -1c-1,0 -1,0 -1,0 -1,1 -2,1 -3,1 -2,0 -3,-1 -3,-2 0,0 0,-1 0,-1 0,0 0,0 0,0l8 0c0,0 1,0 1,0 0,-3 -1,-4 -1,-5 -1,-2 -3,-3 -5,-3 -3,0 -5,1 -6,3 0,1 -1,2 -1,4 0,1 1,2 1,3 1,3 3,4 6,4zm2 -9c0,0 0,0 0,0l-5 0c0,0 0,0 0,0 0,0 0,-1 0,-1 0,-1 1,-2 3,-2 1,0 2,1 2,2 0,0 0,1 0,1z"/>
   <path id="14" class="fil6" d="M597 281c0,0 1,0 1,-1l0 -2c0,0 -1,0 -1,0l0 0c-1,0 -2,0 -2,-1l0 -7c0,0 0,-1 0,-1l2 0c0,0 1,0 1,0l0 -2c0,0 -1,0 -1,0l-2 0c0,0 0,0 0,0l0 -4c0,0 0,0 0,0l-3 0c0,0 0,0 0,0l0 4c0,0 0,0 0,0l-1 0c0,0 0,0 0,0l0 2c0,0 0,0 0,0l1 0c0,0 0,1 0,1l0 7c0,2 1,4 4,4l1 0z"/>
   <path id="15" class="fil6" d="M604 264c0,0 0,0 0,0l0 -2c0,0 0,-1 0,-1l-3 0c0,0 0,1 0,1l0 2c0,0 0,0 0,0l3 0zm0 17c0,0 0,-1 0,-1l0 -13c0,0 0,0 0,0l-3 0c0,0 0,0 0,0l0 13c0,0 0,1 0,1l3 0z"/>
   <path id="16" class="fil6" d="M619 281c1,0 1,-1 1,-1l0 -8c0,-3 -2,-5 -5,-5 -2,0 -3,0 -4,1l0 0 0 -1c0,0 0,0 0,0l-2 0c-1,0 -1,0 -1,0l0 13c0,0 0,1 1,1l2 0c0,0 0,-1 0,-1l0 -8c0,-1 1,-2 3,-2 2,0 3,1 3,2l0 8c0,0 0,1 0,1l2 0z"/>
   <path id="17" class="fil6" d="M628 286c5,0 7,-2 7,-6l0 -13c0,0 0,0 -1,0l-2 0c0,0 0,0 0,0l0 1 0 0c-1,-1 -2,-1 -4,-1 -2,0 -4,1 -5,3 0,1 0,2 0,3 0,2 0,3 0,4 1,2 3,3 5,3 2,0 3,0 4,-1l0 0 0 1c0,2 -1,3 -3,3 -2,0 -3,0 -3,-1 -1,0 -1,0 -1,0l-2 2c0,0 0,0 0,0 1,1 3,2 5,2zm1 -9c-1,0 -2,0 -3,-1 0,-1 0,-2 0,-3 0,0 0,-1 0,-2 1,-1 2,-1 3,-1 1,0 2,0 2,1 0,1 1,2 1,2 0,1 -1,2 -1,3 0,1 -1,1 -2,1z"/>
   <path class="fil7" d="M692 364l-63 4 0 2 63 -4 0 -2z"/>
   <g>
    <circle class="fil1" transform="matrix(0.836375 -0.556795 0.556795 0.836375 792.425 293.004)" r="109"/>
    <path class="fil6" d="M764 279c1,0 2,0 2,0 1,-1 1,-1 2,-2 0,0 0,-1 1,-2 0,-1 0,-1 0,-2l0 -10 4 0 0 10c0,1 0,3 -1,4 0,1 -1,2 -1,3 -1,1 -2,1 -3,2 -1,1 -2,1 -4,1 -2,0 -3,0 -4,-1 -1,-1 -2,-1 -3,-2 -1,-1 -1,-2 -1,-3 -1,-2 -1,-3 -1,-4l0 -10 4 0 0 10c0,1 0,2 0,2 0,1 1,2 1,2 1,1 1,1 2,2 0,0 1,0 2,0z"/>
    <path id="1" class="fil6" d="M782 283c-1,0 -2,0 -2,0 -1,0 -2,0 -2,-1 -1,0 -1,0 -2,0 0,0 -1,-1 -1,-1l1 -3c2,2 4,2 6,2 0,0 1,0 1,0 1,0 1,-1 1,-1 0,-1 0,-1 -1,-2 0,0 -1,0 -2,0 -1,-1 -2,-1 -3,-1 -1,0 -1,-1 -1,-1 -1,0 -1,-1 -1,-1 -1,0 -1,-1 -1,-2 0,0 0,-1 1,-2 0,0 0,-1 1,-1 1,-1 1,-1 2,-1 1,0 1,0 2,0 1,0 2,0 3,0 1,0 2,1 3,1l-1 3c-1,-1 -2,-1 -3,-1 0,-1 -1,-1 -2,-1 0,0 -1,0 -1,1 -1,0 -1,0 -1,1 0,0 0,1 1,1 0,0 1,1 2,1 1,0 2,0 3,1 0,0 1,0 1,0 1,1 1,1 1,2 1,0 1,1 1,1 0,1 0,2 -1,2 0,1 0,1 -1,2 0,0 -1,0 -2,1 -1,0 -1,0 -2,0z"/>
    <path id="2" class="fil6" d="M797 283c-1,0 -2,0 -3,-1 -1,0 -2,-1 -3,-1 0,-1 -1,-2 -1,-3 -1,-1 -1,-2 -1,-3 0,-1 0,-2 1,-3 0,-1 1,-1 1,-2 1,-1 2,-1 3,-2 1,0 2,0 3,0 1,0 2,0 3,0 1,1 2,1 3,2 0,1 1,1 1,2 1,1 1,2 1,3 0,0 0,1 0,1 0,0 0,0 0,0l-12 0c0,1 0,2 1,2 0,0 0,1 1,1 0,1 0,1 1,1 0,0 1,0 1,0 1,0 2,0 2,0 1,-1 1,-1 2,-2l3 1c-1,1 -2,2 -3,3 -1,1 -2,1 -4,1zm4 -9c0,-1 -1,-2 -1,-3 -1,0 -2,-1 -3,-1 -1,0 -1,0 -1,1 -1,0 -1,0 -2,0 0,1 0,1 0,2 -1,0 -1,0 -1,1l8 0z"/>
    <path id="3" class="fil6" d="M821 283c-2,0 -3,0 -4,-1 -1,0 -1,-1 -2,-1 -1,-1 -1,-2 -2,-3 0,-1 0,-2 0,-3 0,-1 0,-2 0,-3 1,-1 1,-1 2,-2 1,-1 1,-1 2,-2 1,0 2,0 4,0 1,0 2,0 3,0 1,1 2,1 2,2 1,1 1,1 2,2 0,1 0,2 0,3 0,1 0,2 0,3 -1,1 -1,2 -2,3 0,0 -1,1 -2,1 -1,1 -2,1 -3,1zm-4 -8c0,1 0,2 0,2 0,1 1,1 1,1 0,1 1,1 1,1 1,1 1,1 2,1 0,0 1,0 1,-1 1,0 1,0 1,-1 1,0 1,0 1,-1 0,0 1,-1 1,-2 0,0 -1,-1 -1,-2 0,0 0,-1 -1,-1 0,0 0,-1 -1,-1 0,0 -1,0 -1,0 -1,0 -1,0 -2,0 0,0 -1,1 -1,1 0,1 -1,1 -1,2 0,0 0,1 0,1z"/>
    <path id="4" class="fil6" d="M832 283l0 -10 -2 0 0 -3 2 0 0 -2c0,-2 0,-4 1,-5 1,-1 2,-1 4,-1 1,0 2,0 3,1l0 3c-1,-1 -1,-1 -1,-1 -1,0 -1,0 -2,0 -1,0 -2,1 -2,3l0 2 4 0 0 3 -4 0 0 10 -3 0z"/>
    <path id="5" class="fil6" d="M735 316l0 -20 8 0c1,0 2,0 3,0 1,1 1,1 2,2 0,0 1,1 1,2 0,1 1,2 1,2 0,1 -1,2 -1,3 0,1 -1,1 -1,2 -1,1 -1,1 -2,1 -1,1 -2,1 -3,1l-4 0 0 7 -4 0zm4 -10l4 0c1,0 1,-1 2,-1 0,-1 1,-2 1,-3 0,0 0,-1 -1,-1 0,0 0,-1 0,-1 0,0 -1,0 -1,-1 0,0 -1,0 -1,0l-4 0 0 7z"/>
    <path id="6" class="fil6" d="M761 304c-2,0 -3,1 -3,1 -1,0 -2,1 -2,2l0 9 -4 0 0 -15 3 0 0 3c1,-1 1,-2 2,-2 1,-1 2,-1 3,-1 0,0 0,0 0,0 0,0 1,0 1,0l0 3z"/>
    <path id="7" class="fil6" d="M769 316c-1,0 -2,0 -3,-1 -1,0 -2,-1 -2,-1 -1,-1 -2,-2 -2,-3 0,-1 -1,-2 -1,-3 0,-1 1,-2 1,-3 0,0 1,-1 2,-2 0,-1 1,-1 2,-2 1,0 2,0 3,0 1,0 2,0 3,0 1,1 2,1 3,2 1,1 1,2 1,2 1,1 1,2 1,3 0,1 0,2 -1,3 0,1 0,2 -1,3 -1,0 -2,1 -3,1 -1,1 -2,1 -3,1zm-4 -8c0,1 0,2 1,2 0,1 0,1 0,2 1,0 1,0 2,1 0,0 1,0 1,0 1,0 1,0 2,0 0,-1 1,-1 1,-1 0,-1 1,-1 1,-2 0,0 0,-1 0,-2 0,0 0,-1 0,-1 0,-1 -1,-1 -1,-2 0,0 -1,-1 -1,-1 -1,0 -1,0 -2,0 0,0 -1,0 -1,0 -1,1 -1,1 -2,1 0,1 0,1 0,2 -1,0 -1,1 -1,1z"/>
    <path id="8" class="fil6" d="M779 308c0,-1 0,-2 0,-3 0,0 1,-1 2,-2 0,-1 1,-1 2,-2 1,0 2,0 3,0 2,0 3,0 4,1 2,0 2,1 3,3l-4 1c0,-1 0,-1 -1,-2 -1,0 -1,0 -2,0 0,0 -1,0 -1,0 -1,0 -1,1 -1,1 -1,1 -1,1 -1,2 0,0 -1,1 -1,1 0,1 1,2 1,2 0,1 0,1 1,2 0,0 0,0 1,1 0,0 1,0 1,0 1,0 2,0 2,-1 1,0 1,0 1,-1l4 1c0,1 -1,2 -2,3 -2,1 -3,1 -5,1 -1,0 -2,0 -3,-1 -1,0 -2,-1 -2,-1 -1,-1 -2,-2 -2,-3 0,-1 0,-2 0,-3z"/>
    <path id="9" class="fil6" d="M802 316c-1,0 -2,0 -3,-1 -1,0 -2,-1 -2,-1 -1,-1 -2,-2 -2,-3 0,-1 -1,-2 -1,-3 0,-1 1,-2 1,-3 0,0 1,-1 2,-2 0,-1 1,-1 2,-2 1,0 2,0 3,0 1,0 3,0 3,0 1,1 2,1 3,2 1,1 1,2 1,2 1,1 1,2 1,3 0,1 0,1 0,1 0,0 0,0 0,1l-12 0c0,0 1,1 1,1 0,1 0,1 1,1 0,1 0,1 1,1 0,0 1,0 1,0 1,0 2,0 2,0 1,-1 2,-1 2,-2l3 1c0,1 -1,2 -3,3 -1,1 -2,1 -4,1zm4 -9c0,-1 0,-2 -1,-3 -1,0 -2,-1 -3,-1 0,0 -1,1 -1,1 -1,0 -1,0 -1,0 -1,1 -1,1 -1,2 0,0 -1,1 -1,1l8 0z"/>
    <path id="10" class="fil6" d="M819 316c-1,0 -2,0 -3,-1 -1,0 -2,-1 -3,-1 0,-1 -1,-2 -1,-3 0,-1 -1,-2 -1,-3 0,-1 1,-2 1,-3 0,0 1,-1 1,-2 1,-1 2,-1 3,-2 1,0 2,0 3,0 1,0 2,0 3,0 1,1 2,1 3,2 0,1 1,2 1,2 1,1 1,2 1,3 0,1 0,1 0,1 0,0 0,0 0,1l-12 0c0,0 1,1 1,1 0,1 0,1 1,1 0,1 0,1 1,1 0,0 1,0 1,0 1,0 2,0 2,0 1,-1 2,-1 2,-2l3 1c-1,1 -1,2 -3,3 -1,1 -2,1 -4,1zm4 -9c0,-1 -1,-2 -1,-3 -1,0 -2,-1 -3,-1 0,0 -1,1 -1,1 -1,0 -1,0 -1,0 -1,1 -1,1 -1,2 -1,0 -1,1 -1,1l8 0z"/>
    <path id="11" class="fil6" d="M835 316c-1,0 -2,0 -3,-1 0,0 -1,0 -2,-1 0,-1 -1,-2 -1,-3 -1,-1 -1,-2 -1,-3 0,-1 0,-2 1,-3 0,-1 1,-1 1,-2 1,-1 1,-1 2,-2 1,0 2,0 3,0 1,0 2,0 3,1 1,0 1,1 2,2l0 -9 4 0 0 16c0,1 0,1 0,1 0,0 0,1 1,1l0 3c-1,0 -2,0 -2,0 -1,0 -1,0 -2,-1 0,0 0,0 0,-1l-1 -1c0,1 -1,2 -2,2 -1,1 -2,1 -3,1zm1 -3c1,0 1,0 1,0 1,0 1,-1 1,-1 1,0 1,0 1,-1 1,0 1,0 1,-1l0 -3c0,-1 -1,-2 -2,-2 0,-1 -1,-1 -2,-1 -1,0 -1,0 -2,0 0,1 0,1 -1,1 0,1 0,1 -1,2 0,0 0,1 0,1 0,1 0,2 0,2 1,1 1,1 1,2 1,0 1,0 2,0 0,1 1,1 1,1z"/>
    <path id="12" class="fil6" d="M853 316c0,0 -1,0 -2,0 0,0 -1,0 -1,0 -1,-1 -2,-1 -2,-1 -1,0 -1,-1 -2,-1l2 -2c2,1 3,1 5,1 1,0 2,0 2,0 1,0 1,-1 1,-1 0,-1 -1,-1 -1,-1 -1,-1 -1,-1 -3,-1 -1,-1 -2,-1 -2,-1 -1,0 -1,-1 -2,-1 0,0 -1,-1 -1,-1 0,0 0,-1 0,-1 0,-1 0,-2 0,-2 1,-1 1,-2 2,-2 0,0 1,-1 2,-1 0,0 1,0 2,0 1,0 2,0 3,0 1,1 2,1 3,2l-2 2c0,-1 -1,-1 -2,-1 -1,0 -1,-1 -2,-1 -1,0 -1,1 -2,1 0,0 0,0 0,1 0,1 0,1 0,1 1,0 1,1 3,1 1,0 1,0 2,1 1,0 2,0 2,1 1,0 1,0 1,1 0,0 0,1 0,1 0,1 0,2 0,2 0,1 -1,1 -1,2 -1,0 -1,1 -2,1 -1,0 -2,0 -3,0z"/>
    <path class="fil8" d="M722 377c36,30 88,35 129,8l15 22c-51,33 -117,27 -161,-10l17 -20z"/>
    <path class="fil7" d="M684 309c2,15 8,31 17,45 6,8 12,15 19,21l-18 19c-8,-7 -16,-16 -23,-26 -9,-14 -16,-30 -19,-46l24 -13z"/>
    <path class="fil9" d="M860 175c18,10 33,25 45,43 42,62 25,145 -36,187l-14 -22c49,-34 62,-101 29,-151 -11,-15 -24,-27 -39,-35l15 -22z"/>
    <path class="fil10" d="M717 180c43,-29 97,-29 139,-7l-15 22c-34,-17 -75,-16 -109,7 -35,23 -53,63 -49,102l-24 14c-10,-52 12,-107 58,-138z"/>
   </g>
   <path class="fil8" d="M783 422l0 63 2 0 0 -63 -2 0z"/>
   <path class="fil5" d="M636 537c0,0 0,0 0,0l13 0c0,0 0,0 0,0l0 -3c0,0 0,0 0,0l-9 0c0,0 0,0 0,0l0 -5c0,0 0,0 0,0l7 0c0,0 0,0 0,-1l0 -2c0,0 0,0 0,0l-7 0c0,0 0,0 0,0l0 -5c0,0 0,0 0,0l9 0c0,0 0,0 0,-1l0 -2c0,0 0,0 0,0l-13 0c0,0 0,0 0,0l0 19z"/>
   <path id="1" class="fil5" d="M658 537c2,0 3,-1 4,-2 0,0 0,0 0,0l-2 -2c0,0 0,0 0,0 -1,1 -1,1 -2,1 -2,0 -3,0 -3,-1 0,-1 0,-2 0,-3 0,-1 0,-2 0,-2 0,-2 1,-2 3,-2 1,0 1,0 2,1 0,0 0,0 0,0l2 -2c0,0 0,0 0,0 -1,-1 -2,-2 -4,-2 -3,0 -5,1 -6,4 0,1 -1,2 -1,3 0,1 1,3 1,3 1,3 3,4 6,4z"/>
   <path id="2" class="fil5" d="M671 537c3,0 5,-1 6,-4 0,-1 0,-1 0,-3 0,-1 0,-2 0,-3 -1,-3 -3,-4 -6,-4 -3,0 -5,1 -6,4 0,1 0,2 0,3 0,2 0,2 0,3 1,3 3,4 6,4zm0 -3c-1,0 -2,0 -3,-1 0,-1 0,-2 0,-3 0,-1 0,-2 0,-2 1,-2 2,-2 3,-2 1,0 2,0 2,2 1,0 1,1 1,2 0,1 0,2 -1,3 0,1 -1,1 -2,1z"/>
   <path id="3" class="fil5" d="M685 537c4,0 6,-2 6,-4 0,-3 -1,-4 -4,-4l-2 -1c-1,0 -2,0 -2,-1 0,-1 1,-1 2,-1 2,0 3,0 4,1 0,0 0,0 0,0l2 -2c0,0 0,0 0,0 -2,-1 -3,-2 -6,-2 -3,0 -5,2 -5,4 0,3 2,4 4,4l2 0c2,1 2,1 2,2 0,1 -1,1 -2,1 -2,0 -3,0 -4,-1 -1,0 -1,0 -1,0l-1 2c-1,0 -1,0 0,0 1,1 3,2 5,2z"/>
   <path id="4" class="fil5" d="M696 542c2,0 3,-1 4,-4l6 -14c0,-1 -1,-1 -1,-1l-2 0c-1,0 -1,0 -1,1l-3 8 0 0 -3 -8c0,-1 0,-1 0,-1l-3 0c0,0 0,0 0,1l5 12 -1 1c0,2 -1,2 -2,2l0 0c0,0 0,0 0,0l0 3c0,0 0,0 0,0l1 0z"/>
   <path id="5" class="fil5" d="M713 537c4,0 6,-2 6,-4 0,-3 -2,-4 -5,-4l-1 -1c-2,0 -2,0 -2,-1 0,-1 0,-1 2,-1 1,0 2,0 3,1 0,0 1,0 1,0l1 -2c0,0 0,0 0,0 -1,-1 -3,-2 -5,-2 -4,0 -5,2 -5,4 0,3 1,4 4,4l1 0c2,1 2,1 2,2 0,1 0,1 -2,1 -1,0 -3,0 -4,-1 0,0 0,0 0,0l-2 2c0,0 0,0 0,0 1,1 3,2 6,2z"/>
   <path id="6" class="fil5" d="M727 537c0,0 0,0 0,0l0 -3c0,0 0,0 0,0l-1 0c0,0 -1,0 -1,-1l0 -7c0,0 0,0 0,0l2 0c0,0 0,0 0,-1l0 -1c0,-1 0,-1 0,-1l-2 0c0,0 0,0 0,0l0 -4c0,0 0,0 0,0l-3 0c0,0 0,0 0,0l0 4c0,0 0,0 0,0l-1 0c0,0 0,0 0,1l0 1c0,1 0,1 0,1l1 0c0,0 0,0 0,0l0 7c0,3 1,4 4,4l1 0z"/>
   <path id="7" class="fil5" d="M736 537c3,0 5,-1 6,-2 0,0 0,0 0,-1l-2 -1c0,0 0,0 0,0 -1,1 -2,1 -3,1 -2,0 -3,0 -3,-2 -1,0 -1,0 -1,-1 0,0 0,0 1,0l8 0c0,0 0,0 0,0 0,-2 0,-3 0,-4 -1,-3 -3,-4 -6,-4 -3,0 -5,1 -5,4 -1,1 -1,2 -1,3 0,1 0,3 1,3 0,3 2,4 5,4zm3 -8c0,0 0,0 0,0l-5 0c-1,0 -1,0 -1,0 0,-1 0,-1 1,-2 0,-1 1,-1 2,-1 1,0 3,0 3,1 0,1 0,1 0,2z"/>
   <path id="8" class="fil5" d="M765 537c0,0 0,0 0,0l0 -9c0,-3 -1,-5 -5,-5 -1,0 -3,1 -4,2l0 0c-1,-1 -2,-2 -4,-2 -1,0 -3,1 -3,2l0 0 0 -1c0,-1 0,-1 -1,-1l-2 0c0,0 0,0 0,1l0 13c0,0 0,0 0,0l2 0c1,0 1,0 1,0l0 -8c0,-2 1,-3 2,-3 2,0 3,1 3,3l0 8c0,0 0,0 0,0l3 0c0,0 0,0 0,0l0 -8c0,-2 1,-3 3,-3 1,0 2,1 2,3l0 8c0,0 0,0 1,0l2 0z"/>
   <path id="9" class="fil5" d="M787 537c0,0 0,0 0,0l0 -19c0,0 0,0 0,0l-3 0c0,0 0,0 0,0l0 7 0 0c-1,-1 -2,-2 -4,-2 -2,0 -4,1 -4,3 -1,1 -1,2 -1,4 0,2 0,3 1,4 0,2 2,3 4,3 2,0 3,-1 4,-1l0 0 0 1c0,0 0,0 0,0l3 0zm-6 -3c-1,0 -2,0 -2,-1 0,-1 0,-2 0,-3 0,-1 0,-2 0,-2 0,-2 1,-2 2,-2 2,0 2,0 3,2 0,0 0,1 0,2 0,1 0,2 0,3 -1,1 -1,1 -3,1z"/>
   <path id="10" class="fil5" d="M797 537c2,0 4,-1 5,-2 1,0 1,0 0,-1l-1 -1c0,0 -1,0 -1,0 0,1 -1,1 -3,1 -1,0 -2,0 -3,-2 0,0 0,0 0,-1 0,0 0,0 0,0l8 0c1,0 1,0 1,0 0,-2 0,-3 -1,-4 0,-3 -3,-4 -5,-4 -3,0 -5,1 -6,4 0,1 0,2 0,3 0,1 0,3 0,3 1,3 3,4 6,4zm3 -8c0,0 -1,0 -1,0l-5 0c0,0 0,0 0,0 0,-1 0,-1 0,-2 0,-1 1,-1 3,-1 1,0 2,0 2,1 0,1 1,1 1,2z"/>
   <path id="11" class="fil5" d="M812 537c0,0 0,0 0,0l5 -13c0,-1 0,-1 0,-1l-3 0c0,0 0,0 0,1l-3 8 0 0 -3 -8c0,-1 0,-1 0,-1l-3 0c0,0 0,0 0,1l4 13c0,0 1,0 1,0l2 0z"/>
   <path id="12" class="fil5" d="M825 537c3,0 4,-1 6,-2 0,0 0,0 0,-1l-2 -1c0,0 0,0 0,0 -1,1 -2,1 -4,1 -1,0 -2,0 -3,-2 0,0 0,0 0,-1 0,0 0,0 0,0l9 0c0,0 0,0 0,0 0,-2 0,-3 -1,-4 0,-3 -2,-4 -5,-4 -3,0 -5,1 -6,4 0,1 0,2 0,3 0,1 0,3 0,3 1,3 3,4 6,4zm3 -8c0,0 0,0 0,0l-6 0c0,0 0,0 0,0 0,-1 0,-1 0,-2 1,-1 2,-1 3,-1 1,0 2,0 3,1 0,1 0,1 0,2z"/>
   <path id="13" class="fil5" d="M839 537c0,0 1,0 1,0l0 -3c0,0 -1,0 -1,0l0 0c-1,0 -2,0 -2,-1l0 -15c0,0 0,0 0,0l-2 0c-1,0 -1,0 -1,0l0 15c0,3 1,4 4,4l1 0z"/>
   <path id="14" class="fil5" d="M848 537c3,0 5,-1 5,-4 1,-1 1,-1 1,-3 0,-1 0,-2 -1,-3 0,-3 -2,-4 -5,-4 -3,0 -5,1 -6,4 0,1 0,2 0,3 0,2 0,2 0,3 1,3 3,4 6,4zm0 -3c-1,0 -2,0 -3,-1 0,-1 0,-2 0,-3 0,-1 0,-2 0,-2 1,-2 2,-2 3,-2 1,0 2,0 2,2 1,0 1,1 1,2 0,1 0,2 -1,3 0,1 -1,1 -2,1z"/>
   <path id="15" class="fil5" d="M860 542c0,0 0,0 0,0l0 -6 0 0c1,0 2,1 4,1 2,0 4,-1 5,-3 0,-1 0,-2 0,-4 0,-2 0,-3 0,-4 -1,-2 -3,-3 -5,-3 -2,0 -3,1 -4,2l0 0 0 -1c0,-1 0,-1 0,-1l-2 0c-1,0 -1,0 -1,1l0 18c0,0 0,0 1,0l2 0zm3 -8c-1,0 -2,0 -2,-1 0,-1 -1,-2 -1,-3 0,-1 1,-2 1,-2 0,-2 1,-2 2,-2 2,0 2,0 3,2 0,0 0,1 0,2 0,1 0,2 0,3 -1,1 -1,1 -3,1z"/>
   <path id="16" class="fil5" d="M892 537c0,0 0,0 0,0l0 -9c0,-3 -1,-5 -4,-5 -2,0 -4,1 -5,2l0 0c-1,-1 -2,-2 -4,-2 -1,0 -3,1 -3,2l0 0 0 -1c0,-1 0,-1 0,-1l-3 0c0,0 0,0 0,1l0 13c0,0 0,0 0,0l3 0c0,0 0,0 0,0l0 -8c0,-2 1,-3 2,-3 2,0 3,1 3,3l0 8c0,0 0,0 0,0l3 0c0,0 0,0 0,0l0 -8c0,-2 1,-3 3,-3 1,0 2,1 2,3l0 8c0,0 0,0 1,0l2 0z"/>
   <path id="17" class="fil5" d="M902 537c2,0 4,-1 5,-2 1,0 1,0 0,-1l-1 -1c0,0 -1,0 -1,0 0,1 -1,1 -3,1 -1,0 -2,0 -3,-2 0,0 0,0 0,-1 0,0 0,0 0,0l8 0c1,0 1,0 1,0 0,-2 0,-3 -1,-4 0,-3 -2,-4 -5,-4 -3,0 -5,1 -6,4 0,1 0,2 0,3 0,1 0,3 0,3 1,3 3,4 6,4zm3 -8c0,0 0,0 -1,0l-5 0c0,0 0,0 0,0 0,-1 0,-1 0,-2 0,-1 1,-1 3,-1 1,0 2,0 2,1 1,1 1,1 1,2z"/>
   <path id="18" class="fil5" d="M922 537c0,0 1,0 1,0l0 -9c0,-3 -2,-5 -5,-5 -2,0 -3,1 -4,2l0 0 0 -1c0,-1 0,-1 0,-1l-3 0c0,0 0,0 0,1l0 13c0,0 0,0 0,0l3 0c0,0 0,0 0,0l0 -8c0,-2 1,-3 3,-3 2,0 2,1 2,3l0 8c0,0 1,0 1,0l2 0z"/>
   <path id="19" class="fil5" d="M932 537c0,0 0,0 0,0l0 -3c0,0 0,0 0,0l-1 0c-1,0 -1,0 -1,-1l0 -7c0,0 0,0 0,0l2 0c0,0 0,0 0,-1l0 -1c0,-1 0,-1 0,-1l-2 0c0,0 0,0 0,0l0 -4c0,0 0,0 0,0l-3 0c0,0 0,0 0,0l0 4c0,0 0,0 0,0l-1 0c0,0 -1,0 -1,1l0 1c0,1 1,1 1,1l1 0c0,0 0,0 0,0l0 7c0,3 1,4 4,4l1 0z"/>
   <path class="fil3" d="M756 507c0,1 1,1 1,1l12 0c0,0 1,0 1,-1l0 -3c0,0 -1,0 -1,0l-7 0 0 0 5 -6c2,-2 3,-4 3,-6 0,-3 -3,-6 -7,-6 -4,0 -6,3 -7,6 0,0 1,0 1,0l3 1c0,0 0,0 0,0 1,-2 1,-3 3,-3 1,0 2,1 2,2 0,2 0,2 -1,3l-7 9c-1,0 -1,0 -1,1l0 2z"/>
   <path id="1" class="fil3" d="M774 504c1,3 3,4 6,4 3,0 6,-1 6,-4 1,-1 1,-2 1,-7 0,-4 0,-5 -1,-6 0,-3 -3,-5 -6,-5 -3,0 -5,2 -6,5 0,1 -1,2 -1,6 0,5 1,6 1,7zm4 -1c0,-1 0,-1 0,-6 0,-4 0,-5 0,-5 0,-1 1,-2 2,-2 1,0 2,1 2,2 0,0 1,1 1,5 0,5 -1,5 -1,6 0,1 -1,1 -2,1 -1,0 -2,0 -2,-1z"/>
   <path id="2" class="fil3" d="M794 508c0,0 0,0 0,0l2 0c1,0 1,0 1,0l12 -21c0,0 0,-1 0,-1l-3 0c0,0 0,1 0,1l-12 21zm1 -10c2,0 3,-1 4,-3 0,-1 0,-1 0,-3 0,-2 0,-2 0,-3 -1,-1 -2,-2 -4,-2 -2,0 -4,1 -4,2 0,1 0,1 0,3 0,2 0,2 0,3 0,2 2,3 4,3zm0 -3c-1,0 -1,0 -1,-1 0,0 0,0 0,-2 0,-2 0,-2 0,-2 0,-1 0,-1 1,-1 0,0 1,0 1,1 0,0 0,0 0,2 0,2 0,2 0,2 0,1 -1,1 -1,1zm9 10c0,2 2,3 4,3 2,0 3,-1 4,-3 0,0 0,-1 0,-2 0,-2 0,-3 0,-3 -1,-2 -2,-3 -4,-3 -2,0 -4,1 -4,3 0,0 -1,1 -1,3 0,1 1,2 1,2zm3 0c0,0 0,-1 0,-2 0,-2 0,-3 0,-3 0,0 0,-1 1,-1 0,0 1,1 1,1 0,0 0,1 0,3 0,1 0,2 0,2 0,0 -1,1 -1,1 -1,0 -1,-1 -1,-1z"/>
   <path class="fil10" d="M629 234l63 0 0 -3 -63 0 0 3z"/>
   <path class="fil9" d="M962 234l-56 0 0 -3 56 0 0 3z"/>
  </g>
  <rect class="fil11" width="1161" height="617"/>
 </g>
</svg>
