<?xml version="1.0" encoding="UTF-8"?>
<!DOCTYPE svg PUBLIC "-//W3C//DTD SVG 1.0//EN" "http://www.w3.org/TR/2001/REC-SVG-20010904/DTD/svg10.dtd">
<!-- Creator: CorelDRAW X7 -->
<svg xmlns="http://www.w3.org/2000/svg" xml:space="preserve" width="17.1004mm" height="10.8856mm" version="1.0" style="shape-rendering:geometricPrecision; text-rendering:geometricPrecision; image-rendering:optimizeQuality; fill-rule:evenodd; clip-rule:evenodd"
viewBox="0 0 149 95"
 xmlns:xlink="http://www.w3.org/1999/xlink">
 <defs>
  <style type="text/css">
   <![CDATA[
    .str0 {stroke:#529AFF;stroke-width:2.21674}
    .fil0 {fill:none;fill-rule:nonzero}
    .fil1 {fill:#1C5BB3;fill-rule:nonzero}
    .fil2 {fill:white;fill-rule:nonzero}
   ]]>
  </style>
 </defs>
 <g id="Layer_x0020_1">
  <metadata id="CorelCorpID_0Corel-Layer"/>
  <g id="_2134191144768">
   <g>
    <path class="fil0 str0" d="M47 94c26,0 47,-21 47,-46 0,-26 -21,-47 -47,-47 -25,0 -46,21 -46,47 0,25 21,46 46,46z"/>
    <path id="1" class="fil1" d="M47 94c26,0 47,-21 47,-46 0,-26 -21,-47 -47,-47 -25,0 -46,21 -46,47 0,25 21,46 46,46z"/>
   </g>
   <path class="fil2" d="M40 64c0,0 0,0 0,0l5 0c1,0 1,0 1,0l0 -20 0 0 11 20c0,0 1,0 1,0l6 0c0,0 0,0 0,0l0 -31c0,0 0,0 0,0l-6 0c0,0 0,0 0,0l0 20 0 0 -12 -20c0,0 0,0 0,0l-6 0c0,0 0,0 0,0l0 31zm30 0c0,0 0,0 0,0l6 0c1,0 1,0 1,0l0 -12c0,-1 0,-1 0,-1l10 0c1,0 1,0 1,1l0 12c0,0 0,0 0,0l6 0c0,0 0,0 0,0l0 -31c0,0 0,0 0,0l-6 0c0,0 0,0 0,0l0 12c0,0 0,0 -1,0l-10 0c0,0 0,0 0,0l0 -12c0,0 0,0 -1,0l-6 0c0,0 0,0 0,0l0 31zm31 -7c1,5 5,8 11,8 5,0 9,-3 11,-7 0,-1 0,-1 0,-1l-5 -2c-1,0 -1,0 -1,0 -1,2 -3,4 -5,4 -3,0 -4,-2 -5,-4 0,-1 0,-2 0,-7 0,-4 0,-5 0,-6 1,-3 2,-4 5,-4 2,0 4,2 5,4 0,0 0,0 1,0l5 -2c0,0 0,-1 0,-1 -2,-4 -6,-7 -11,-7 -6,0 -10,3 -11,8 -1,2 -1,4 -1,8 0,5 0,7 1,9zm39 7c0,0 1,0 1,0l0 -25c0,0 0,0 0,0l8 0c0,0 0,0 0,-1l0 -5c0,0 0,0 0,0l-24 0c0,0 0,0 0,0l0 5c0,1 0,1 0,1l8 0c1,0 1,0 1,0l0 25c0,0 0,0 0,0l6 0z"/>
  </g>
 </g>
</svg>
