<?xml version="1.0" encoding="UTF-8"?>
<!DOCTYPE svg PUBLIC "-//W3C//DTD SVG 1.0//EN" "http://www.w3.org/TR/2001/REC-SVG-20010904/DTD/svg10.dtd">
<!-- Creator: CorelDRAW X7 -->
<svg xmlns="http://www.w3.org/2000/svg" xml:space="preserve" width="16.9734mm" height="10.6316mm" version="1.0" style="shape-rendering:geometricPrecision; text-rendering:geometricPrecision; image-rendering:optimizeQuality; fill-rule:evenodd; clip-rule:evenodd"
viewBox="0 0 155 97"
 xmlns:xlink="http://www.w3.org/1999/xlink">
 <defs>
  <style type="text/css">
   <![CDATA[
    .fil0 {fill:#1C5BB3;fill-rule:nonzero}
    .fil1 {fill:white;fill-rule:nonzero}
   ]]>
  </style>
 </defs>
 <g id="Layer_x0020_1">
  <metadata id="CorelCorpID_0Corel-Layer"/>
  <g id="_2098642111760">
   <path class="fil0" d="M48 97c27,0 49,-22 49,-49 0,-26 -22,-48 -49,-48 -26,0 -48,22 -48,48 0,27 22,49 48,49z"/>
   <path class="fil1" d="M40 65c0,1 0,1 1,1l5 0c0,0 1,0 1,-1l0 -20 0 0 12 20c0,1 0,1 0,1l6 0c0,0 1,0 1,-1l0 -32c0,0 -1,0 -1,0l-5 0c-1,0 -1,0 -1,0l0 21 0 0 -12 -21c0,0 0,0 0,0l-6 0c-1,0 -1,0 -1,0l0 32zm32 0c0,1 0,1 0,1l7 0c0,0 0,0 0,-1l0 -12c0,0 0,-1 0,-1l11 0c0,0 0,1 0,1l0 12c0,1 1,1 1,1l6 0c0,0 1,0 1,-1l0 -32c0,0 -1,0 -1,0l-6 0c0,0 -1,0 -1,0l0 13c0,0 0,0 0,0l-11 0c0,0 0,0 0,0l0 -13c0,0 0,0 0,0l-7 0c0,0 0,0 0,0l0 32zm32 -7c2,6 6,8 12,8 5,0 9,-2 11,-7 0,0 0,0 0,0l-5 -3c-1,0 -1,0 -1,0 -1,3 -3,4 -5,4 -3,0 -5,-1 -5,-4 -1,-1 -1,-2 -1,-7 0,-4 0,-5 1,-7 0,-2 2,-3 5,-3 2,0 4,1 5,3 0,1 0,1 1,1l5 -3c0,0 0,0 0,0 -2,-5 -6,-8 -11,-8 -6,0 -10,3 -12,8 -1,3 -1,4 -1,9 0,5 0,7 1,9zm41 8c0,0 1,0 1,-1l0 -25c0,-1 0,-1 0,-1l8 0c0,0 1,0 1,0l0 -6c0,0 -1,0 -1,0l-24 0c0,0 -1,0 -1,0l0 6c0,0 1,0 1,0l8 0c0,0 0,0 0,1l0 25c0,1 1,1 1,1l6 0z"/>
  </g>
 </g>
</svg>
