<?xml version="1.0" encoding="UTF-8"?>
<!DOCTYPE svg PUBLIC "-//W3C//DTD SVG 1.0//EN" "http://www.w3.org/TR/2001/REC-SVG-20010904/DTD/svg10.dtd">
<!-- Creator: CorelDRAW X7 -->
<svg xmlns="http://www.w3.org/2000/svg" xml:space="preserve" width="26.5963mm" height="16.6591mm" version="1.0" style="shape-rendering:geometricPrecision; text-rendering:geometricPrecision; image-rendering:optimizeQuality; fill-rule:evenodd; clip-rule:evenodd"
viewBox="0 0 372 233"
 xmlns:xlink="http://www.w3.org/1999/xlink">
 <defs>
  <style type="text/css">
   <![CDATA[
    .fil0 {fill:#1C5BB3;fill-rule:nonzero}
    .fil1 {fill:white;fill-rule:nonzero}
   ]]>
  </style>
 </defs>
 <g id="Layer_x0020_1">
  <metadata id="CorelCorpID_0Corel-Layer"/>
  <g id="_2133923285264">
   <path class="fil0" d="M117 233c64,0 116,-52 116,-116 0,-65 -52,-117 -116,-117 -65,0 -117,52 -117,117 0,64 52,116 117,116z"/>
   <path class="fil1" d="M97 157c0,1 0,2 1,2l13 0c1,0 1,-1 1,-2l0 -49 1 0 28 49c1,1 1,2 2,2l14 0c1,0 1,-1 1,-2l0 -77c0,0 0,-1 -1,-1l-13 0c-1,0 -1,1 -1,1l0 50 -1 0 -28 -50c0,0 -1,-1 -2,-1l-14 0c-1,0 -1,1 -1,1l0 77zm76 0c0,1 1,2 1,2l15 0c1,0 1,-1 1,-2l0 -30c0,-1 1,-1 1,-1l26 0c0,0 1,0 1,1l0 30c0,1 0,2 1,2l15 0c0,0 1,-1 1,-2l0 -77c0,0 -1,-1 -1,-1l-15 0c-1,0 -1,1 -1,1l0 30c0,1 -1,1 -1,1l-26 0c0,0 -1,0 -1,-1l0 -30c0,0 0,-1 -1,-1l-15 0c0,0 -1,1 -1,1l0 77zm77 -17c4,13 14,20 28,20 14,0 24,-7 28,-18 0,0 0,-1 -1,-1l-12 -6c-1,0 -2,0 -2,1 -2,5 -6,9 -13,9 -6,0 -10,-3 -11,-9 -1,-3 -2,-6 -2,-17 0,-11 1,-14 2,-17 1,-6 5,-9 11,-9 7,0 11,4 13,9 0,1 1,1 2,1l12 -6c1,0 1,-1 1,-1 -4,-11 -14,-18 -28,-18 -14,0 -24,7 -28,20 -2,5 -2,9 -2,21 0,12 0,16 2,21zm99 19c1,0 2,-1 2,-2l0 -62c0,0 0,0 0,0l20 0c1,0 1,-1 1,-2l0 -13c0,0 0,-1 -1,-1l-58 0c-1,0 -2,1 -2,1l0 13c0,1 1,2 2,2l20 0c0,0 0,0 0,0l0 62c0,1 1,2 2,2l14 0z"/>
  </g>
 </g>
</svg>
