<?xml version="1.0" encoding="UTF-8"?>
<svg width="108px" height="70px" viewBox="0 0 108 70" version="1.1" xmlns="http://www.w3.org/2000/svg" xmlns:xlink="http://www.w3.org/1999/xlink">
    <!-- Generator: sketchtool 50 (54983) - http://www.bohemiancoding.com/sketch -->
    <title>5FF34C78-5295-42C6-999D-2EB323F19B32</title>
    <desc>Created with sketchtool.</desc>
    <defs></defs>
    <g id="Page-1" stroke="none" stroke-width="1" fill="none" fill-rule="evenodd">
        <g id="01" transform="translate(-209.000000, -41.000000)">
            <g id="nht_logo" transform="translate(209.000000, 41.000000)">
                <circle id="Oval-5" fill="#265AA2" cx="35" cy="35" r="35"></circle>
                <path d="M34.611399,24.1666667 C41.4093604,24.1666667 44.8082902,28.1249604 44.8082902,36.0416667 L44.8082902,47.25 L39.626943,47.25 L39.626943,36.0416667 C39.626943,34.3472137 39.4611416,33.0208381 39.1295337,32.0625 C38.7979258,31.1041619 38.2728879,30.4236131 37.5544041,30.0208333 C36.8359204,29.6180535 35.8549285,29.4166667 34.611399,29.4166667 C33.0915295,29.4166667 31.2953472,29.6249979 29.2227979,30.0416667 L29.2227979,47.25 L24,47.25 L24,25.7916667 C25.5198694,25.3194421 27.1157084,24.9305571 28.7875648,24.625 C30.4594211,24.3194429 32.4006798,24.1666667 34.611399,24.1666667 Z M59.6683938,23.5 C63.0950085,23.5 65.6718394,24.5277675 67.3989637,26.5833333 C69.1260881,28.6388992 69.9896373,31.6805354 69.9896373,35.7083333 L69.9896373,47.25 L64.7253886,47.25 L64.7253886,35.7083333 C64.7253886,33.9583246 64.5595872,32.5833383 64.2279793,31.5833333 C63.8963714,30.5833283 63.3713335,29.8611133 62.6528497,29.4166667 C61.934366,28.97222 60.9395573,28.75 59.6683938,28.75 C57.8998184,28.75 56.1036361,28.9583313 54.2797927,29.375 L54.2797927,47.25 L49.015544,47.25 L49.015544,16 L54.2797927,16 L54.2797927,24 C55.9101981,23.666665 57.7063805,23.5 59.6683938,23.5 Z M93.0569948,41.2916667 C92.8359229,41.847225 92.5319536,42.4861075 92.1450777,43.2083333 C91.6200319,44.1527825 90.832475,44.9999962 89.7823834,45.75 C88.7046578,46.5277817 87.654582,47.0138879 86.6321244,47.2083333 C85.2504249,47.4861125 84.1588987,47.625 83.357513,47.625 C82.1968854,47.625 81.0915424,47.4722237 80.0414508,47.1666667 C78.9913592,46.8611096 78.0656344,46.4305583 77.2642487,45.875 C76.2141571,45.1249963 75.3989666,44.2638937 74.8186528,43.2916667 C74.2383391,42.3749954 73.8376522,41.3888942 73.6165803,40.3333333 C73.2297045,38.8333258 73.0362694,37.3611183 73.0362694,35.9166667 C73.0362694,33.7499892 73.4369563,31.7777867 74.238342,30 C74.5975838,29.1944404 75.0466294,28.465281 75.5854922,27.8125 C76.124355,27.159719 76.6977517,26.6388908 77.3056995,26.25 C77.9412812,25.8888871 78.480136,25.5972233 78.9222798,25.375 C80.5250512,24.7916637 82.0725314,24.5 83.5647668,24.5 C85.830754,24.5 87.8756385,25.111105 89.6994819,26.3333333 C90.9153774,27.1666708 91.9240029,28.4027696 92.7253886,30.0416667 C92.8359246,30.26389 92.9464589,30.59722 93.0569948,31.0416667 L88.373057,32.4166667 C88.0690831,31.5833292 87.5854955,30.9305579 86.9222798,30.4583333 C86.452502,30.0972204 85.9136473,29.8611117 85.3056995,29.75 C84.8635556,29.6111104 84.2279834,29.5416667 83.3989637,29.5416667 C82.1001662,29.5416667 81.00864,29.8333304 80.1243523,30.4166667 C79.5440385,30.9166692 79.1019013,31.4722192 78.7979275,32.0833333 C78.4663196,32.8055592 78.2590678,33.8749929 78.1761658,35.2916667 L78.1761658,36.125 C78.1761658,37.3750062 78.2728833,38.3472188 78.4663212,39.0416667 C78.7426611,40.2083392 79.1986151,41.0694417 79.8341969,41.625 C80.5250466,42.1805583 81.5198553,42.5277771 82.8186528,42.6666667 L83.5233161,42.6666667 C84.9879175,42.6666667 86.1485277,42.3611142 87.0051813,41.75 C87.5578611,41.3611092 87.9999983,40.7222267 88.3316062,39.8333333 L93.0569948,41.2916667 Z M103.316062,30.2083333 L103.316062,39.4583333 C103.316062,40.7361175 103.49568,41.6111087 103.854922,42.0833333 C104.214164,42.5555579 104.87737,42.7916667 105.84456,42.7916667 L107.295337,42.7916667 L107.295337,48 L105.803109,48 C103.343684,48 101.450784,47.2569519 100.124352,45.7708333 C98.7979208,44.2847148 98.134715,42.1805692 98.134715,39.4583333 L98.134715,30.2083333 L95.1502591,30.2083333 L95.1502591,24.9583333 L98.134715,24.9583333 L98.134715,16 L103.316062,16 L103.316062,24.9583333 L108,24.9583333 L108,30.2083333 L103.316062,30.2083333 Z" id="nhct" fill="#FFFFFF"></path>
            </g>
        </g>
    </g>
</svg>