<?xml version="1.0" encoding="UTF-8"?>
<svg width="90px" height="70px" viewBox="0 0 90 70" version="1.1" xmlns="http://www.w3.org/2000/svg" xmlns:xlink="http://www.w3.org/1999/xlink">
    <!-- Generator: sketchtool 50 (54983) - http://www.bohemiancoding.com/sketch -->
    <title>5FF34C78-5295-42C6-999D-2EB323F19B32</title>
    <desc>Created with sketchtool.</desc>
    <defs></defs>
    <g id="Page-1" stroke="none" stroke-width="1" fill="none" fill-rule="evenodd">
        <g id="01" transform="translate(-209.000000, -41.000000)">
            <g id="nht_logo" transform="translate(209.000000, 41.000000)">
                <circle id="Oval-5" fill="#265AA2" cx="35" cy="35" r="35"></circle>
                <path d="M36.52,25.84 C43.0800328,25.84 46.36,29.639962 46.36,37.24 L46.36,48 L41.36,48 L41.36,37.24 C41.36,35.6133252 41.2000016,34.3400046 40.88,33.42 C40.5599984,32.4999954 40.0533368,31.8466686 39.36,31.46 C38.6666632,31.0733314 37.720006,30.88 36.52,30.88 C35.053326,30.88 33.32001,31.079998 31.32,31.48 L31.32,48 L26.28,48 L26.28,27.4 C27.746674,26.9466644 29.2866586,26.5733348 30.9,26.28 C32.5133414,25.9866652 34.386656,25.84 36.52,25.84 Z M61.5,25.2 C64.8066832,25.2 67.293325,26.1866568 68.96,28.16 C70.626675,30.1333432 71.46,33.053314 71.46,36.92 L71.46,48 L66.38,48 L66.38,36.92 C66.38,35.2399916 66.2200016,33.9200048 65.9,32.96 C65.5799984,31.9999952 65.0733368,31.3066688 64.38,30.88 C63.6866632,30.4533312 62.7266728,30.24 61.5,30.24 C59.7933248,30.24 58.0600088,30.439998 56.3,30.84 L56.3,48 L51.22,48 L51.22,18 L56.3,18 L56.3,25.68 C57.8733412,25.3599984 59.6066572,25.2 61.5,25.2 Z M83.9999999,31.64 L83.9999999,40.52 C83.9999999,41.7466728 84.1733315,42.5866644 84.5199999,43.04 C84.8666683,43.4933356 85.5066619,43.72 86.4399999,43.72 L87.8399999,43.72 L87.8399999,48.72 L86.3999999,48.72 C84.0266547,48.72 82.2000063,48.0066738 80.9199999,46.58 C79.6399935,45.1533262 78.9999999,43.1333464 78.9999999,40.52 L78.9999999,31.64 L76.1199999,31.64 L76.1199999,26.6 L78.9999999,26.6 L78.9999999,18 L83.9999999,18 L83.9999999,26.6 L88.5199999,26.6 L88.5199999,31.64 L83.9999999,31.64 Z" id="nht" stroke="#FFFFFF" fill="#FFFFFF"></path>
            </g>
        </g>
    </g>
</svg>