<?xml version="1.0" encoding="UTF-8"?>
<!DOCTYPE svg PUBLIC "-//W3C//DTD SVG 1.1//EN" "http://www.w3.org/Graphics/SVG/1.1/DTD/svg11.dtd">
<!-- Creator: CorelDRAW X7 -->
<svg xmlns="http://www.w3.org/2000/svg" xml:space="preserve" width="20.7433mm" height="21.1667mm" version="1.1" style="shape-rendering:geometricPrecision; text-rendering:geometricPrecision; image-rendering:optimizeQuality; fill-rule:evenodd; clip-rule:evenodd"
viewBox="0 0 995 1015"
 xmlns:xlink="http://www.w3.org/1999/xlink">
 <defs>
  <style type="text/css">
   <![CDATA[
    .fil5 {fill:none}
    .fil3 {fill:#FEFEFE}
    .fil1 {fill:#BDBFC1}
    .fil2 {fill:#96989A}
    .fil4 {fill:#8A8A8A}
    .fil0 {fill:#EAEAE7}
   ]]>
  </style>
   <clipPath id="id0">
    <path d="M0 0l995 0 0 1015 -995 0 0 -1015z"/>
   </clipPath>
 </defs>
 <g id="Layer_x0020_1">
  <metadata id="CorelCorpID_0Corel-Layer"/>
  <polygon class="fil0" points="0,0 995,0 995,1015 0,1015 "/>
  <g style="clip-path:url(#id0)">
   <g id="_2280252544832">
    <g>
     <path id="1" class="fil1" d="M684 778c0,0 1,1 1,2 35,86 21,81 -10,113 -4,4 -1,1 -4,5l49 52 -83 107 -272 0 -55 -72c-10,-13 -19,-21 -27,-35l50 -53c-12,-16 -40,-18 -35,-54 2,-12 6,-26 9,-36 9,-28 13,-21 9,-28 -19,0 -142,53 -153,65 -13,13 -55,127 -64,154 -12,33 -20,47 -20,59l-122 415 -197 117 1660 8 -303 74 -195 -614c-11,-28 -21,-65 -32,-93 -12,-32 -24,-62 -37,-93 -10,-23 -8,-27 -31,-37 -36,-17 -102,-50 -138,-56z"/>
     <path class="fil2" d="M576 995c-5,18 -14,34 -22,51 -33,78 -29,87 -52,154 -5,-9 -12,-43 -16,-56 -16,-53 -50,-115 -60,-152 -9,-11 -34,-81 -40,-101 -13,-45 -19,-75 -16,-124 4,-70 32,-76 7,-111 -21,-30 -31,-57 -42,-98 -17,-7 -23,-6 -31,-19 -24,-36 -30,-97 -9,-107 20,-4 24,6 34,16 10,-45 20,-91 50,-129 10,-12 15,-21 25,-31 10,5 6,3 16,13 62,69 133,41 203,85 26,17 34,34 48,57 37,-35 54,6 39,62 -8,30 -19,41 -44,52 -7,44 -29,85 -50,110 -7,18 32,79 12,181 -5,28 -39,132 -52,147zm-260 -216c4,7 0,0 -9,28 -3,10 -7,24 -9,36 -5,36 23,38 35,54l-50 53c8,14 17,22 27,35l137 175c9,12 17,22 27,34 8,10 18,27 29,36l217 -280 -49 -52c3,-4 0,-1 4,-5 31,-32 45,-27 10,-113 0,-1 -1,-2 -1,-2 -4,-14 -18,-27 -24,-39 43,0 76,-7 102,-30 22,-20 36,-54 36,-97 1,-120 -14,-269 -95,-364 -32,-38 -62,-66 -105,-90 -59,-34 -167,-38 -205,13 -3,4 -3,6 -7,10 -13,14 -17,3 -38,11 -56,23 -115,140 -131,196 -21,77 -30,160 -24,242 8,95 75,109 149,108 -4,8 -9,13 -14,21 -4,7 -8,15 -12,20z"/>
     <path class="fil3" d="M431 1011c8,4 0,-1 8,5 18,13 30,28 60,29 38,2 52,-21 65,-28 8,-4 -11,1 7,-3 13,-15 52,-138 57,-166 20,-102 -19,-163 -12,-181 21,-25 43,-66 50,-110 25,-11 36,-22 44,-52 15,-56 -2,-97 -39,-62 -14,-23 -22,-40 -48,-57 -70,-44 -141,-16 -203,-85 -10,-10 -6,-8 -16,-13 -10,10 -15,19 -25,31 -30,38 -40,84 -50,129 -10,-10 -14,-20 -34,-16 -21,10 -15,71 9,107 8,13 14,12 31,19 11,41 21,68 42,98 25,35 -3,41 -7,111 -3,49 3,79 16,124 6,20 36,109 45,120z"/>
     <path class="fil4" d="M373 738c9,-44 25,-53 4,-82 -21,-30 -31,-57 -42,-98 -17,-7 -23,-6 -31,-19 -24,-36 -30,-97 -9,-107 20,-4 24,6 34,16 10,-45 20,-91 50,-129 10,-12 15,-21 25,-31 10,5 6,3 16,13 62,69 133,41 203,85 26,17 34,34 48,57 37,-35 54,6 39,62 -8,30 -19,41 -44,52 -7,44 -29,85 -50,110 -4,10 7,34 13,71l61 0c29,-3 53,-12 72,-29 22,-20 36,-54 36,-97 1,-120 -14,-269 -95,-364 -32,-38 -62,-66 -105,-90 -59,-34 -167,-38 -205,13 -3,4 -3,6 -7,10 -13,14 -17,3 -38,11 -56,23 -115,140 -131,196 -21,77 -30,160 -24,242 7,83 59,104 122,108l58 0z"/>
    </g>
   </g>
  </g>
  <polygon class="fil5" points="0,0 995,0 995,1015 0,1015 "/>
 </g>
</svg>
