<?xml version="1.0" encoding="UTF-8"?>
<!DOCTYPE svg PUBLIC "-//W3C//DTD SVG 1.1//EN" "http://www.w3.org/Graphics/SVG/1.1/DTD/svg11.dtd">
<!-- Creator: CorelDRAW X7 -->
<svg xmlns="http://www.w3.org/2000/svg" xml:space="preserve" width="20.7433mm" height="21.1667mm" version="1.1" style="shape-rendering:geometricPrecision; text-rendering:geometricPrecision; image-rendering:optimizeQuality; fill-rule:evenodd; clip-rule:evenodd"
viewBox="0 0 24526 25027"
 xmlns:xlink="http://www.w3.org/1999/xlink">
 <defs>
  <style type="text/css">
   <![CDATA[
    .str1 {stroke:#8A8A8A;stroke-width:90.0957}
    .str0 {stroke:#8A8A8A;stroke-width:236.472}
    .fil1 {fill:none}
    .fil2 {fill:#FEFEFE}
    .fil3 {fill:#8A8A8A}
    .fil6 {fill:#96989A}
    .fil4 {fill:#BDBFC1}
    .fil5 {fill:#E8E8E9}
    .fil0 {fill:#EAEAE7}
   ]]>
  </style>
   <clipPath id="id0">
    <path d="M0 0l24526 0 0 25027 -24526 0 0 -25027z"/>
   </clipPath>
 </defs>
 <g id="Layer_x0020_1">
  <metadata id="CorelCorpID_0Corel-Layer"/>
  <polygon class="fil0" points="0,0 24526,0 24526,25027 0,25027 "/>
  <g style="clip-path:url(#id0)">
   <g id="_2280252424736">
    <g>
     <g>
      <path id="1" class="fil1 str0" d="M6456 10769c-149,341 -690,376 -359,1885 143,656 514,1331 981,1535 569,248 381,75 559,703 278,980 630,1536 1167,2316 11,15 23,31 34,47l68 106c11,18 25,44 35,59 9,16 24,40 34,62l-256 932c241,95 121,33 387,393 101,137 207,307 305,421 699,819 1712,1578 2930,1494 1519,-104 2489,-1530 3282,-2635l-167 -570c-5,-104 -97,-56 58,-321 161,-276 281,-289 681,-1071 945,-1848 62,-1434 1031,-1974 145,-80 216,-134 317,-255 386,-459 592,-1100 661,-1713 61,-542 -78,-699 -80,-1044l-96 -80c-167,-139 -293,-281 -599,-194 -690,196 -515,877 -540,1406 -2,59 -18,319 -29,370 -66,301 3,156 -141,255 -118,-160 -28,-1191 -1,-1497 66,-737 -65,-813 -456,-1214 -327,-335 -473,-452 -954,-722 -1425,-798 -2727,-553 -3940,-1085 -919,-403 -1407,-1116 -1855,-1428 -294,212 -713,702 -969,1078 -1595,2343 -654,2768 -815,4862 -577,-444 60,-1270 -685,-1864 -341,-272 -378,-93 -588,-257z"/>
      <path id="2" class="fil2" d="M6456 10769c-149,341 -690,376 -359,1885 143,656 514,1331 981,1535 569,248 381,75 559,703 278,980 630,1536 1167,2316 11,15 23,31 34,47l68 106c11,18 25,44 35,59 9,16 24,40 34,62l-256 932c241,95 121,33 387,393 101,137 207,307 305,421 699,819 1712,1578 2930,1494 1519,-104 2489,-1530 3282,-2635l-167 -570c-5,-104 -97,-56 58,-321 161,-276 281,-289 681,-1071 945,-1848 62,-1434 1031,-1974 145,-80 216,-134 317,-255 386,-459 592,-1100 661,-1713 61,-542 -78,-699 -80,-1044l-96 -80c-167,-139 -293,-281 -599,-194 -690,196 -515,877 -540,1406 -2,59 -18,319 -29,370 -66,301 3,156 -141,255 -118,-160 -28,-1191 -1,-1497 66,-737 -65,-813 -456,-1214 -327,-335 -473,-452 -954,-722 -1425,-798 -2727,-553 -3940,-1085 -919,-403 -1407,-1116 -1855,-1428 -294,212 -713,702 -969,1078 -1595,2343 -654,2768 -815,4862 -577,-444 60,-1270 -685,-1864 -341,-272 -378,-93 -588,-257z"/>
     </g>
     <path class="fil3 str1" d="M6456 10769c210,164 247,-15 588,257 745,594 108,1420 685,1864 161,-2094 -780,-2519 815,-4862 256,-376 675,-866 969,-1078 448,312 936,1025 1855,1428 1213,532 2515,287 3940,1085 481,270 627,387 954,722 391,401 522,477 456,1214 -27,306 -117,1337 1,1497 144,-99 75,46 141,-255 11,-51 27,-311 29,-370 25,-529 -150,-1210 540,-1406 306,-87 432,55 599,194l96 80c38,-991 386,-1547 82,-3132 -722,-3758 -4749,-5864 -8412,-3900 -1489,798 -2958,1805 -3400,3515 -335,1294 -116,1919 62,3147z"/>
     <path class="fil4" d="M11279 31839l273 -97c-302,-90 -30,90 -287,-179l-2709 -3404c-498,-638 -956,-1197 -1450,-1827l-1411 -1778 1473 -1152c161,-163 60,-12 170,-229 -251,-244 -344,-300 -671,-557 -251,-198 -399,-393 -649,-570 53,-328 373,-1770 619,-1931 -117,-153 165,-238 -165,-95 -399,-6 -3123,1229 -3770,1536 -603,285 -1379,3027 -1621,3694 -537,1477 -502,814 146,1718l915 907c206,212 172,259 427,444l973 775c635,454 1375,911 2177,1319 1099,560 4244,1654 5560,1426z"/>
     <path class="fil4" d="M12510 31846l0 56c3633,-146 7606,-1708 10015,-4433 92,-104 141,-178 236,-275l626 -690c255,-298 -42,-755 -217,-1237 -323,-885 -605,-1752 -947,-2621 -470,-1192 -305,-866 -1973,-1669 -544,-262 -1956,-1007 -2515,-1028 -72,123 -34,-33 77,115 178,236 202,371 293,725 482,1884 357,1006 -1006,2413 289,412 1229,948 1640,1383l-5225 6546c-792,975 -312,496 -1004,715z"/>
     <path class="fil5" d="M8719 18414c-232,1913 -303,2905 215,4776 232,836 976,3175 1360,3781 93,-211 814,-2525 767,-2720 -39,-164 -354,-528 -457,-794 192,-158 614,-912 775,-1151 141,-210 617,-1071 756,-1197l1467 2305c-91,245 -385,618 -438,830 -68,268 772,2869 866,3039 1073,-2719 2528,-6115 1593,-9196 -793,1105 -1763,2531 -3282,2635 -1218,84 -2231,-675 -2930,-1494 -98,-114 -204,-284 -305,-421 -266,-360 -146,-298 -387,-393z"/>
     <path class="fil6" d="M6472 20020c330,-143 48,-58 165,95 -246,161 -566,1603 -619,1931 250,177 398,372 649,570 327,257 420,313 671,557 -110,217 -9,66 -170,229l-1473 1152 1411 1778c494,630 952,1189 1450,1827l2709 3404c257,269 -15,89 287,179l-273 97 664 74c-234,-1707 -1142,-3400 -1649,-4942 -384,-606 -1128,-2945 -1360,-3781 -518,-1871 -447,-2863 -215,-4776l256 -932c-1147,506 -1765,1761 -2503,2538z"/>
     <path class="fil6" d="M15623 18087c935,3081 -520,6477 -1593,9196 -429,955 -1426,3512 -1520,4563 692,-219 212,260 1004,-715l5225 -6546c-411,-435 -1351,-971 -1640,-1383 1363,-1407 1488,-529 1006,-2413 -91,-354 -115,-489 -293,-725 -111,-148 -149,8 -77,-115 -140,-117 -183,-144 -288,-317 -266,-435 -942,-1324 -1283,-1629 -130,-115 -190,-151 -328,-258 -35,-27 -158,-128 -164,-132l-170 -85c-8,-3 -30,-11 -46,-11l167 570z"/>
     <path class="fil4" d="M10294 26971c507,1542 1415,3235 1649,4942l567 -11 0 -56c94,-1051 1091,-3608 1520,-4563 -94,-170 -934,-2771 -866,-3039 53,-212 347,-585 438,-830l-1467 -2305c-139,126 -615,987 -756,1197 -161,239 -583,993 -775,1151 103,266 418,630 457,794 47,195 -674,2509 -767,2720z"/>
    </g>
   </g>
  </g>
  <polygon class="fil1" points="0,0 24526,0 24526,25027 0,25027 "/>
 </g>
</svg>
