<?xml version="1.0" encoding="UTF-8"?>
<!DOCTYPE svg PUBLIC "-//W3C//DTD SVG 1.0//EN" "http://www.w3.org/TR/2001/REC-SVG-20010904/DTD/svg10.dtd">
<!-- Creator: CorelDRAW X7 -->
<svg xmlns="http://www.w3.org/2000/svg" xml:space="preserve" width="2001px" height="1186px" version="1.0" style="shape-rendering:geometricPrecision; text-rendering:geometricPrecision; image-rendering:optimizeQuality; fill-rule:evenodd; clip-rule:evenodd"
viewBox="0 0 22495 13334"
 xmlns:xlink="http://www.w3.org/1999/xlink">
 <defs>
  <style type="text/css">
   <![CDATA[
    .fil20 {fill:none}
    .fil15 {fill:#00C877}
    .fil16 {fill:#3F99FF}
    .fil14 {fill:#6A55ED}
    .fil18 {fill:#F17462}
    .fil17 {fill:#FFD970}
    .fil12 {fill:#FEFEFE;fill-rule:nonzero}
    .fil19 {fill:#606062;fill-rule:nonzero}
    .fil0 {fill:#4B4B4D;fill-rule:nonzero}
    .fil1 {fill:#373435;fill-rule:nonzero}
    .fil11 {fill:#00C877;fill-rule:nonzero}
    .fil13 {fill:#0F53C8;fill-rule:nonzero}
    .fil6 {fill:#3F99FF;fill-rule:nonzero}
    .fil10 {fill:#63F0E5;fill-rule:nonzero}
    .fil3 {fill:#6A55ED;fill-rule:nonzero}
    .fil5 {fill:#6BE0FF;fill-rule:nonzero}
    .fil2 {fill:#7497FF;fill-rule:nonzero}
    .fil4 {fill:#EBFFFF;fill-rule:nonzero}
    .fil7 {fill:#EFD28E;fill-rule:nonzero}
    .fil9 {fill:#F17462;fill-rule:nonzero}
    .fil8 {fill:#FFD970;fill-rule:nonzero}
   ]]>
  </style>
 </defs>
 <g id="Layer_x0020_1">
  <metadata id="CorelCorpID_0Corel-Layer"/>
  <g id="_2375161266896">
   <path class="fil0" d="M10494 4748c22,67 74,101 144,101 67,0 116,-34 140,-89 1,-3 0,-6 -3,-7l-52 -25c-3,-2 -6,0 -8,3 -13,29 -36,54 -77,54 -39,0 -63,-22 -74,-55 -6,-17 -7,-34 -7,-94 0,-61 1,-78 7,-95 11,-33 35,-55 74,-55 41,0 64,25 77,54 2,3 5,5 8,3l52 -25c3,-1 4,-4 3,-7 -24,-55 -73,-89 -140,-89 -70,0 -122,34 -144,101 -8,26 -11,47 -11,113 0,65 3,86 11,112z"/>
   <path id="1" class="fil0" d="M10907 4843c3,0 6,-3 6,-7l0 -158c0,-47 17,-75 55,-75 16,0 30,6 43,14 3,3 7,2 9,-1l32 -41c3,-3 2,-5 -1,-8 -15,-16 -38,-25 -61,-25 -38,0 -63,16 -77,38l0 0 0 -25c0,-4 -3,-6 -6,-6l-56 0c-4,0 -6,2 -6,6l0 281c0,4 2,7 6,7l56 0z"/>
   <path id="2" class="fil0" d="M11211 4849c59,0 104,-30 121,-81 6,-20 10,-40 10,-72 0,-32 -4,-52 -10,-73 -17,-51 -62,-81 -121,-81 -59,0 -105,30 -121,81 -7,21 -10,41 -10,73 0,32 3,52 10,72 16,51 62,81 121,81zm0 -61c-27,0 -47,-14 -55,-38 -5,-15 -6,-29 -6,-54 0,-25 1,-39 6,-54 8,-25 28,-39 55,-39 28,0 46,14 55,39 5,15 6,29 6,54 0,25 -1,39 -6,54 -9,24 -27,38 -55,38z"/>
   <path id="3" class="fil0" d="M11714 4843c4,0 6,-3 8,-7l92 -281c1,-4 -1,-6 -4,-6l-59 0c-4,0 -6,2 -8,6l-53 194 -1 0 -60 -194c-1,-4 -4,-6 -8,-6l-44 0c-3,0 -7,2 -8,6l-56 194 -1 0 -57 -194c-1,-4 -3,-6 -8,-6l-58 0c-4,0 -5,2 -4,6l92 281c2,4 4,7 8,7l50 0c3,0 6,-3 7,-7l57 -187 1 0 57 187c1,4 4,7 7,7l50 0z"/>
   <path id="4" class="fil0" d="M12108 4843c4,0 6,-3 6,-7l0 -401c0,-4 -2,-7 -6,-7l-56 0c-3,0 -6,3 -6,7l0 142 0 0c-15,-20 -39,-35 -78,-35 -50,0 -87,24 -102,71 -7,23 -11,43 -11,83 0,39 4,60 11,83 15,47 52,70 102,70 39,0 63,-14 78,-34l0 0 0 21c0,4 3,7 6,7l56 0zm-123 -55c-27,0 -46,-13 -54,-37 -4,-14 -6,-28 -6,-55 0,-27 2,-42 6,-55 8,-24 27,-38 54,-38 28,0 47,14 55,38 4,13 6,28 6,55 0,27 -2,41 -6,55 -8,24 -27,37 -55,37z"/>
   <path id="5" class="fil0" d="M12478 4849c103,0 156,-55 156,-128 0,-71 -43,-109 -123,-120l-22 -3c-56,-8 -76,-28 -76,-56 0,-33 23,-56 65,-56 35,0 66,11 99,33 3,1 6,1 9,-2l29 -45c2,-4 2,-6 -1,-9 -33,-25 -83,-41 -134,-41 -86,0 -140,50 -140,125 0,68 45,107 124,118l22 3c58,8 76,27 76,57 0,35 -29,60 -78,60 -46,0 -86,-23 -113,-44 -2,-3 -6,-3 -8,0l-38 44c-2,3 -1,7 1,9 33,31 92,55 152,55z"/>
   <path id="6" class="fil0" d="M12930 4843c4,0 6,-3 6,-7l0 -191c0,-72 -32,-103 -122,-103 -48,0 -80,12 -104,29 -3,2 -3,5 -1,8l22 40c2,3 6,4 9,1 14,-11 34,-20 67,-20 49,0 65,15 65,49l0 14c0,2 -1,4 -4,4l-59 0c-73,0 -118,29 -118,93 0,61 45,89 99,89 41,0 69,-14 83,-34l0 0 0 21c0,4 3,7 6,7l51 0zm-123 -49c-33,0 -51,-12 -51,-37 0,-27 20,-39 64,-39l48 0c3,0 4,1 4,3l0 23c0,33 -23,50 -65,50z"/>
   <path id="7" class="fil0" d="M13129 4846c4,0 6,-2 6,-6l0 -49c0,-3 -2,-6 -6,-6l-14 0c-17,0 -25,-6 -25,-26l0 -324c0,-4 -3,-7 -6,-7l-56 0c-4,0 -6,3 -6,7l0 327c0,57 23,84 80,84l27 0z"/>
   <path id="8" class="fil0" d="M13317 4849c54,0 96,-20 121,-50 2,-3 2,-6 -1,-8l-36 -32c-3,-2 -6,-2 -9,1 -15,16 -36,28 -69,28 -33,0 -56,-15 -66,-44 -2,-7 -4,-14 -4,-23 0,-2 1,-3 4,-3l181 0c4,0 6,-3 6,-6 0,-48 -3,-68 -9,-89 -17,-50 -61,-81 -121,-81 -58,0 -104,30 -120,81 -6,19 -10,42 -10,73 0,30 5,53 11,72 16,51 60,81 122,81zm59 -186c0,2 -2,4 -4,4l-115 0c-3,0 -4,-2 -4,-4 0,-10 1,-18 4,-25 8,-24 30,-38 58,-38 27,0 49,14 57,38 2,7 4,15 4,25z"/>
   <path class="fil1" d="M11408 4127c12,64 68,102 144,102 84,0 146,-54 146,-135 0,-59 -31,-95 -58,-109l0 -1c32,-21 50,-54 50,-92 0,-71 -51,-123 -138,-123 -79,0 -129,43 -140,102 -1,4 1,7 5,8l72 13c4,1 6,0 8,-4 6,-25 22,-42 50,-42 32,0 51,21 51,53 0,34 -22,56 -55,56l-18 0c-4,0 -7,2 -7,6l0 64c0,4 3,6 7,6l19 0c38,0 62,23 62,63 0,34 -21,58 -55,58 -31,0 -50,-18 -58,-42 -2,-4 -4,-6 -8,-5l-72 14c-4,1 -6,4 -5,8z"/>
   <path id="1" class="fil1" d="M11782 4131c8,58 61,98 137,98 64,0 114,-28 132,-83 6,-18 10,-41 10,-69 0,-38 -4,-58 -9,-76 -17,-50 -58,-76 -115,-76 -34,0 -56,11 -67,21l-2 0 0 -88c0,-2 1,-4 4,-4l171 0c4,0 7,-2 7,-6l0 -65c0,-4 -3,-7 -7,-7l-249 0c-4,0 -7,3 -7,7l0 245c0,4 3,7 7,7l70 0c5,0 7,-2 8,-7 7,-13 21,-26 46,-26 21,0 39,9 46,31 4,11 6,23 6,44 0,21 -2,33 -6,44 -6,21 -24,31 -46,31 -28,0 -44,-16 -52,-37 -1,-4 -4,-6 -8,-5l-71 14c-4,0 -6,4 -5,7l0 0z"/>
   <path id="2" class="fil1" d="M12204 4223c-2,3 -1,6 3,6l54 0c6,0 8,-2 11,-6l259 -447c2,-4 1,-7 -3,-7l-55 0c-5,0 -8,2 -10,7l-259 447zm26 -217c42,0 73,-21 85,-54 4,-13 5,-22 5,-64 0,-41 -1,-50 -5,-63 -12,-33 -43,-54 -85,-54 -42,0 -74,21 -85,54 -4,13 -6,22 -6,63 0,42 2,51 6,64 11,33 43,54 85,54zm0 -52c-11,0 -20,-5 -23,-15 -2,-5 -3,-11 -3,-51 0,-40 1,-45 3,-50 3,-10 12,-15 23,-15 11,0 20,5 23,15 2,5 3,10 3,50 0,40 -1,46 -3,51 -3,10 -12,15 -23,15zm189 220c12,33 42,54 85,54 42,0 74,-21 85,-54 4,-13 6,-23 6,-63 0,-42 -2,-51 -6,-64 -11,-33 -43,-54 -85,-54 -43,0 -73,21 -85,54 -4,13 -5,22 -5,64 0,40 1,50 5,63zm62 -13c-2,-5 -3,-10 -3,-50 0,-40 1,-46 3,-51 3,-10 12,-15 23,-15 11,0 20,5 23,15 2,5 3,11 3,51 0,40 -1,45 -3,50 -3,10 -12,15 -23,15 -11,0 -20,-5 -23,-15z"/>
   <path class="fil0" d="M10803 9026c0,4 3,6 6,6l148 0c91,0 143,-40 143,-122 0,-50 -30,-83 -56,-93l0 -1c26,-14 48,-41 48,-88 0,-66 -41,-110 -129,-110l-154 0c-3,0 -6,2 -6,6l0 402zm76 -236c-3,0 -4,-1 -4,-3l0 -102c0,-3 1,-4 4,-4l82 0c37,0 59,22 59,55 0,32 -22,54 -59,54l-82 0zm-4 175l0 -108c0,-2 1,-3 4,-3l86 0c40,0 63,23 63,57 0,35 -23,58 -63,58l-86 0c-3,0 -4,-2 -4,-4z"/>
   <path id="1" class="fil0" d="M11287 9039c59,0 104,-30 120,-81 7,-21 10,-40 10,-73 0,-32 -3,-51 -10,-72 -16,-51 -61,-81 -120,-81 -60,0 -105,30 -122,81 -6,21 -9,40 -9,72 0,33 3,52 9,73 17,51 62,81 122,81zm0 -61c-28,0 -47,-14 -56,-39 -5,-15 -6,-29 -6,-54 0,-25 1,-38 6,-54 9,-24 28,-38 56,-38 27,0 46,14 54,38 5,16 7,29 7,54 0,25 -2,39 -7,54 -8,25 -27,39 -54,39z"/>
   <path id="2" class="fil0" d="M11726 9032c4,0 6,-2 6,-6l0 -281c0,-4 -2,-6 -6,-6l-56 0c-3,0 -6,2 -6,6l0 170c0,37 -20,63 -55,63 -37,0 -54,-26 -54,-64l0 -169c0,-4 -3,-6 -7,-6l-56 0c-3,0 -6,2 -6,6l0 185c0,62 39,109 101,109 38,0 61,-14 77,-34l0 0 0 21c0,4 3,6 6,6l56 0z"/>
   <path id="3" class="fil0" d="M12063 9032c4,0 6,-2 6,-6l0 -185c0,-63 -39,-109 -102,-109 -39,0 -64,16 -77,34l0 0 0 -21c0,-4 -3,-6 -7,-6l-56 0c-3,0 -6,2 -6,6l0 281c0,4 3,6 6,6l56 0c4,0 7,-2 7,-6l0 -169c0,-38 20,-64 56,-64 36,0 55,26 55,64l0 169c0,4 2,6 6,6l56 0z"/>
   <path id="4" class="fil0" d="M12270 9036c4,0 6,-3 6,-6l0 -49c0,-4 -2,-6 -6,-6l-15 0c-19,0 -28,-7 -28,-28l0 -152c0,-2 2,-4 4,-4l39 0c4,0 6,-2 6,-6l0 -40c0,-4 -2,-6 -6,-6l-39 0c-2,0 -4,-2 -4,-4l0 -81c0,-3 -2,-6 -6,-6l-56 0c-3,0 -6,3 -6,6l0 81c0,2 -1,4 -3,4l-20 0c-4,0 -6,2 -6,6l0 40c0,4 2,6 6,6l20 0c2,0 3,2 3,4l0 155c0,57 23,86 82,86l29 0z"/>
   <path id="5" class="fil0" d="M12380 9142c48,0 73,-22 98,-92l112 -305c2,-4 -1,-6 -4,-6l-58 0c-4,0 -6,2 -8,6l-63 191 -1 0 -67 -191c-1,-4 -3,-6 -7,-6l-60 0c-4,0 -6,2 -5,6l107 276 -8 25c-9,24 -21,35 -44,35l-11 0c-4,0 -6,2 -6,6l0 49c0,3 2,6 6,6l19 0z"/>
   <path id="6" class="fil0" d="M10940 9653c4,0 6,-3 6,-7l0 -339c0,-3 2,-4 4,-4l109 0c3,0 6,-2 6,-6l0 -52c0,-4 -3,-7 -6,-7l-296 0c-4,0 -7,3 -7,7l0 52c0,4 3,6 7,6l108 0c2,0 4,1 4,4l0 339c0,4 2,7 6,7l59 0z"/>
   <path id="7" class="fil0" d="M11194 9659c59,0 104,-30 120,-81 7,-20 10,-40 10,-72 0,-32 -3,-52 -10,-73 -16,-51 -61,-81 -120,-81 -60,0 -105,30 -121,81 -7,21 -10,41 -10,73 0,32 3,52 10,72 16,51 61,81 121,81zm0 -61c-28,0 -47,-14 -56,-38 -5,-15 -6,-29 -6,-54 0,-25 1,-39 6,-54 9,-25 28,-39 56,-39 27,0 46,14 55,39 4,15 6,29 6,54 0,25 -2,39 -6,54 -9,24 -28,38 -55,38z"/>
   <path id="8" class="fil0" d="M11653 9653c4,0 5,-4 3,-7l-107 -174 93 -107c2,-2 1,-6 -2,-6l-63 0c-4,0 -8,2 -11,6l-101 118 0 -238c0,-4 -2,-7 -6,-7l-56 0c-3,0 -6,3 -6,7l0 401c0,4 3,7 6,7l56 0c4,0 6,-3 6,-7l0 -77 40 -46 74 123c3,5 6,7 10,7l64 0z"/>
   <path id="9" class="fil0" d="M11823 9659c54,0 95,-20 120,-50 3,-3 3,-6 0,-8l-36 -32c-3,-2 -6,-2 -9,1 -15,16 -36,28 -69,28 -33,0 -56,-15 -66,-44 -2,-7 -4,-14 -4,-23 0,-2 1,-3 4,-3l180 0c5,0 7,-3 7,-6 0,-48 -3,-68 -10,-89 -16,-50 -60,-81 -120,-81 -59,0 -104,30 -120,81 -6,19 -10,42 -10,73 0,30 4,53 10,72 17,51 61,81 123,81zm58 -186c0,2 -1,4 -3,4l-115 0c-3,0 -4,-2 -4,-4 0,-10 1,-18 4,-25 7,-24 29,-38 57,-38 28,0 50,14 58,38 2,7 3,15 3,25z"/>
   <path id="10" class="fil0" d="M12265 9653c4,0 6,-3 6,-7l0 -185c0,-62 -39,-109 -102,-109 -39,0 -64,16 -77,34l-1 0 0 -21c0,-4 -2,-6 -6,-6l-56 0c-3,0 -6,2 -6,6l0 281c0,4 3,7 6,7l56 0c4,0 6,-3 6,-7l0 -169c0,-38 21,-64 56,-64 37,0 56,26 56,64l0 169c0,4 2,7 6,7l56 0z"/>
   <path id="11" class="fil0" d="M12465 9659c81,0 123,-41 123,-99 0,-48 -29,-80 -90,-86l-32 -3c-38,-4 -48,-14 -48,-31 0,-18 15,-30 44,-30 30,0 59,11 77,24 3,2 6,2 9,-1l29 -36c2,-3 2,-6 -1,-9 -26,-20 -64,-36 -110,-36 -73,0 -114,36 -114,93 0,50 31,80 90,86l32 3c38,4 49,15 49,33 0,20 -19,34 -55,34 -30,0 -64,-14 -85,-33 -3,-3 -7,-3 -9,0l-35 36c-2,3 -2,7 0,9 25,22 66,46 126,46z"/>
   <path class="fil1" d="M11263 8434c0,4 2,7 6,7l268 0c3,0 6,-3 6,-7l0 -65c0,-4 -3,-7 -6,-7l-158 0 0 -1 119 -140c28,-32 45,-66 45,-109 0,-72 -52,-128 -138,-128 -87,0 -137,54 -142,116 0,4 2,8 6,8l72 12c5,1 8,-1 8,-5 4,-34 22,-53 53,-53 31,0 49,22 49,52 0,23 -10,42 -27,62l-158 188c-3,3 -3,5 -3,9l0 61z"/>
   <path id="1" class="fil1" d="M11692 8442c-2,3 -1,6 3,6l55 0c5,0 8,-2 11,-6l261 -451c2,-4 1,-7 -3,-7l-55 0c-6,0 -8,2 -11,7l-261 451zm26 -219c43,0 74,-21 86,-54 4,-14 6,-23 6,-65 0,-41 -2,-51 -6,-64 -12,-33 -43,-54 -86,-54 -42,0 -74,21 -85,54 -5,13 -6,23 -6,64 0,42 1,51 6,65 11,33 43,54 85,54zm0 -53c-11,0 -19,-5 -23,-15 -2,-5 -2,-10 -2,-51 0,-40 0,-45 2,-51 4,-9 12,-15 23,-15 12,0 20,6 23,15 2,6 3,11 3,51 0,41 -1,46 -3,51 -3,10 -11,15 -23,15zm191 222c12,34 43,55 86,55 42,0 74,-21 85,-55 4,-13 6,-22 6,-63 0,-42 -2,-51 -6,-65 -11,-33 -43,-54 -85,-54 -43,0 -74,21 -86,54 -4,14 -6,23 -6,65 0,41 2,50 6,63zm63 -13c-2,-5 -3,-10 -3,-50 0,-41 1,-46 3,-51 3,-10 11,-16 23,-16 11,0 20,6 23,16 2,5 3,10 3,51 0,40 -1,45 -3,50 -3,10 -12,16 -23,16 -12,0 -20,-6 -23,-16z"/>
   <g>
    <path class="fil2" d="M7703 3311c-926,-141 -1864,170 -2523,836 -659,667 -959,1608 -808,2533l2891 -473 440 -2896z"/>
    <g>
     <path class="fil3" d="M7703 3311c-926,-141 -1864,170 -2523,836 -659,667 -959,1608 -808,2533l2891 -473 440 -2896z"/>
     <path id="1" class="fil4" d="M5187 4154l-14 -14 0 0 63 -61 64 -60 66 -57 68 -55 68 -53 71 -51 71 -49 73 -47 74 -44 75 -42 76 -40 78 -37 78 -35 79 -33 80 -31 81 -28 82 -26 83 -23 83 -21 84 -19 84 -16 85 -13 85 -12 86 -8 86 -6 87 -4 86 -1 87 1 87 5 87 6 88 9 87 12 -3 20 -87 -12 -86 -9 -87 -7 -86 -4 -87 -1 -86 1 -86 4 -85 6 -86 8 -84 11 -85 14 -83 16 -84 18 -82 21 -82 24 -81 25 -81 28 -80 30 -78 33 -78 35 -77 37 -76 40 -74 41 -74 44 -72 47 -71 48 -70 51 -68 52 -67 55 -65 57 -64 59 -63 61 0 0zm0 0c-4,4 -10,4 -14,1 -4,-4 -4,-11 0,-15l14 14zm-816 2516l3 20 -11 -9 -13 -87 -11 -87 -7 -87 -5 -87 -3 -87 0 -86 3 -87 5 -86 8 -86 10 -86 13 -85 15 -84 18 -84 20 -84 22 -82 25 -82 27 -82 30 -80 32 -80 34 -78 37 -78 39 -77 41 -76 43 -74 46 -73 48 -72 50 -71 52 -70 55 -68 56 -66 59 -65 61 -64 14 14 -60 64 -59 64 -56 66 -54 68 -52 69 -50 70 -47 72 -46 72 -43 74 -41 75 -38 77 -37 77 -34 78 -32 79 -29 80 -27 81 -25 81 -22 82 -20 83 -17 84 -15 84 -13 84 -10 85 -8 85 -5 86 -3 86 0 86 3 86 5 87 7 86 10 87 13 86 -11 -8zm11 8c1,6 -3,11 -8,12 -5,0 -11,-3 -11,-9l19 -3zm2882 -461l-2890 473 -3 -20 2890 -473 12 11 -9 9zm-3 -20c6,-1 11,3 12,8 0,6 -3,11 -9,12l-3 -20zm452 -2884l-440 2895 -20 -3 440 -2895 12 -9 8 12zm-20 -3c1,-6 6,-9 12,-9 5,1 9,6 8,12l-20 -3z"/>
    </g>
    <path class="fil5" d="M4373 6683c152,924 738,1720 1575,2141l1315 -2617 -2890 476z"/>
    <g>
     <path class="fil6" d="M4373 6683c152,924 738,1720 1575,2141l1315 -2617 -2890 476z"/>
     <path id="1" class="fil4" d="M5939 8819l18 9 -14 5 -78 -41 -76 -43 -75 -45 -73 -47 -72 -49 -70 -51 -69 -53 -67 -55 -64 -56 -64 -59 -61 -60 -60 -62 -57 -64 -56 -65 -54 -67 -52 -68 -49 -70 -48 -71 -46 -73 -43 -74 -42 -75 -39 -76 -37 -78 -35 -79 -32 -80 -30 -81 -28 -82 -26 -83 -23 -84 -20 -85 -18 -86 -16 -87 20 -3 15 86 18 85 21 85 23 83 25 83 27 81 30 81 33 79 34 79 37 77 39 76 41 74 43 74 46 72 47 71 50 69 51 68 53 66 56 65 57 63 59 62 61 60 63 58 64 56 67 55 68 52 69 51 72 48 72 47 75 45 76 42 77 41 -13 4zm13 -4c5,2 7,8 5,13 -3,5 -9,7 -14,5l9 -18zm1320 -2604l-1315 2617 -18 -9 1315 -2617 7 -5 11 14zm-18 -9c2,-5 8,-7 13,-4 5,2 7,8 5,13l-18 -9zm-2883 471l2890 -476 3 20 -2889 475 -12 -8 8 -11zm4 19c-6,1 -11,-2 -12,-8 -1,-5 3,-10 8,-11l4 19z"/>
    </g>
    <path class="fil7" d="M5950 8825c1014,508 2229,385 3121,-314l-1808 -2304 -1313 2618z"/>
    <g>
     <path class="fil8" d="M5950 8825c1014,508 2229,385 3121,-314l-1808 -2304 -1313 2618z"/>
     <path id="1" class="fil4" d="M9063 8517l16 -13 -2 14 -85 65 -86 60 -89 58 -90 54 -91 50 -93 47 -94 44 -96 40 -96 36 -98 33 -98 30 -100 26 -100 23 -101 19 -101 16 -102 12 -102 8 -102 5 -103 1 -102 -2 -103 -6 -102 -9 -103 -13 -102 -17 -101 -20 -101 -24 -101 -27 -99 -32 -99 -34 -98 -39 -97 -42 -96 -46 9 -18 95 46 97 42 97 38 98 35 99 31 100 27 100 24 101 20 101 16 102 13 101 9 102 6 102 2 102 -1 102 -5 101 -8 101 -12 101 -16 100 -19 100 -22 98 -26 98 -30 97 -33 96 -36 95 -40 93 -43 93 -47 90 -50 90 -53 87 -57 86 -61 85 -63 -2 14zm2 -14c4,-4 10,-3 14,1 3,5 2,11 -2,14l-12 -15zm-1794 -2302l1808 2303 -16 13 -1808 -2304 -1 -11 17 -1zm-16 12c-4,-4 -3,-11 2,-14 4,-4 10,-3 14,2l-16 12zm-1313 2608l1312 -2619 18 9 -1313 2618 -13 5 -4 -13zm17 8c-2,5 -8,7 -13,5 -5,-3 -7,-9 -4,-13l17 8z"/>
    </g>
    <path class="fil9" d="M9073 8509c95,-75 186,-156 271,-242l-2081 -2060 1810 2302z"/>
    <g>
     <path class="fil4" d="M9337 8274l14 -14 0 14 -8 8 -8 8 -8 8 -8 8 -8 8 -9 8 -8 8 -8 8 -8 8 -9 8 -8 7 -8 8 -9 8 -8 7 -9 8 -8 8 -9 7 -8 8 -9 7 -8 8 -9 7 -9 8 -8 7 -9 7 -9 8 -8 7 -9 7 -9 7 -9 7 -9 7 -9 8 -9 7 -12 -16 9 -7 9 -7 9 -7 8 -7 9 -7 9 -8 9 -7 8 -7 9 -7 9 -8 8 -7 9 -7 8 -8 9 -7 8 -8 9 -7 8 -8 8 -7 9 -8 8 -8 8 -7 9 -8 8 -8 8 -8 8 -7 9 -8 8 -8 8 -8 8 -8 8 -8 8 -8 8 -8 0 14zm0 -14c4,-4 10,-4 14,0 4,4 4,10 0,14l-14 -14zm-2067 -2060l2081 2060 -14 14 -2081 -2060 -1 -1 15 -13zm-14 14c-4,-4 -4,-10 0,-14 3,-4 10,-4 14,0l-14 14zm1809 2301l-1810 -2302 16 -12 1810 2302 -2 14 -14 -2zm16 -12c3,4 3,10 -2,14 -4,3 -10,2 -14,-2l16 -12z"/>
    </g>
    <path class="fil10" d="M9346 8265c774,-783 1043,-1934 697,-2979 -346,-1045 -1248,-1807 -2336,-1974l-444 2895 2083 2058z"/>
    <g>
     <path class="fil11" d="M9346 8265c774,-783 1043,-1934 697,-2979 -346,-1045 -1248,-1807 -2336,-1974l-444 2895 2083 2058z"/>
     <path id="1" class="fil4" d="M10034 5290l19 -7 0 0 30 99 27 99 24 100 20 100 16 100 13 100 10 101 6 100 2 101 -1 100 -4 100 -8 100 -11 99 -14 99 -18 98 -21 97 -24 97 -28 96 -31 95 -34 94 -37 92 -41 92 -43 90 -47 89 -50 88 -53 85 -56 85 -60 82 -62 81 -65 79 -69 76 -71 75 -14 -14 71 -74 68 -76 64 -79 62 -80 59 -82 56 -83 53 -86 49 -87 47 -88 43 -89 40 -91 37 -92 34 -94 31 -94 27 -95 25 -96 21 -97 17 -98 15 -98 11 -98 7 -99 4 -100 1 -99 -2 -100 -6 -100 -9 -100 -13 -99 -17 -100 -20 -99 -23 -99 -27 -98 -30 -98 0 0zm0 0c-2,-6 1,-11 6,-13 5,-2 11,1 13,6l-19 7zm-2317 -1977l-20 -3 11 -8 102 17 101 21 99 25 98 27 97 31 95 34 94 37 92 41 91 43 89 46 87 50 85 52 84 55 81 58 79 60 78 63 75 66 73 68 70 71 68 73 66 75 63 78 60 80 58 82 56 84 52 86 49 89 47 90 44 92 40 94 37 96 35 97 -19 7 -34 -97 -37 -95 -41 -94 -43 -91 -46 -90 -49 -87 -52 -86 -55 -84 -58 -81 -60 -80 -63 -77 -65 -75 -67 -72 -70 -71 -73 -67 -74 -66 -77 -62 -79 -60 -81 -58 -83 -54 -84 -52 -87 -49 -88 -46 -90 -43 -92 -40 -93 -37 -95 -34 -96 -31 -97 -27 -99 -24 -100 -21 -101 -17 12 -9zm-12 9c-5,-1 -9,-6 -8,-12 1,-5 6,-9 11,-8l-3 20zm-452 2883l444 -2895 20 3 -444 2895 -17 6 -3 -9zm20 3c-1,6 -6,9 -12,9 -5,-1 -9,-6 -8,-12l20 3zm2066 2064l-2083 -2058 14 -14 2083 2058 0 14 -14 0zm14 -14c4,4 4,10 0,14 -4,4 -10,4 -14,0l14 -14z"/>
    </g>
    <path class="fil12" d="M6920 8573c1290,196 2494,-691 2690,-1980 196,-1290 -691,-2494 -1980,-2690 -1290,-196 -2494,690 -2690,1980 -196,1290 690,2494 1980,2690z"/>
    <path class="fil13" d="M6458 6457l0 -436 85 0 180 292 0 -292 81 0 0 436 -88 0 -177 -287 0 287 -81 0z"/>
    <path id="1" class="fil13" d="M6897 6457l0 -436 89 0 0 172 172 0 0 -172 88 0 0 436 -88 0 0 -191 -172 0 0 191 -89 0z"/>
    <path id="2" class="fil13" d="M7616 6296l85 26c-13,48 -34,84 -65,107 -30,24 -69,35 -116,35 -58,0 -105,-19 -143,-59 -37,-40 -56,-94 -56,-162 0,-73 19,-129 57,-170 37,-40 86,-60 148,-60 53,0 96,16 130,47 19,19 34,46 44,81l-87 21c-5,-23 -16,-41 -32,-54 -17,-13 -36,-19 -60,-19 -32,0 -58,11 -79,34 -20,24 -30,61 -30,113 0,55 10,94 30,118 20,23 46,35 77,35 24,0 44,-8 61,-22 17,-15 29,-39 36,-71z"/>
    <path id="3" class="fil13" d="M7875 6457l0 -362 -129 0 0 -74 346 0 0 74 -129 0 0 362 -88 0z"/>
   </g>
   <path class="fil14" d="M3545 4012l2044 0 0 45 -2044 0 0 -45z"/>
   <path class="fil15" d="M11068 4012l-2140 0 0 45 2140 0 0 -45z"/>
   <path class="fil0" d="M5756 11140c0,4 2,6 6,6l259 0c4,0 6,-2 6,-6l0 -52c0,-4 -2,-6 -6,-6l-190 0c-2,0 -4,-1 -4,-4l0 -105c0,-2 2,-3 4,-3l160 0c4,0 6,-3 6,-6l0 -53c0,-3 -2,-6 -6,-6l-160 0c-2,0 -4,-1 -4,-3l0 -102c0,-2 2,-3 4,-3l190 0c4,0 6,-3 6,-6l0 -53c0,-3 -2,-6 -6,-6l-259 0c-4,0 -6,3 -6,6l0 402z"/>
   <path id="1" class="fil0" d="M6216 11153c44,0 79,-18 102,-45 2,-3 2,-6 -1,-8l-38 -34c-3,-2 -6,-2 -9,1 -14,16 -30,25 -54,25 -26,0 -46,-13 -55,-38 -5,-14 -6,-32 -6,-54 0,-23 1,-40 6,-55 9,-25 29,-38 55,-38 24,0 40,9 54,26 3,3 6,3 9,1l38 -34c3,-2 3,-6 1,-8 -23,-28 -58,-46 -102,-46 -59,0 -104,29 -121,81 -6,18 -9,42 -9,73 0,31 3,54 9,72 17,52 62,81 121,81z"/>
   <path id="2" class="fil0" d="M6506 11153c59,0 104,-30 120,-81 7,-21 10,-40 10,-72 0,-33 -3,-52 -10,-73 -16,-51 -61,-81 -120,-81 -60,0 -105,30 -121,81 -7,21 -10,40 -10,73 0,32 3,51 10,72 16,51 61,81 121,81zm0 -61c-28,0 -47,-14 -56,-38 -4,-15 -6,-29 -6,-54 0,-25 2,-39 6,-55 9,-24 28,-38 56,-38 27,0 46,14 55,38 5,16 6,30 6,55 0,25 -1,39 -6,54 -9,24 -28,38 -55,38z"/>
   <path id="3" class="fil0" d="M6818 11153c80,0 123,-41 123,-99 0,-48 -30,-80 -91,-86l-32 -3c-37,-4 -48,-14 -48,-31 0,-18 15,-31 45,-31 29,0 58,12 76,25 3,2 6,2 9,-1l30 -36c2,-3 2,-6 -1,-9 -27,-21 -65,-36 -111,-36 -73,0 -114,36 -114,93 0,50 31,80 91,86l31 3c39,4 49,15 49,33 0,20 -18,34 -54,34 -31,0 -65,-14 -86,-33 -3,-3 -6,-3 -9,0l-34 36c-3,3 -3,6 0,9 24,22 65,46 126,46z"/>
   <path id="4" class="fil0" d="M7042 11256c49,0 73,-22 98,-91l113 -306c1,-4 -2,-6 -5,-6l-58 0c-4,0 -6,2 -8,6l-63 192 -1 0 -66 -192c-2,-4 -4,-6 -8,-6l-60 0c-4,0 -6,2 -5,6l107 276 -8 25c-9,25 -21,35 -44,35l-11 0c-4,0 -6,3 -6,6l0 49c0,4 2,6 6,6l19 0z"/>
   <path id="5" class="fil0" d="M7410 11153c81,0 123,-41 123,-99 0,-48 -29,-80 -90,-86l-32 -3c-38,-4 -48,-14 -48,-31 0,-18 15,-31 44,-31 29,0 59,12 77,25 3,2 6,2 8,-1l30 -36c2,-3 2,-6 -1,-9 -26,-21 -64,-36 -110,-36 -73,0 -114,36 -114,93 0,50 30,80 90,86l32 3c38,4 48,15 48,33 0,20 -18,34 -54,34 -30,0 -64,-14 -86,-33 -2,-3 -6,-3 -8,0l-35 36c-2,3 -2,6 0,9 25,22 66,46 126,46z"/>
   <path id="6" class="fil0" d="M7720 11150c4,0 6,-2 6,-6l0 -49c0,-3 -2,-6 -6,-6l-15 0c-19,0 -27,-7 -27,-27l0 -153c0,-2 1,-3 3,-3l39 0c4,0 6,-3 6,-6l0 -41c0,-4 -2,-6 -6,-6l-39 0c-2,0 -3,-1 -3,-4l0 -80c0,-4 -3,-6 -6,-6l-57 0c-3,0 -6,2 -6,6l0 80c0,3 -1,4 -3,4l-20 0c-3,0 -6,2 -6,6l0 41c0,3 3,6 6,6l20 0c2,0 3,1 3,3l0 155c0,57 23,86 82,86l29 0z"/>
   <path id="7" class="fil0" d="M7918 11153c54,0 95,-21 120,-50 3,-3 3,-6 0,-8l-36 -32c-3,-2 -7,-2 -10,1 -14,16 -35,28 -68,28 -33,0 -56,-16 -66,-44 -3,-7 -4,-14 -4,-23 0,-2 1,-3 3,-3l181 0c4,0 7,-3 7,-7 0,-47 -3,-67 -10,-88 -16,-50 -60,-81 -121,-81 -58,0 -103,30 -119,81 -7,19 -10,42 -10,73 0,30 4,53 10,71 17,52 60,82 123,82zm58 -186c0,2 -1,3 -4,3l-115 0c-2,0 -3,-1 -3,-3 0,-11 1,-18 3,-25 8,-24 30,-38 58,-38 27,0 49,14 57,38 3,7 4,14 4,25z"/>
   <path id="8" class="fil0" d="M8539 11146c4,0 6,-2 6,-6l0 -185c0,-63 -38,-109 -106,-109 -42,0 -71,15 -94,39l-1 0c-17,-25 -45,-39 -80,-39 -39,0 -65,16 -77,34l-1 0 0 -21c0,-4 -2,-6 -6,-6l-56 0c-4,0 -6,2 -6,6l0 281c0,4 2,6 6,6l56 0c4,0 6,-2 6,-6l0 -169c0,-38 21,-64 56,-64 37,0 56,26 56,64l0 169c0,4 2,6 6,6l56 0c3,0 6,-2 6,-6l0 -169c0,-38 20,-64 56,-64 36,0 55,26 55,64l0 169c0,4 3,6 6,6l56 0z"/>
   <path id="9" class="fil0" d="M5447 11772c0,3 2,6 6,6l148 0c71,0 118,-32 138,-92 7,-21 10,-43 10,-115 0,-72 -3,-95 -10,-115 -20,-61 -67,-92 -138,-92l-148 0c-4,0 -6,2 -6,6l0 402zm71 -62l0 -278c0,-3 2,-4 4,-4l62 0c45,0 73,15 85,53 5,11 8,29 8,90 0,59 -3,78 -8,90 -12,37 -40,52 -85,52l-62 0c-2,0 -4,-1 -4,-3z"/>
   <path id="10" class="fil0" d="M5943 11785c54,0 95,-21 120,-50 3,-3 3,-7 0,-9l-36 -32c-3,-2 -6,-1 -9,2 -15,15 -36,28 -69,28 -33,0 -56,-16 -66,-45 -2,-7 -4,-14 -4,-22 0,-3 1,-4 4,-4l180 0c5,0 7,-2 7,-6 0,-48 -3,-68 -10,-88 -16,-50 -60,-81 -120,-81 -59,0 -104,29 -120,81 -6,18 -10,42 -10,72 0,31 4,53 10,72 17,51 61,82 123,82zm58 -187c0,3 -1,4 -3,4l-115 0c-3,0 -4,-1 -4,-4 0,-10 1,-17 4,-25 7,-24 29,-38 57,-38 28,0 50,14 58,38 2,8 3,15 3,25z"/>
   <path id="11" class="fil0" d="M6271 11778c4,0 7,-3 8,-6l104 -282c1,-3 -2,-6 -5,-6l-59 0c-3,0 -6,3 -7,6l-63 191 -2 0 -64 -191c-1,-3 -4,-6 -8,-6l-59 0c-4,0 -6,3 -5,6l103 282c2,3 4,6 8,6l49 0z"/>
   <path id="12" class="fil0" d="M6552 11785c55,0 96,-21 121,-50 2,-3 2,-7 -1,-9l-35 -32c-4,-2 -7,-1 -10,2 -14,15 -36,28 -68,28 -33,0 -56,-16 -66,-45 -3,-7 -4,-14 -4,-22 0,-3 1,-4 3,-4l181 0c4,0 7,-2 7,-6 0,-48 -3,-68 -10,-88 -16,-50 -60,-81 -121,-81 -58,0 -103,29 -120,81 -6,18 -9,42 -9,72 0,31 4,53 10,72 16,51 60,82 122,82zm59 -187c0,3 -1,4 -4,4l-115 0c-2,0 -3,-1 -3,-4 0,-10 1,-17 3,-25 8,-24 30,-38 58,-38 27,0 49,14 57,38 3,8 4,15 4,25z"/>
   <path id="13" class="fil0" d="M6859 11781c3,0 6,-2 6,-6l0 -48c0,-4 -3,-6 -6,-6l-14 0c-17,0 -25,-7 -25,-27l0 -324c0,-4 -3,-6 -6,-6l-56 0c-4,0 -6,2 -6,6l0 327c0,57 23,84 80,84l27 0z"/>
   <path id="14" class="fil0" d="M7045 11785c59,0 104,-30 121,-81 6,-21 9,-41 9,-73 0,-32 -3,-52 -9,-72 -17,-52 -62,-81 -121,-81 -60,0 -105,29 -121,81 -7,20 -10,40 -10,72 0,32 3,52 10,73 16,51 61,81 121,81zm0 -61c-27,0 -47,-14 -55,-39 -5,-15 -6,-29 -6,-54 0,-25 1,-38 6,-54 8,-25 28,-39 55,-39 28,0 46,14 55,39 5,16 6,29 6,54 0,25 -1,39 -6,54 -9,25 -27,39 -55,39z"/>
   <path id="15" class="fil0" d="M7311 11887c3,0 6,-2 6,-6l0 -131 0 0c14,20 39,35 78,35 50,0 87,-24 102,-71 7,-23 10,-43 10,-83 0,-40 -3,-60 -10,-83 -15,-47 -52,-70 -102,-70 -39,0 -64,14 -78,34l0 0 0 -22c0,-3 -3,-6 -6,-6l-56 0c-4,0 -6,3 -6,6l0 391c0,4 2,6 6,6l56 0zm67 -163c-28,0 -47,-14 -55,-38 -4,-14 -6,-28 -6,-55 0,-27 2,-41 6,-55 8,-24 27,-38 55,-38 27,0 46,14 54,38 4,14 6,28 6,55 0,27 -2,41 -6,55 -8,24 -27,38 -54,38z"/>
   <path id="16" class="fil0" d="M8002 11778c4,0 6,-3 6,-6l0 -185c0,-63 -38,-109 -107,-109 -42,0 -71,14 -93,39l-1 0c-18,-25 -46,-39 -80,-39 -39,0 -65,15 -78,34l0 0 0 -22c0,-3 -3,-6 -6,-6l-56 0c-4,0 -7,3 -7,6l0 282c0,3 3,6 7,6l56 0c3,0 6,-3 6,-6l0 -170c0,-37 20,-64 56,-64 36,0 55,27 55,64l0 170c0,3 3,6 6,6l56 0c4,0 6,-3 6,-6l0 -170c0,-37 21,-64 56,-64 37,0 56,27 56,64l0 170c0,3 2,6 6,6l56 0z"/>
   <path id="17" class="fil0" d="M8211 11785c54,0 95,-21 120,-50 3,-3 3,-7 0,-9l-36 -32c-3,-2 -6,-1 -9,2 -15,15 -36,28 -69,28 -33,0 -56,-16 -66,-45 -2,-7 -4,-14 -4,-22 0,-3 1,-4 3,-4l181 0c5,0 7,-2 7,-6 0,-48 -3,-68 -10,-88 -16,-50 -60,-81 -120,-81 -59,0 -104,29 -120,81 -6,18 -10,42 -10,72 0,31 4,53 10,72 17,51 61,82 123,82zm58 -187c0,3 -1,4 -3,4l-116 0c-2,0 -3,-1 -3,-4 0,-10 1,-17 3,-25 8,-24 30,-38 58,-38 28,0 50,14 58,38 2,8 3,15 3,25z"/>
   <path id="18" class="fil0" d="M8653 11778c4,0 6,-3 6,-6l0 -185c0,-63 -39,-109 -102,-109 -39,0 -64,15 -77,34l-1 0 0 -22c0,-3 -2,-6 -6,-6l-56 0c-3,0 -6,3 -6,6l0 282c0,3 3,6 6,6l56 0c4,0 6,-3 6,-6l0 -170c0,-37 21,-64 56,-64 37,0 56,27 56,64l0 170c0,3 2,6 6,6l56 0z"/>
   <path id="19" class="fil0" d="M8860 11781c4,0 6,-2 6,-6l0 -48c0,-4 -2,-6 -6,-6l-15 0c-19,0 -28,-7 -28,-28l0 -152c0,-3 2,-4 4,-4l39 0c4,0 6,-2 6,-6l0 -41c0,-3 -2,-6 -6,-6l-39 0c-2,0 -4,-1 -4,-3l0 -81c0,-3 -2,-6 -6,-6l-56 0c-3,0 -6,3 -6,6l0 81c0,2 -1,3 -4,3l-19 0c-4,0 -6,3 -6,6l0 41c0,4 2,6 6,6l19 0c3,0 4,1 4,4l0 155c0,57 23,85 82,85l29 0z"/>
   <path class="fil1" d="M6659 10476c0,4 3,7 7,7l79 0c4,0 7,-3 7,-7l0 -436c0,-4 -3,-7 -7,-7l-74 0c-5,0 -9,2 -12,4l-75 55c-4,2 -5,5 -5,9l0 82c0,5 3,7 7,4l72 -49 1 0 0 338z"/>
   <path id="1" class="fil1" d="M6898 10353c0,83 65,137 152,137 88,0 152,-54 152,-137 0,-50 -25,-85 -53,-105l0 -1c21,-15 44,-48 44,-90 0,-69 -51,-131 -143,-131 -91,0 -142,62 -142,131 0,42 23,75 44,90l0 1c-29,20 -54,55 -54,105zm152 -144c-31,0 -51,-23 -51,-52 0,-29 20,-53 51,-53 31,0 52,24 52,53 0,29 -21,52 -52,52l0 0zm-60 141c0,-37 24,-63 60,-63 37,0 61,26 61,63 0,37 -24,62 -61,62 -36,0 -60,-25 -60,-62z"/>
   <path id="2" class="fil1" d="M7339 10484c-2,3 -1,6 3,6l55 0c5,0 8,-2 10,-6l262 -451c2,-3 1,-7 -3,-7l-56 0c-5,0 -8,2 -10,7l-261 451zm26 -219c42,0 74,-21 85,-54 5,-14 6,-23 6,-64 0,-42 -1,-51 -6,-65 -11,-33 -43,-54 -85,-54 -42,0 -74,21 -85,54 -5,14 -6,23 -6,65 0,41 1,50 6,64 11,33 43,54 85,54zm0 -52c-11,0 -20,-6 -23,-16 -2,-5 -3,-10 -3,-50 0,-41 1,-46 3,-51 3,-10 12,-16 23,-16 11,0 20,6 23,16 2,5 3,10 3,51 0,40 -1,45 -3,50 -3,10 -12,16 -23,16zm191 221c11,34 43,55 85,55 43,0 75,-21 86,-55 4,-13 6,-22 6,-63 0,-42 -2,-51 -6,-64 -11,-34 -43,-55 -86,-55 -42,0 -74,21 -85,55 -4,13 -6,22 -6,64 0,41 2,50 6,63zm62 -13c-2,-5 -2,-10 -2,-50 0,-41 0,-46 2,-51 4,-10 12,-15 23,-15 12,0 20,5 24,15 2,5 2,10 2,51 0,40 0,45 -2,50 -4,11 -12,16 -24,16 -11,0 -19,-5 -23,-16z"/>
   <path class="fil0" d="M1527 8776c0,4 3,6 6,6l60 0c4,0 6,-2 6,-6l0 -402c0,-4 -2,-6 -6,-6l-60 0c-3,0 -6,2 -6,6l0 402z"/>
   <path id="1" class="fil0" d="M1689 8687c21,68 74,102 144,102 66,0 116,-34 140,-89 1,-3 0,-6 -3,-8l-52 -25c-4,-1 -7,0 -8,3 -13,30 -36,54 -77,54 -40,0 -63,-21 -75,-55 -5,-17 -7,-33 -7,-94 0,-61 2,-77 7,-95 12,-33 35,-54 75,-54 41,0 64,24 77,53 1,3 4,5 8,3l52 -25c3,-1 4,-4 3,-7 -24,-55 -74,-89 -140,-89 -70,0 -123,34 -144,102 -8,25 -11,46 -11,112 0,66 3,86 11,112z"/>
   <path id="2" class="fil0" d="M2185 8789c72,0 126,-34 147,-100 9,-26 11,-49 11,-114 0,-65 -2,-88 -11,-114 -21,-66 -75,-100 -147,-100 -71,0 -124,34 -146,100 -8,26 -11,49 -11,114 0,65 3,88 11,114 22,66 75,100 146,100zm0 -65c-40,0 -65,-21 -76,-54 -5,-15 -8,-37 -8,-95 0,-59 3,-80 8,-95 11,-34 36,-54 76,-54 42,0 66,20 78,54 5,15 7,36 7,95 0,58 -2,80 -7,95 -12,33 -36,54 -78,54z"/>
   <path id="3" class="fil0" d="M2565 8687c21,68 73,102 144,102 66,0 116,-34 140,-89 1,-3 0,-6 -3,-8l-52 -25c-4,-1 -7,0 -8,3 -14,30 -37,54 -77,54 -40,0 -63,-21 -75,-55 -5,-17 -7,-33 -7,-94 0,-61 2,-77 7,-95 12,-33 35,-54 75,-54 40,0 63,24 77,53 1,3 4,5 8,3l52 -25c3,-1 4,-4 3,-7 -24,-55 -74,-89 -140,-89 -71,0 -123,34 -144,102 -9,25 -11,46 -11,112 0,66 2,86 11,112z"/>
   <path id="4" class="fil0" d="M3030 8789c59,0 104,-30 121,-81 6,-21 9,-41 9,-73 0,-32 -3,-52 -9,-72 -17,-51 -62,-81 -121,-81 -60,0 -105,30 -121,81 -7,20 -10,40 -10,72 0,32 3,52 10,73 16,51 61,81 121,81zm0 -61c-27,0 -47,-14 -55,-39 -5,-15 -6,-29 -6,-54 0,-25 1,-38 6,-54 8,-24 28,-38 55,-38 27,0 46,14 55,38 5,16 6,29 6,54 0,25 -1,39 -6,54 -9,25 -28,39 -55,39z"/>
   <path id="5" class="fil0" d="M3296 8782c3,0 6,-2 6,-6l0 -159c0,-47 17,-74 55,-74 16,0 30,5 43,14 3,2 6,1 9,-2l32 -40c3,-3 2,-6 -1,-9 -15,-15 -38,-24 -62,-24 -37,0 -62,15 -76,37l0 0 0 -24c0,-4 -3,-7 -6,-7l-56 0c-4,0 -7,3 -7,7l0 281c0,4 3,6 7,6l56 0z"/>
   <path id="6" class="fil0" d="M3602 8789c54,0 96,-21 121,-50 2,-3 2,-6 -1,-9l-36 -31c-3,-3 -6,-2 -9,1 -15,16 -36,28 -69,28 -33,0 -56,-16 -66,-45 -2,-6 -4,-14 -4,-22 0,-3 1,-4 4,-4l181 0c4,0 6,-2 6,-6 0,-47 -3,-68 -10,-88 -16,-50 -60,-81 -120,-81 -59,0 -104,30 -120,81 -6,19 -10,42 -10,72 0,31 4,53 11,72 16,51 60,82 122,82zm58 -187c0,3 -1,4 -3,4l-115 0c-3,0 -4,-1 -4,-4 0,-10 1,-17 4,-25 8,-23 29,-37 57,-37 28,0 50,14 58,37 2,8 3,15 3,25z"/>
   <path id="7" class="fil0" d="M2093 9374c4,0 7,-3 7,-6l0 -340c0,-2 1,-4 3,-4l109 0c3,0 6,-2 6,-6l0 -52c0,-4 -3,-6 -6,-6l-296 0c-4,0 -6,2 -6,6l0 52c0,4 2,6 6,6l108 0c2,0 4,2 4,4l0 340c0,3 2,6 6,6l59 0z"/>
   <path id="8" class="fil0" d="M2349 9381c54,0 95,-21 120,-50 3,-3 3,-6 0,-9l-36 -32c-3,-2 -6,-1 -9,2 -15,15 -36,28 -69,28 -33,0 -56,-16 -66,-45 -3,-6 -4,-14 -4,-22 0,-3 1,-4 3,-4l181 0c4,0 7,-2 7,-6 0,-48 -3,-68 -10,-88 -16,-50 -60,-81 -120,-81 -59,0 -104,29 -120,81 -6,19 -10,42 -10,72 0,31 4,53 10,72 17,51 60,82 123,82zm58 -187c0,3 -1,4 -4,4l-115 0c-2,0 -3,-1 -3,-4 0,-10 1,-17 3,-25 8,-24 30,-38 58,-38 28,0 49,14 57,38 3,8 4,15 4,25z"/>
   <path id="9" class="fil0" d="M2775 9374c4,0 6,-3 6,-6l0 -192c0,-72 -33,-102 -122,-102 -49,0 -81,11 -105,28 -2,2 -3,5 -1,8l23 40c2,3 5,4 8,2 14,-11 34,-21 67,-21 50,0 65,16 65,49l0 14c0,3 -1,4 -3,4l-60 0c-72,0 -117,29 -117,93 0,62 45,90 98,90 42,0 69,-14 83,-35l1 0 0 22c0,3 2,6 6,6l51 0zm-124 -49c-33,0 -50,-12 -50,-36 0,-28 19,-40 63,-40l49 0c2,0 3,1 3,4l0 22c0,34 -23,50 -65,50z"/>
   <path id="10" class="fil0" d="M3289 9374c4,0 6,-3 6,-6l0 -185c0,-63 -38,-109 -107,-109 -42,0 -71,14 -93,39l-1 0c-18,-25 -46,-39 -80,-39 -39,0 -65,15 -78,34l0 0 0 -22c0,-3 -3,-6 -6,-6l-56 0c-4,0 -7,3 -7,6l0 282c0,3 3,6 7,6l56 0c3,0 6,-3 6,-6l0 -170c0,-37 20,-63 56,-63 36,0 55,26 55,63l0 170c0,3 3,6 6,6l56 0c4,0 6,-3 6,-6l0 -170c0,-37 21,-63 56,-63 37,0 56,26 56,63l0 170c0,3 2,6 6,6l56 0z"/>
   <path class="fil0" d="M2173 4812c-47,0 -81,-32 -81,-89l0 -261c0,-4 -2,-7 -6,-7l-59 0c-4,0 -6,3 -6,7l0 262c0,96 65,152 152,152 88,0 153,-56 153,-152l0 -262c0,-4 -3,-7 -6,-7l-60 0c-4,0 -6,3 -6,7l0 261c0,57 -34,89 -81,89z"/>
   <path id="1" class="fil0" d="M2522 4876c80,0 123,-41 123,-99 0,-48 -29,-80 -91,-86l-32 -3c-37,-4 -48,-14 -48,-31 0,-18 16,-30 45,-30 29,0 58,11 77,24 3,2 6,2 8,-1l30 -36c2,-3 2,-6 -1,-9 -27,-20 -65,-36 -111,-36 -73,0 -113,36 -113,93 0,50 30,80 90,86l31 3c39,4 49,15 49,33 0,20 -18,34 -54,34 -31,0 -65,-14 -86,-33 -2,-2 -6,-2 -9,0l-34 36c-3,3 -3,7 0,9 24,23 66,46 126,46z"/>
   <path id="2" class="fil0" d="M2834 4876c54,0 95,-20 120,-50 3,-3 3,-6 0,-8l-36 -32c-3,-2 -6,-2 -9,1 -15,16 -36,28 -69,28 -33,0 -56,-15 -66,-44 -2,-7 -4,-14 -4,-23 0,-2 1,-3 3,-3l181 0c4,0 7,-3 7,-6 0,-48 -3,-68 -10,-89 -16,-50 -60,-81 -120,-81 -59,0 -104,30 -120,81 -6,19 -10,42 -10,73 0,30 4,53 10,72 17,51 61,81 123,81zm58 -186c0,2 -1,4 -4,4l-115 0c-2,0 -3,-2 -3,-4 0,-10 1,-18 3,-25 8,-24 30,-38 58,-38 28,0 50,14 57,38 3,7 4,15 4,25z"/>
   <path id="3" class="fil0" d="M3096 4870c4,0 6,-3 6,-7l0 -158c0,-47 17,-75 56,-75 15,0 29,6 43,14 3,3 6,2 8,-1l33 -41c2,-3 1,-5 -2,-8 -15,-16 -38,-25 -61,-25 -37,0 -62,16 -76,38l-1 0 0 -25c0,-4 -2,-6 -6,-6l-56 0c-4,0 -6,2 -6,6l0 281c0,4 2,7 6,7l56 0z"/>
   <path id="4" class="fil0" d="M1787 5436c4,0 7,-4 4,-8l-87 -169c48,-18 79,-60 79,-114 0,-73 -56,-123 -132,-123l-161 0c-3,0 -6,2 -6,6l0 402c0,3 3,6 6,6l60 0c4,0 6,-3 6,-6l0 -158c0,-3 1,-4 4,-4l71 0 79 162c2,4 5,6 9,6l68 0zm-139 -232l-88 0c-3,0 -4,-2 -4,-4l0 -110c0,-3 1,-4 4,-4l88 0c38,0 64,23 64,59 0,35 -26,59 -64,59z"/>
   <path id="5" class="fil0" d="M1969 5442c54,0 96,-20 121,-50 2,-3 2,-6 -1,-8l-36 -32c-3,-2 -6,-2 -9,1 -15,16 -36,28 -69,28 -33,0 -56,-15 -66,-44 -2,-7 -4,-14 -4,-23 0,-2 1,-3 4,-3l181 0c4,0 6,-3 6,-6 0,-48 -3,-68 -9,-89 -17,-50 -61,-81 -121,-81 -58,0 -103,30 -120,81 -6,19 -10,42 -10,73 0,30 5,53 11,72 16,51 60,81 122,81zm59 -186c0,2 -2,4 -4,4l-115 0c-3,0 -4,-2 -4,-4 0,-10 1,-18 4,-25 8,-24 30,-38 58,-38 27,0 49,14 57,38 2,7 4,15 4,25z"/>
   <path id="6" class="fil0" d="M2469 5436c4,0 6,-3 7,-6l93 -282c1,-3 -1,-6 -4,-6l-59 0c-4,0 -6,2 -8,6l-53 194 -1 0 -60 -194c-1,-3 -4,-6 -8,-6l-44 0c-4,0 -7,3 -8,6l-56 194 -1 0 -57 -194c-1,-4 -3,-6 -8,-6l-58 0c-4,0 -6,3 -4,6l92 282c1,3 4,6 8,6l50 0c3,0 6,-3 7,-6l57 -188 1 0 57 188c1,3 4,6 7,6l50 0z"/>
   <path id="7" class="fil0" d="M2850 5436c4,0 6,-3 6,-6l0 -192c0,-72 -32,-103 -122,-103 -48,0 -80,12 -104,29 -3,2 -3,5 -1,8l22 40c2,3 6,4 9,1 14,-11 34,-20 67,-20 49,0 65,15 65,49l0 14c0,2 -1,4 -4,4l-59 0c-73,0 -118,29 -118,93 0,61 45,89 99,89 41,0 69,-14 83,-34l0 0 0 22c0,3 3,6 6,6l51 0zm-123 -49c-33,0 -51,-12 -51,-37 0,-27 20,-39 64,-39l48 0c3,0 4,1 4,3l0 23c0,33 -23,50 -65,50z"/>
   <path id="8" class="fil0" d="M3005 5436c4,0 6,-3 6,-6l0 -159c0,-47 17,-75 56,-75 15,0 29,6 43,14 3,3 6,2 8,-1l33 -41c2,-3 1,-5 -2,-8 -15,-15 -38,-25 -61,-25 -37,0 -62,16 -76,38l-1 0 0 -25c0,-3 -2,-6 -6,-6l-56 0c-4,0 -6,3 -6,6l0 282c0,3 2,6 6,6l56 0z"/>
   <path id="9" class="fil0" d="M3432 5436c4,0 6,-3 6,-6l0 -402c0,-4 -2,-6 -6,-6l-56 0c-4,0 -6,2 -6,6l0 142 -1 0c-14,-20 -38,-35 -78,-35 -50,0 -86,24 -101,71 -8,23 -11,43 -11,83 0,39 3,60 11,83 15,47 51,70 101,70 40,0 64,-14 78,-34l1 0 0 22c0,3 2,6 6,6l56 0zm-123 -55c-27,0 -46,-13 -54,-37 -5,-14 -6,-28 -6,-55 0,-27 1,-42 6,-55 8,-24 27,-38 54,-38 28,0 47,14 55,38 4,13 6,28 6,55 0,27 -2,41 -6,55 -8,24 -27,37 -55,37z"/>
   <path id="10" class="fil0" d="M3635 5442c81,0 123,-40 123,-99 0,-48 -29,-80 -90,-86l-32 -3c-38,-3 -48,-14 -48,-31 0,-18 15,-30 44,-30 30,0 59,11 77,24 3,2 6,2 9,-1l29 -36c2,-3 2,-6 -1,-9 -26,-20 -64,-36 -110,-36 -73,0 -114,36 -114,93 0,50 31,80 90,86l32 4c38,3 49,14 49,32 0,20 -19,34 -55,34 -30,0 -64,-14 -85,-33 -3,-2 -7,-2 -9,0l-35 37c-2,2 -2,6 0,8 25,23 66,46 126,46z"/>
   <path class="fil1" d="M2120 4149c13,65 69,103 146,103 85,0 147,-55 147,-137 0,-59 -32,-96 -59,-109l0 -1c32,-21 50,-54 50,-93 0,-72 -51,-124 -139,-124 -79,0 -130,44 -140,103 -1,4 1,7 5,7l72 14c4,1 7,0 8,-4 7,-25 22,-42 51,-42 32,0 51,21 51,53 0,34 -22,56 -56,56l-18 0c-4,0 -6,3 -6,7l0 64c0,4 2,7 6,7l20 0c38,0 62,23 62,63 0,34 -21,58 -55,58 -32,0 -51,-18 -59,-42 -1,-4 -4,-6 -8,-5l-73 13c-4,2 -6,5 -5,9z"/>
   <path id="1" class="fil1" d="M2499 4160c18,58 65,92 135,92 71,0 117,-34 136,-92 7,-20 10,-40 10,-140 0,-100 -3,-120 -10,-140 -19,-58 -65,-92 -136,-92 -70,0 -117,34 -135,92 -7,20 -10,40 -10,140 0,100 3,120 10,140zm90 -16c-4,-12 -5,-25 -5,-124 0,-98 1,-112 5,-124 6,-20 22,-30 45,-30 24,0 39,10 46,30 4,12 5,26 5,124 0,99 -1,112 -5,124 -7,20 -22,30 -46,30 -23,0 -39,-10 -45,-30z"/>
   <path id="2" class="fil1" d="M2923 4246c-2,3 -1,6 3,6l55 0c5,0 8,-2 10,-6l262 -451c2,-4 1,-7 -3,-7l-56 0c-5,0 -7,2 -10,7l-261 451zm26 -219c42,0 74,-21 85,-55 5,-13 6,-22 6,-64 0,-41 -1,-51 -6,-64 -11,-33 -43,-54 -85,-54 -42,0 -74,21 -85,54 -5,13 -6,23 -6,64 0,42 1,51 6,64 11,34 43,55 85,55zm0 -53c-11,0 -20,-5 -23,-15 -2,-5 -3,-10 -3,-51 0,-40 1,-45 3,-51 3,-9 12,-15 23,-15 11,0 20,6 23,15 2,6 3,11 3,51 0,41 -1,46 -3,51 -3,10 -12,15 -23,15zm191 222c11,34 43,55 86,55 42,0 74,-21 85,-55 4,-13 6,-23 6,-63 0,-42 -2,-51 -6,-65 -11,-33 -43,-54 -85,-54 -43,0 -75,21 -86,54 -4,14 -6,23 -6,65 0,40 2,50 6,63zm62 -13c-2,-5 -2,-10 -2,-50 0,-41 0,-46 2,-51 4,-10 12,-16 24,-16 11,0 19,6 23,16 2,5 2,10 2,51 0,40 0,45 -2,50 -4,10 -12,16 -23,16 -12,0 -20,-6 -24,-16z"/>
   <path class="fil16" d="M3545 7863l1465 0 0 45 -1465 0 0 -45z"/>
   <path class="fil17" d="M7285 8866l0 968 -45 0 0 -968 45 0z"/>
   <path class="fil1" d="M2229 8124c0,4 3,7 7,7l79 0c4,0 7,-3 7,-7l0 -436c0,-4 -3,-7 -7,-7l-74 0c-4,0 -8,2 -12,4l-75 55c-3,2 -5,5 -5,9l0 82c0,5 4,7 8,4l71 -49 1 0 0 338z"/>
   <path id="1" class="fil1" d="M2484 8039c8,59 61,99 138,99 64,0 115,-29 133,-84 6,-18 10,-41 10,-70 0,-37 -3,-58 -9,-76 -17,-51 -59,-76 -116,-76 -34,0 -56,11 -67,21l-2 0 0 -89c0,-3 1,-4 3,-4l173 0c4,0 7,-2 7,-6l0 -66c0,-4 -3,-7 -7,-7l-251 0c-4,0 -7,3 -7,7l0 247c0,4 3,7 7,7l71 0c4,0 6,-2 8,-7 7,-13 21,-25 46,-25 22,0 39,8 47,31 4,10 5,22 5,44 0,20 -1,33 -5,44 -7,21 -25,31 -47,31 -29,0 -45,-16 -52,-37 -2,-4 -4,-6 -8,-5l-72 14c-4,1 -6,4 -5,7l0 0z"/>
   <path id="2" class="fil1" d="M2909 8132c-2,3 -1,6 3,6l55 0c6,0 8,-2 11,-6l261 -451c2,-4 1,-7 -3,-7l-55 0c-5,0 -8,2 -11,7l-261 451zm27 -219c42,0 74,-21 85,-54 4,-14 6,-23 6,-64 0,-42 -2,-51 -6,-65 -11,-33 -43,-54 -85,-54 -43,0 -75,21 -86,54 -4,14 -6,23 -6,65 0,41 2,50 6,64 11,33 43,54 86,54zm0 -52c-12,0 -20,-6 -24,-16 -2,-5 -2,-10 -2,-50 0,-41 0,-46 2,-51 4,-10 12,-16 24,-16 11,0 19,6 23,16 2,5 2,10 2,51 0,40 0,45 -2,50 -4,10 -12,16 -23,16zm191 221c11,34 42,55 85,55 42,0 74,-21 85,-55 4,-13 6,-22 6,-63 0,-42 -2,-51 -6,-64 -11,-34 -43,-55 -85,-55 -43,0 -74,21 -85,55 -5,13 -6,22 -6,64 0,41 1,50 6,63zm62 -13c-2,-5 -3,-10 -3,-50 0,-41 1,-46 3,-51 3,-10 12,-15 23,-15 11,0 20,5 23,15 2,5 3,10 3,51 0,40 -1,45 -3,50 -3,10 -12,16 -23,16 -11,0 -20,-6 -23,-16z"/>
   <path class="fil18" d="M11068 8299l-1981 0 0 45 1981 0 0 -45z"/>
   <g>
    <path class="fil0" d="M14642 6137c0,4 2,7 6,7l273 0c4,0 6,-3 6,-7l0 -55c0,-4 -2,-6 -6,-6l-200 0c-2,0 -4,-1 -4,-4l0 -110c0,-3 2,-4 4,-4l168 0c4,0 7,-2 7,-6l0 -55c0,-4 -3,-7 -7,-7l-168 0c-2,0 -4,-1 -4,-4l0 -106c0,-2 2,-4 4,-4l200 0c4,0 6,-2 6,-6l0 -55c0,-4 -2,-6 -6,-6l-273 0c-4,0 -6,2 -6,6l0 422z"/>
    <path id="1" class="fil0" d="M15125 6151c47,0 83,-19 107,-48 2,-3 3,-6 0,-9l-41 -35c-3,-2 -6,-2 -9,1 -15,17 -31,27 -57,27 -27,0 -48,-14 -57,-40 -5,-15 -6,-34 -6,-58 0,-23 1,-41 6,-56 9,-27 30,-41 57,-41 26,0 42,10 57,27 3,3 6,4 9,1l41 -35c3,-2 2,-6 0,-9 -24,-29 -60,-48 -107,-48 -62,0 -109,30 -127,85 -6,20 -9,44 -9,76 0,33 3,57 9,77 18,55 65,85 127,85z"/>
    <path id="2" class="fil0" d="M15430 6151c62,0 109,-32 127,-85 7,-22 10,-43 10,-77 0,-33 -3,-54 -10,-76 -18,-53 -65,-85 -127,-85 -63,0 -110,32 -127,85 -7,22 -11,43 -11,76 0,34 4,55 11,77 17,53 64,85 127,85zm0 -64c-29,0 -49,-15 -58,-41 -5,-16 -7,-30 -7,-57 0,-26 2,-40 7,-56 9,-26 29,-41 58,-41 29,0 49,15 58,41 5,16 6,30 6,56 0,27 -1,41 -6,57 -9,26 -29,41 -58,41z"/>
    <path id="3" class="fil0" d="M15758 6151c84,0 129,-43 129,-105 0,-50 -31,-83 -96,-90l-33 -3c-39,-4 -50,-15 -50,-33 0,-18 16,-32 46,-32 31,0 62,13 81,26 3,2 6,2 9,-1l31 -38c2,-3 2,-6 -1,-9 -28,-22 -68,-38 -116,-38 -77,0 -119,38 -119,97 0,53 32,85 94,91l34 4c40,3 51,15 51,33 0,22 -20,37 -57,37 -32,0 -68,-15 -90,-35 -3,-3 -7,-3 -9,0l-37 38c-2,3 -2,6 0,9 26,24 69,49 133,49z"/>
    <path id="4" class="fil0" d="M15993 6259c51,0 77,-23 104,-96l117 -321c2,-4 -1,-7 -5,-7l-61 0c-3,0 -6,3 -7,7l-67 201 -1 0 -70 -201c-1,-4 -4,-7 -7,-7l-64 0c-4,0 -6,3 -5,7l113 290 -9 26c-10,26 -22,37 -46,37l-12 0c-4,0 -6,2 -6,6l0 51c0,4 2,7 6,7l20 0z"/>
    <path id="5" class="fil0" d="M16380 6151c84,0 129,-43 129,-105 0,-50 -30,-83 -95,-90l-33 -3c-40,-4 -51,-15 -51,-33 0,-18 16,-32 47,-32 31,0 61,13 80,26 4,2 7,2 9,-1l32 -38c2,-3 2,-6 -2,-9 -27,-22 -67,-38 -115,-38 -77,0 -120,38 -120,97 0,53 32,85 95,91l33 4c40,3 51,15 51,33 0,22 -19,37 -57,37 -32,0 -68,-15 -90,-35 -3,-3 -6,-3 -9,0l-36 38c-3,3 -3,6 0,9 25,24 69,49 132,49z"/>
    <path id="6" class="fil0" d="M16706 6147c3,0 6,-2 6,-6l0 -51c0,-4 -3,-7 -6,-7l-16 0c-20,0 -29,-7 -29,-28l0 -160c0,-3 1,-4 4,-4l41 0c3,0 6,-3 6,-6l0 -43c0,-4 -3,-7 -6,-7l-41 0c-3,0 -4,-1 -4,-4l0 -84c0,-4 -3,-6 -7,-6l-58 0c-4,0 -7,2 -7,6l0 84c0,3 -1,4 -4,4l-20 0c-4,0 -6,3 -6,7l0 43c0,3 2,6 6,6l20 0c3,0 4,1 4,4l0 162c0,60 24,90 86,90l31 0z"/>
    <path id="7" class="fil0" d="M16913 6151c57,0 100,-22 127,-53 2,-3 2,-6 -1,-9l-38 -33c-3,-3 -6,-2 -9,1 -16,17 -38,30 -73,30 -34,0 -59,-17 -69,-47 -2,-7 -4,-15 -4,-24 0,-2 1,-4 4,-4l190 0c4,0 7,-2 7,-6 0,-50 -4,-71 -11,-93 -17,-52 -63,-85 -126,-85 -62,0 -109,32 -126,85 -7,20 -11,44 -11,76 0,32 5,56 11,76 18,54 64,86 129,86zm61 -196c0,2 -1,4 -4,4l-120 0c-3,0 -4,-2 -4,-4 0,-11 1,-19 4,-26 8,-25 31,-40 60,-40 29,0 52,15 60,40 3,7 4,15 4,26z"/>
    <path id="8" class="fil0" d="M17566 6144c4,0 6,-3 6,-7l0 -194c0,-66 -40,-115 -111,-115 -45,0 -75,16 -99,41l-1 0c-18,-26 -48,-41 -84,-41 -41,0 -68,17 -81,36l-1 0 0 -22c0,-4 -3,-7 -6,-7l-59 0c-4,0 -7,3 -7,7l0 295c0,4 3,7 7,7l59 0c3,0 6,-3 6,-7l0 -178c0,-39 22,-67 59,-67 38,0 58,28 58,67l0 178c0,4 3,7 7,7l58 0c4,0 7,-3 7,-7l0 -178c0,-39 22,-67 59,-67 38,0 58,28 58,67l0 178c0,4 2,7 6,7l59 0z"/>
    <path id="9" class="fil0" d="M17815 6137c0,4 3,7 6,7l156 0c75,0 125,-34 145,-97 7,-22 11,-45 11,-121 0,-75 -4,-99 -11,-121 -20,-63 -70,-96 -145,-96l-156 0c-3,0 -6,2 -6,6l0 422zm75 -65l0 -292c0,-2 2,-4 4,-4l65 0c48,0 77,16 90,55 5,13 8,32 8,95 0,63 -3,83 -8,95 -13,39 -42,55 -90,55l-65 0c-2,0 -4,-1 -4,-4z"/>
    <path id="10" class="fil0" d="M18336 6151c57,0 101,-22 127,-53 3,-3 3,-6 -1,-9l-37 -33c-4,-3 -7,-2 -10,1 -15,17 -38,30 -72,30 -35,0 -59,-17 -69,-47 -3,-7 -5,-15 -5,-24 0,-2 1,-4 4,-4l190 0c4,0 7,-2 7,-6 0,-50 -3,-71 -10,-93 -17,-52 -64,-85 -127,-85 -61,0 -109,32 -126,85 -6,20 -10,44 -10,76 0,32 4,56 11,76 17,54 63,86 128,86zm62 -196c0,2 -2,4 -4,4l-121 0c-3,0 -4,-2 -4,-4 0,-11 1,-19 4,-26 8,-25 31,-40 61,-40 29,0 52,15 60,40 2,7 4,15 4,26z"/>
    <path id="11" class="fil0" d="M18681 6144c5,0 7,-3 8,-7l109 -295c1,-4 -1,-7 -5,-7l-61 0c-4,0 -7,3 -8,7l-67 200 -1 0 -68 -200c-1,-4 -3,-7 -7,-7l-63 0c-4,0 -6,3 -5,7l109 295c1,4 3,7 8,7l51 0z"/>
    <path id="12" class="fil0" d="M18977 6151c57,0 100,-22 126,-53 3,-3 3,-6 0,-9l-38 -33c-3,-3 -6,-2 -10,1 -15,17 -37,30 -72,30 -34,0 -59,-17 -69,-47 -3,-7 -4,-15 -4,-24 0,-2 1,-4 3,-4l190 0c5,0 7,-2 7,-6 0,-50 -3,-71 -10,-93 -17,-52 -63,-85 -126,-85 -62,0 -109,32 -127,85 -6,20 -10,44 -10,76 0,32 5,56 11,76 17,54 63,86 129,86zm61 -196c0,2 -1,4 -4,4l-121 0c-2,0 -3,-2 -3,-4 0,-11 1,-19 3,-26 9,-25 32,-40 61,-40 29,0 52,15 60,40 3,7 4,15 4,26z"/>
    <path id="13" class="fil0" d="M19298 6147c4,0 7,-2 7,-6l0 -51c0,-4 -3,-7 -7,-7l-14 0c-18,0 -26,-7 -26,-28l0 -340c0,-4 -3,-6 -7,-6l-59 0c-4,0 -6,2 -6,6l0 344c0,60 24,88 84,88l28 0z"/>
    <path id="14" class="fil0" d="M19494 6151c62,0 110,-32 127,-85 7,-22 10,-43 10,-77 0,-33 -3,-54 -10,-76 -17,-53 -65,-85 -127,-85 -62,0 -110,32 -127,85 -7,22 -10,43 -10,76 0,34 3,55 10,77 17,53 65,85 127,85zm0 -64c-29,0 -49,-15 -58,-41 -5,-16 -6,-30 -6,-57 0,-26 1,-40 6,-56 9,-26 29,-41 58,-41 29,0 49,15 58,41 5,16 6,30 6,56 0,27 -1,41 -6,57 -9,26 -29,41 -58,41z"/>
    <path id="15" class="fil0" d="M19773 6259c4,0 7,-3 7,-7l0 -138 0 0c15,21 41,37 82,37 53,0 91,-25 107,-75 8,-23 11,-45 11,-87 0,-41 -3,-63 -11,-87 -16,-49 -54,-74 -107,-74 -41,0 -67,16 -82,37l0 0 0 -23c0,-4 -3,-7 -7,-7l-59 0c-4,0 -6,3 -6,7l0 410c0,4 2,7 6,7l59 0zm71 -172c-30,0 -50,-14 -58,-40 -5,-14 -6,-29 -6,-58 0,-28 1,-43 6,-57 8,-26 28,-40 58,-40 28,0 48,14 56,40 5,14 7,29 7,57 0,29 -2,44 -7,58 -8,26 -28,40 -56,40z"/>
    <path id="16" class="fil0" d="M20499 6144c4,0 7,-3 7,-7l0 -194c0,-66 -41,-115 -112,-115 -44,0 -75,16 -99,41l0 0c-19,-26 -48,-41 -85,-41 -41,0 -68,17 -81,36l-1 0 0 -22c0,-4 -2,-7 -6,-7l-59 0c-4,0 -6,3 -6,7l0 295c0,4 2,7 6,7l59 0c4,0 6,-3 6,-7l0 -178c0,-39 22,-67 59,-67 38,0 58,28 58,67l0 178c0,4 3,7 7,7l59 0c3,0 6,-3 6,-7l0 -178c0,-39 22,-67 59,-67 38,0 58,28 58,67l0 178c0,4 3,7 6,7l59 0z"/>
    <path id="17" class="fil0" d="M20719 6151c57,0 100,-22 126,-53 3,-3 3,-6 0,-9l-38 -33c-3,-3 -6,-2 -10,1 -15,17 -37,30 -72,30 -34,0 -59,-17 -69,-47 -3,-7 -4,-15 -4,-24 0,-2 1,-4 3,-4l190 0c5,0 7,-2 7,-6 0,-50 -3,-71 -10,-93 -17,-52 -63,-85 -127,-85 -61,0 -108,32 -126,85 -6,20 -10,44 -10,76 0,32 5,56 11,76 17,54 63,86 129,86zm61 -196c0,2 -1,4 -4,4l-121 0c-2,0 -3,-2 -3,-4 0,-11 1,-19 3,-26 9,-25 32,-40 61,-40 29,0 52,15 60,40 3,7 4,15 4,26z"/>
    <path id="18" class="fil0" d="M21183 6144c4,0 7,-3 7,-7l0 -194c0,-66 -41,-115 -107,-115 -41,0 -68,17 -82,36l0 0 0 -22c0,-4 -3,-7 -7,-7l-58 0c-4,0 -7,3 -7,7l0 295c0,4 3,7 7,7l58 0c4,0 7,-3 7,-7l0 -178c0,-39 22,-67 59,-67 38,0 58,28 58,67l0 178c0,4 2,7 6,7l59 0z"/>
    <path id="19" class="fil0" d="M21401 6147c3,0 6,-2 6,-6l0 -51c0,-4 -3,-7 -6,-7l-16 0c-20,0 -29,-7 -29,-28l0 -160c0,-3 1,-4 4,-4l41 0c3,0 6,-3 6,-6l0 -43c0,-4 -3,-7 -6,-7l-41 0c-3,0 -4,-1 -4,-4l0 -84c0,-4 -3,-6 -7,-6l-58 0c-4,0 -7,2 -7,6l0 84c0,3 -1,4 -4,4l-20 0c-4,0 -6,3 -6,7l0 43c0,3 2,6 6,6l20 0c3,0 4,1 4,4l0 162c0,60 24,90 86,90l31 0z"/>
    <path class="fil0" d="M16055 6698c0,67 41,116 121,116 44,0 76,-16 113,-54l11 13c21,27 34,34 63,34l21 0c4,0 6,-2 6,-6l0 -51c0,-4 -2,-7 -6,-7l-10 0c-10,0 -18,-4 -26,-14l-15 -19 51 -62c3,-3 2,-7 -1,-9l-35 -30c-4,-3 -7,-3 -9,1l-44 51 -68 -87c57,-43 76,-71 76,-111 0,-52 -42,-98 -106,-98 -61,0 -109,42 -109,100 0,32 14,54 49,100 -61,48 -82,87 -82,133zm135 -172c-29,-38 -34,-48 -34,-63 0,-22 17,-39 41,-39 23,0 41,17 41,38 0,19 -8,32 -48,64l0 0zm-69 168c0,-24 12,-49 54,-81l77 99c-29,31 -48,40 -71,40 -37,0 -60,-24 -60,-58z"/>
    <path id="1" class="fil0" d="M16784 6746c-49,0 -85,-33 -85,-93l0 -274c0,-4 -2,-7 -6,-7l-63 0c-3,0 -6,3 -6,7l0 275c0,101 68,160 160,160 92,0 160,-59 160,-160l0 -275c0,-4 -2,-7 -6,-7l-63 0c-3,0 -6,3 -6,7l0 274c0,60 -35,93 -85,93z"/>
    <path id="2" class="fil0" d="M17150 6814c85,0 130,-43 130,-104 0,-51 -31,-84 -96,-90l-33 -3c-40,-4 -50,-15 -50,-33 0,-19 16,-32 46,-32 31,0 62,12 81,26 3,1 6,1 9,-2l31 -38c2,-2 2,-6 -1,-8 -28,-22 -68,-38 -116,-38 -77,0 -120,38 -120,97 0,52 32,84 95,91l33 3c41,4 52,15 52,34 0,21 -20,36 -57,36 -32,0 -68,-14 -91,-35 -2,-2 -6,-2 -8,0l-37 39c-3,2 -3,6 0,9 26,23 69,48 132,48z"/>
    <path id="3" class="fil0" d="M17478 6814c57,0 100,-22 127,-52 2,-3 2,-7 -1,-9l-38 -33c-3,-3 -6,-2 -9,1 -16,16 -38,29 -73,29 -34,0 -58,-16 -69,-46 -2,-7 -4,-15 -4,-24 0,-3 1,-4 4,-4l190 0c4,0 7,-3 7,-6 0,-50 -3,-71 -11,-93 -17,-53 -63,-85 -126,-85 -62,0 -109,31 -126,85 -7,20 -10,44 -10,76 0,32 4,56 10,75 18,54 64,86 129,86zm61 -196c0,3 -1,4 -3,4l-121 0c-3,0 -4,-1 -4,-4 0,-10 1,-18 4,-26 8,-25 31,-39 60,-39 29,0 52,14 61,39 2,8 3,16 3,26z"/>
    <path id="4" class="fil0" d="M17754 6807c4,0 6,-2 6,-6l0 -167c0,-49 18,-78 58,-78 17,0 32,6 46,14 3,3 6,2 9,-1l34 -43c2,-3 2,-5 -2,-9 -16,-16 -40,-25 -64,-25 -39,0 -65,16 -80,39l-1 0 0 -26c0,-4 -2,-6 -6,-6l-59 0c-4,0 -7,2 -7,6l0 296c0,4 3,6 7,6l59 0z"/>
    <path id="5" class="fil0" d="M18429 6807c5,0 7,-4 5,-8l-92 -177c50,-19 83,-63 83,-120 0,-77 -59,-130 -139,-130l-168 0c-4,0 -7,3 -7,7l0 422c0,4 3,6 7,6l62 0c4,0 7,-2 7,-6l0 -166c0,-2 1,-4 4,-4l75 0 83 170c2,4 4,6 9,6l71 0zm-146 -244l-92 0c-3,0 -4,-1 -4,-3l0 -116c0,-3 1,-4 4,-4l92 0c40,0 67,24 67,62 0,37 -27,61 -67,61z"/>
    <path id="6" class="fil0" d="M18621 6814c57,0 100,-22 126,-52 3,-3 3,-7 0,-9l-38 -33c-3,-3 -7,-2 -10,1 -15,16 -37,29 -72,29 -35,0 -59,-16 -69,-46 -3,-7 -5,-15 -5,-24 0,-3 2,-4 4,-4l190 0c5,0 7,-3 7,-6 0,-50 -3,-71 -10,-93 -17,-53 -63,-85 -127,-85 -61,0 -108,31 -126,85 -6,20 -10,44 -10,76 0,32 5,56 11,75 17,54 63,86 129,86zm61 -196c0,3 -1,4 -4,4l-121 0c-2,0 -4,-1 -4,-4 0,-10 2,-18 4,-26 9,-25 32,-39 61,-39 29,0 52,14 60,39 3,8 4,16 4,26z"/>
    <path id="7" class="fil0" d="M19146 6807c4,0 6,-2 7,-6l98 -296c1,-4 -1,-6 -5,-6l-61 0c-5,0 -7,2 -8,6l-57 204 -1 0 -63 -204c-1,-4 -4,-6 -8,-6l-46 0c-4,0 -7,2 -8,6l-59 204 -2 0 -59 -204c-1,-4 -4,-6 -8,-6l-62 0c-4,0 -6,2 -4,6l97 296c1,4 4,6 8,6l52 0c4,0 6,-2 8,-6l60 -197 1 0 60 197c1,4 4,6 7,6l53 0z"/>
    <path id="8" class="fil0" d="M19546 6807c4,0 7,-2 7,-6l0 -202c0,-75 -35,-107 -129,-107 -50,0 -84,12 -109,30 -3,2 -3,5 -2,8l24 42c2,4 6,4 9,2 15,-12 36,-21 70,-21 52,0 69,16 69,51l0 14c0,3 -1,4 -4,4l-63 0c-76,0 -123,31 -123,98 0,65 47,94 103,94 44,0 73,-14 88,-36l0 0 0 23c0,4 3,6 7,6l53 0zm-130 -51c-34,0 -53,-13 -53,-38 0,-29 21,-42 67,-42l51 0c3,0 4,1 4,4l0 24c0,35 -24,52 -69,52z"/>
    <path id="9" class="fil0" d="M19709 6807c4,0 6,-2 6,-6l0 -167c0,-49 18,-78 58,-78 17,0 32,6 46,14 3,3 6,2 9,-1l34 -43c2,-3 2,-5 -2,-9 -16,-16 -40,-25 -64,-25 -39,0 -65,16 -80,39l-1 0 0 -26c0,-4 -2,-6 -6,-6l-59 0c-4,0 -6,2 -6,6l0 296c0,4 2,6 6,6l59 0z"/>
    <path id="10" class="fil0" d="M20157 6807c4,0 7,-2 7,-6l0 -422c0,-4 -3,-7 -7,-7l-59 0c-3,0 -6,3 -6,7l0 149 -1 0c-14,-21 -40,-36 -82,-36 -52,0 -90,25 -106,74 -8,24 -11,45 -11,87 0,42 3,63 11,87 16,49 54,74 106,74 42,0 68,-15 82,-36l1 0 0 23c0,4 3,6 6,6l59 0zm-129 -57c-29,0 -49,-14 -57,-39 -4,-14 -6,-30 -6,-58 0,-28 2,-43 6,-58 8,-25 28,-39 57,-39 29,0 49,14 58,39 4,15 6,30 6,58 0,28 -2,44 -6,58 -9,25 -29,39 -58,39z"/>
    <path id="11" class="fil0" d="M20371 6814c84,0 129,-43 129,-104 0,-51 -31,-84 -95,-90l-33 -3c-40,-4 -51,-15 -51,-33 0,-19 16,-32 47,-32 30,0 61,12 80,26 4,1 7,1 9,-2l32 -38c2,-2 2,-6 -2,-8 -27,-22 -67,-38 -115,-38 -77,0 -120,38 -120,97 0,52 32,84 95,91l33 3c40,4 51,15 51,34 0,21 -19,36 -57,36 -32,0 -68,-14 -90,-35 -3,-2 -7,-2 -9,0l-37 39c-2,2 -2,6 0,9 26,23 70,48 133,48z"/>
   </g>
   <g>
    <g>
     <path class="fil8" d="M18024 7215c-1036,0 -1876,840 -1876,1876 0,1036 840,1876 1876,1876 1037,0 1877,-840 1877,-1876 0,-1036 -840,-1876 -1877,-1876z"/>
     <path class="fil12" d="M18024 10527c793,0 1436,-643 1436,-1436 0,-793 -643,-1436 -1436,-1436 -793,0 -1435,643 -1435,1436 0,793 642,1436 1435,1436z"/>
     <path class="fil13" d="M17144 8846l-101 -430 90 0 63 295 79 -295 103 0 75 300 65 -300 87 0 -103 430 -93 0 -84 -321 -86 321 -95 0z"/>
     <path id="1" class="fil13" d="M17689 8630l-74 -13c8,-30 23,-53 43,-67 21,-15 51,-22 92,-22 36,0 64,4 82,13 17,9 30,19 37,33 8,13 11,38 11,74l-1 95c0,28 1,48 4,61 3,13 8,27 15,42l-82 0c-2,-6 -5,-14 -8,-24 -1,-5 -2,-9 -3,-10 -14,14 -29,24 -44,31 -16,7 -33,10 -52,10 -31,0 -57,-8 -75,-26 -18,-17 -28,-39 -28,-66 0,-17 5,-33 13,-47 8,-13 20,-24 35,-31 15,-7 37,-14 66,-19 38,-7 65,-14 79,-20l0 -9c0,-16 -3,-27 -11,-34 -8,-7 -23,-10 -45,-10 -14,0 -26,3 -34,9 -8,5 -15,16 -20,30zm110 67c-10,3 -27,8 -50,12 -22,5 -37,10 -44,15 -11,7 -16,17 -16,29 0,11 4,21 12,30 9,8 20,12 33,12 15,0 29,-5 43,-14 10,-8 16,-17 19,-28 2,-7 3,-20 3,-40l0 -16z"/>
     <path id="2" class="fil13" d="M18040 8846l-82 0 0 -312 76 0 0 45c13,-21 25,-35 35,-41 11,-7 23,-10 36,-10 19,0 37,5 54,15l-25 72c-14,-9 -27,-13 -39,-13 -11,0 -21,3 -29,9 -8,6 -15,18 -19,34 -5,17 -7,52 -7,105l0 96z"/>
     <path id="3" class="fil13" d="M18189 8534l75 0 0 43c27,-33 60,-49 97,-49 20,0 37,4 52,12 14,8 26,21 36,37 13,-16 28,-29 44,-37 16,-8 33,-12 51,-12 22,0 42,4 58,14 15,9 27,23 35,41 6,13 8,34 8,64l0 199 -82 0 0 -178c0,-31 -2,-51 -8,-60 -8,-11 -20,-17 -35,-17 -12,0 -23,3 -33,10 -10,7 -17,18 -22,31 -4,14 -7,35 -7,64l0 150 -82 0 0 -171c0,-30 -1,-49 -4,-58 -3,-9 -7,-16 -14,-20 -6,-4 -14,-6 -25,-6 -12,0 -24,3 -34,10 -10,7 -17,17 -22,30 -4,12 -6,34 -6,64l0 151 -82 0 0 -312z"/>
     <path id="4" class="fil13" d="M18789 8630l-74 -13c8,-30 22,-53 43,-67 20,-15 51,-22 91,-22 37,0 64,4 82,13 18,9 31,19 38,33 7,13 11,38 11,74l-1 95c0,28 1,48 4,61 2,13 7,27 14,42l-81 0c-2,-6 -5,-14 -8,-24 -1,-5 -2,-9 -3,-10 -14,14 -29,24 -45,31 -16,7 -33,10 -51,10 -32,0 -57,-8 -75,-26 -19,-17 -28,-39 -28,-66 0,-17 4,-33 13,-47 8,-13 20,-24 35,-31 15,-7 37,-14 65,-19 39,-7 65,-14 80,-20l0 -9c0,-16 -4,-27 -12,-34 -7,-7 -22,-10 -44,-10 -15,0 -26,3 -34,9 -8,5 -15,16 -20,30zm110 67c-10,3 -27,8 -50,12 -23,5 -38,10 -45,15 -10,7 -16,17 -16,29 0,11 5,21 13,30 9,8 20,12 33,12 15,0 29,-5 42,-14 10,-8 17,-17 20,-28 2,-7 3,-20 3,-40l0 -16z"/>
     <path id="5" class="fil19" d="M16799 9362c0,3 2,5 5,5l120 0c58,0 96,-26 112,-75 6,-17 9,-35 9,-93 0,-59 -3,-77 -9,-94 -16,-49 -54,-75 -112,-75l-120 0c-3,0 -5,2 -5,5l0 327zm58 -50l0 -226c0,-2 1,-3 3,-3l50 0c37,0 60,12 70,42 3,10 6,25 6,74 0,48 -3,64 -6,73 -10,30 -33,43 -70,43l-50 0c-2,0 -3,-1 -3,-3z"/>
     <path id="6" class="fil19" d="M17158 9083c3,0 5,-2 5,-5l0 -43c0,-3 -2,-5 -5,-5l-46 0c-3,0 -5,2 -5,5l0 43c0,3 2,5 5,5l46 0zm0 284c3,0 5,-2 5,-5l0 -229c0,-3 -2,-5 -5,-5l-46 0c-3,0 -5,2 -5,5l0 229c0,3 2,5 5,5l46 0z"/>
     <path id="7" class="fil19" d="M17323 9373c65,0 100,-34 100,-81 0,-39 -24,-65 -74,-70l-25 -2c-31,-3 -40,-12 -40,-26 0,-14 13,-25 37,-25 23,0 47,10 62,20 2,2 5,2 7,-1l24 -29c2,-2 2,-5 -1,-7 -21,-17 -52,-29 -89,-29 -60,0 -93,29 -93,75 0,41 25,66 73,71l26 2c31,3 40,12 40,26 0,17 -15,28 -45,28 -24,0 -52,-11 -69,-27 -2,-2 -5,-2 -7,0l-28 30c-2,2 -2,5 0,7 19,18 53,38 102,38z"/>
     <path id="8" class="fil19" d="M17575 9370c3,0 5,-2 5,-5l0 -40c0,-2 -2,-4 -5,-4l-12 0c-16,0 -23,-6 -23,-23l0 -124c0,-2 1,-3 3,-3l32 0c3,0 5,-2 5,-4l0 -34c0,-3 -2,-5 -5,-5l-32 0c-2,0 -3,-1 -3,-3l0 -65c0,-3 -2,-5 -5,-5l-45 0c-3,0 -5,2 -5,5l0 65c0,2 -1,3 -3,3l-16 0c-3,0 -5,2 -5,5l0 34c0,2 2,4 5,4l16 0c2,0 3,1 3,3l0 126c0,47 18,70 66,70l24 0z"/>
     <path id="9" class="fil19" d="M17691 9367c3,0 5,-2 5,-5l0 -129c0,-38 14,-61 45,-61 13,0 24,5 35,12 3,2 5,1 7,-1l26 -33c2,-3 2,-5 -1,-7 -12,-13 -31,-20 -50,-20 -30,0 -50,12 -62,31l0 0 0 -21c0,-3 -2,-5 -5,-5l-46 0c-3,0 -5,2 -5,5l0 229c0,3 2,5 5,5l46 0z"/>
     <path id="10" class="fil19" d="M17900 9083c3,0 5,-2 5,-5l0 -43c0,-3 -2,-5 -5,-5l-45 0c-3,0 -5,2 -5,5l0 43c0,3 2,5 5,5l45 0zm0 284c3,0 5,-2 5,-5l0 -229c0,-3 -2,-5 -5,-5l-45 0c-3,0 -5,2 -5,5l0 229c0,3 2,5 5,5l45 0z"/>
     <path id="11" class="fil19" d="M18097 9373c41,0 70,-20 83,-58 6,-18 8,-35 8,-67 0,-32 -2,-49 -8,-68 -13,-38 -42,-57 -83,-57 -32,0 -52,12 -63,28l-1 0 0 -116c0,-3 -2,-5 -5,-5l-45 0c-3,0 -5,2 -5,5l0 327c0,3 2,5 5,5l45 0c3,0 5,-2 5,-5l0 -18 1 0c11,17 31,29 63,29zm-14 -50c-23,0 -38,-11 -45,-31 -3,-11 -5,-22 -5,-44 0,-22 2,-34 5,-45 7,-20 22,-31 45,-31 22,0 37,11 44,31 3,11 5,23 5,45 0,22 -2,33 -5,44 -7,20 -22,31 -44,31z"/>
     <path id="12" class="fil19" d="M18440 9367c3,0 5,-2 5,-5l0 -229c0,-3 -2,-5 -5,-5l-46 0c-3,0 -5,2 -5,5l0 139c0,30 -16,51 -44,51 -31,0 -45,-21 -45,-52l0 -138c0,-3 -2,-5 -5,-5l-45 0c-3,0 -5,2 -5,5l0 151c0,51 31,89 82,89 30,0 49,-12 62,-28l0 0 0 17c0,3 2,5 5,5l46 0z"/>
     <path id="13" class="fil19" d="M18611 9370c2,0 4,-2 4,-5l0 -40c0,-2 -2,-4 -4,-4l-13 0c-15,0 -22,-6 -22,-23l0 -124c0,-2 1,-3 3,-3l32 0c2,0 4,-2 4,-4l0 -34c0,-3 -2,-5 -4,-5l-32 0c-2,0 -3,-1 -3,-3l0 -65c0,-3 -2,-5 -5,-5l-46 0c-3,0 -5,2 -5,5l0 65c0,2 -1,3 -3,3l-15 0c-3,0 -5,2 -5,5l0 34c0,2 2,4 5,4l15 0c2,0 3,1 3,3l0 126c0,47 19,70 67,70l24 0z"/>
     <path id="14" class="fil19" d="M18726 9083c3,0 5,-2 5,-5l0 -43c0,-3 -2,-5 -5,-5l-45 0c-3,0 -5,2 -5,5l0 43c0,3 2,5 5,5l45 0zm0 284c3,0 5,-2 5,-5l0 -229c0,-3 -2,-5 -5,-5l-45 0c-3,0 -5,2 -5,5l0 229c0,3 2,5 5,5l45 0z"/>
     <path id="15" class="fil19" d="M18897 9373c48,0 85,-25 98,-66 6,-17 8,-33 8,-59 0,-27 -2,-42 -8,-59 -13,-42 -50,-66 -98,-66 -48,0 -85,24 -98,66 -6,17 -8,32 -8,59 0,26 2,42 8,59 13,41 50,66 98,66zm0 -50c-22,0 -38,-11 -45,-31 -4,-13 -5,-24 -5,-44 0,-21 1,-31 5,-44 7,-20 23,-32 45,-32 23,0 38,12 45,32 4,13 5,23 5,44 0,20 -1,31 -5,44 -7,20 -22,31 -45,31z"/>
     <path id="16" class="fil19" d="M19259 9367c3,0 5,-2 5,-5l0 -150c0,-51 -32,-89 -83,-89 -31,0 -52,13 -62,28l-1 0 0 -18c0,-3 -2,-5 -5,-5l-45 0c-3,0 -5,2 -5,5l0 229c0,3 2,5 5,5l45 0c3,0 5,-2 5,-5l0 -138c0,-30 17,-52 46,-52 29,0 45,22 45,52l0 138c0,3 2,5 5,5l45 0z"/>
     <path id="17" class="fil19" d="M17551 9884c0,3 2,5 5,5l45 0c3,0 5,-2 5,-5l0 -327c0,-3 -2,-5 -5,-5l-42 0c-4,0 -6,1 -9,3l-54 39c-2,2 -3,4 -3,7l0 50c0,4 2,5 5,3l52 -36 1 0 0 266z"/>
     <path id="18" class="fil19" d="M17740 9828c14,42 46,66 96,66 50,0 82,-24 96,-66 4,-14 7,-30 7,-108 0,-78 -3,-94 -7,-108 -14,-42 -46,-66 -96,-66 -50,0 -82,24 -96,66 -4,14 -7,30 -7,108 0,78 3,94 7,108zm55 -10c-4,-11 -5,-22 -5,-98 0,-76 1,-87 5,-97 6,-18 20,-27 41,-27 21,0 35,9 41,27 4,10 5,21 5,97 0,76 -1,87 -5,98 -6,18 -20,27 -41,27 -21,0 -35,-9 -41,-27z"/>
     <path id="19" class="fil19" d="M18012 9828c13,42 46,66 96,66 50,0 82,-24 96,-66 4,-14 7,-30 7,-108 0,-78 -3,-94 -7,-108 -14,-42 -46,-66 -96,-66 -50,0 -83,24 -96,66 -4,14 -7,30 -7,108 0,78 3,94 7,108zm55 -10c-4,-11 -5,-22 -5,-98 0,-76 1,-87 5,-97 6,-18 20,-27 41,-27 20,0 35,9 41,27 4,10 5,21 5,97 0,76 -1,87 -5,98 -6,18 -21,27 -41,27 -21,0 -35,-9 -41,-27z"/>
     <path id="20" class="fil19" d="M18319 9889c-2,3 -1,5 2,5l33 0c3,0 5,-1 7,-5l196 -338c1,-2 0,-5 -3,-5l-32 0c-4,0 -6,2 -8,5l-195 338zm20 -164c29,0 52,-16 60,-39 4,-11 4,-15 4,-49 0,-35 0,-39 -4,-49 -8,-24 -31,-40 -60,-40 -30,0 -53,16 -61,40 -3,10 -3,14 -3,49 0,34 0,38 3,49 8,23 31,39 61,39zm0 -35c-10,0 -18,-5 -22,-15 -1,-4 -2,-8 -2,-38 0,-31 1,-35 2,-40 4,-8 12,-13 22,-13 10,0 18,5 21,13 2,5 2,9 2,40 0,30 0,34 -2,38 -3,10 -11,15 -21,15zm136 163c8,24 31,40 61,40 29,0 52,-16 60,-40 4,-10 4,-14 4,-49 0,-34 0,-38 -4,-49 -8,-23 -31,-39 -60,-39 -30,0 -53,16 -61,39 -3,11 -4,15 -4,49 0,35 1,39 4,49l0 0zm39 -10c-1,-4 -2,-8 -2,-39 0,-30 1,-34 2,-39 4,-9 12,-14 22,-14 10,0 18,5 21,14 2,5 2,9 2,39 0,31 0,35 -2,39 -3,9 -11,14 -21,14 -10,0 -18,-5 -22,-14z"/>
    </g>
    <path class="fil17" d="M18049 6867l0 723 -49 0 0 -723 49 0z"/>
   </g>
   <g>
    <g>
     <path class="fil11" d="M18024 5199c-1036,0 -1876,-840 -1876,-1877 0,-1036 840,-1876 1876,-1876 1037,0 1877,840 1877,1876 0,1037 -840,1877 -1877,1877z"/>
     <path class="fil12" d="M18031 4779c793,0 1436,-643 1436,-1436 0,-793 -643,-1435 -1436,-1435 -793,0 -1435,642 -1435,1435 0,793 642,1436 1435,1436z"/>
     <path class="fil13" d="M17301 3098l-101 -429 90 0 63 295 79 -295 103 0 75 300 65 -300 88 0 -104 429 -93 0 -84 -321 -86 321 -95 0z"/>
     <path id="1" class="fil13" d="M17846 2883l-74 -13c8,-31 23,-53 43,-68 21,-14 51,-22 92,-22 36,0 64,5 82,13 17,9 30,20 37,33 8,14 11,38 11,74l-1 96c0,27 2,47 4,60 3,13 8,27 15,42l-82 0c-2,-5 -5,-13 -8,-24 -1,-5 -2,-8 -2,-10 -14,14 -29,24 -45,31 -16,7 -33,11 -51,11 -32,0 -58,-9 -76,-26 -18,-18 -28,-40 -28,-66 0,-18 5,-33 13,-47 8,-14 20,-24 35,-32 15,-7 37,-13 66,-19 38,-7 65,-14 80,-20l0 -8c0,-16 -4,-28 -12,-35 -8,-6 -23,-10 -45,-10 -14,0 -26,3 -34,9 -8,6 -15,16 -20,31zm111 66c-11,4 -28,8 -51,13 -22,5 -37,10 -44,14 -11,8 -16,17 -16,29 0,12 4,22 13,30 8,8 19,13 32,13 15,0 29,-5 43,-15 10,-8 16,-16 19,-27 2,-7 4,-21 4,-40l0 -17z"/>
     <path id="2" class="fil13" d="M18176 3098l-98 -311 80 0 58 204 54 -204 79 0 51 204 60 -204 81 0 -100 311 -79 0 -53 -200 -53 200 -80 0z"/>
     <path id="3" class="fil13" d="M18646 2883l-74 -13c8,-31 22,-53 43,-68 20,-14 51,-22 91,-22 37,0 64,5 82,13 18,9 31,20 38,33 7,14 11,38 11,74l-1 96c0,27 1,47 4,60 2,13 7,27 14,42l-81 0c-2,-5 -5,-13 -8,-24 -1,-5 -2,-8 -3,-10 -14,14 -29,24 -45,31 -16,7 -33,11 -51,11 -32,0 -57,-9 -75,-26 -19,-18 -28,-40 -28,-66 0,-18 4,-33 13,-47 8,-14 20,-24 35,-32 15,-7 37,-13 65,-19 39,-7 65,-14 80,-20l0 -8c0,-16 -4,-28 -12,-35 -7,-6 -22,-10 -44,-10 -15,0 -26,3 -34,9 -8,6 -15,16 -20,31zm110 66c-10,4 -27,8 -50,13 -23,5 -38,10 -45,14 -10,8 -16,17 -16,29 0,12 5,22 13,30 9,8 20,13 33,13 15,0 29,-5 42,-15 10,-8 17,-16 20,-27 2,-7 3,-21 3,-40l0 -17z"/>
     <path id="4" class="fil19" d="M16806 3615c0,3 2,4 5,4l120 0c58,0 96,-25 112,-74 6,-17 9,-35 9,-94 0,-58 -3,-77 -9,-93 -16,-50 -54,-75 -112,-75l-120 0c-3,0 -5,2 -5,5l0 327zm58 -51l0 -226c0,-2 1,-3 3,-3l50 0c37,0 60,13 70,43 3,9 6,24 6,73 0,49 -3,64 -6,73 -10,31 -33,43 -70,43l-50 0c-2,0 -3,-1 -3,-3z"/>
     <path id="5" class="fil19" d="M17165 3336c3,0 5,-2 5,-5l0 -43c0,-3 -2,-5 -5,-5l-46 0c-3,0 -5,2 -5,5l0 43c0,3 2,5 5,5l46 0zm0 283c3,0 5,-1 5,-4l0 -229c0,-3 -2,-5 -5,-5l-46 0c-3,0 -5,2 -5,5l0 229c0,3 2,4 5,4l46 0z"/>
     <path id="6" class="fil19" d="M17330 3625c65,0 100,-33 100,-81 0,-39 -24,-65 -74,-70l-25 -2c-31,-3 -40,-11 -40,-25 0,-15 13,-25 37,-25 23,0 47,9 62,20 2,1 5,1 7,-1l24 -29c2,-2 2,-5 -1,-7 -21,-17 -52,-30 -89,-30 -60,0 -93,30 -93,76 0,40 25,65 73,70l26 2c31,3 40,12 40,27 0,16 -15,28 -44,28 -25,0 -53,-12 -70,-27 -2,-2 -5,-2 -7,0l-28 29c-2,2 -2,5 0,7 19,19 53,38 102,38z"/>
     <path id="7" class="fil19" d="M17582 3622c3,0 5,-2 5,-4l0 -40c0,-3 -2,-5 -5,-5l-12 0c-16,0 -23,-6 -23,-22l0 -124c0,-2 1,-3 3,-3l32 0c3,0 5,-2 5,-5l0 -33c0,-3 -2,-5 -5,-5l-32 0c-2,0 -3,-1 -3,-3l0 -66c0,-3 -2,-4 -5,-4l-45 0c-3,0 -5,1 -5,4l0 66c0,2 -1,3 -3,3l-16 0c-3,0 -5,2 -5,5l0 33c0,3 2,5 5,5l16 0c2,0 3,1 3,3l0 126c0,46 18,69 66,69l24 0z"/>
     <path id="8" class="fil19" d="M17698 3619c3,0 5,-1 5,-4l0 -130c0,-38 14,-60 45,-60 13,0 24,4 35,11 3,2 5,2 7,-1l26 -33c2,-2 2,-4 -1,-7 -12,-12 -31,-20 -50,-20 -30,0 -50,13 -62,31l0 0 0 -20c0,-3 -2,-5 -5,-5l-46 0c-3,0 -5,2 -5,5l0 229c0,3 2,4 5,4l46 0z"/>
     <path id="9" class="fil19" d="M17907 3336c3,0 5,-2 5,-5l0 -43c0,-3 -2,-5 -5,-5l-45 0c-3,0 -5,2 -5,5l0 43c0,3 2,5 5,5l45 0zm0 283c3,0 5,-1 5,-4l0 -229c0,-3 -2,-5 -5,-5l-45 0c-3,0 -5,2 -5,5l0 229c0,3 2,4 5,4l45 0z"/>
     <path id="10" class="fil19" d="M18104 3625c41,0 70,-19 83,-58 6,-18 8,-35 8,-67 0,-32 -2,-49 -8,-67 -13,-38 -42,-58 -83,-58 -32,0 -52,12 -63,29l-1 0 0 -116c0,-3 -2,-5 -5,-5l-45 0c-3,0 -5,2 -5,5l0 327c0,3 2,4 5,4l45 0c3,0 5,-1 5,-4l0 -18 1 0c11,16 31,28 63,28zm-14 -50c-23,0 -38,-10 -45,-30 -3,-11 -5,-23 -5,-45 0,-22 2,-34 5,-44 7,-20 22,-31 45,-31 22,0 37,11 44,31 3,10 5,22 5,44 0,22 -2,34 -5,45 -7,20 -22,30 -44,30z"/>
     <path id="11" class="fil19" d="M18447 3619c3,0 5,-1 5,-4l0 -229c0,-3 -2,-5 -5,-5l-46 0c-3,0 -5,2 -5,5l0 138c0,30 -16,51 -44,51 -31,0 -45,-21 -45,-52l0 -137c0,-3 -2,-5 -5,-5l-45 0c-3,0 -5,2 -5,5l0 150c0,51 31,89 82,89 30,0 49,-11 62,-28l0 0 0 18c0,3 2,4 5,4l46 0z"/>
     <path id="12" class="fil19" d="M18618 3622c3,0 4,-2 4,-4l0 -40c0,-3 -1,-5 -4,-5l-13 0c-15,0 -22,-6 -22,-22l0 -124c0,-2 1,-3 3,-3l32 0c3,0 4,-2 4,-5l0 -33c0,-3 -1,-5 -4,-5l-32 0c-2,0 -3,-1 -3,-3l0 -66c0,-3 -2,-4 -5,-4l-46 0c-3,0 -5,1 -5,4l0 66c0,2 -1,3 -3,3l-15 0c-3,0 -5,2 -5,5l0 33c0,3 2,5 5,5l15 0c2,0 3,1 3,3l0 126c0,46 19,69 67,69l24 0z"/>
     <path id="13" class="fil19" d="M18733 3336c3,0 5,-2 5,-5l0 -43c0,-3 -2,-5 -5,-5l-45 0c-3,0 -5,2 -5,5l0 43c0,3 2,5 5,5l45 0zm0 283c3,0 5,-1 5,-4l0 -229c0,-3 -2,-5 -5,-5l-45 0c-3,0 -5,2 -5,5l0 229c0,3 2,4 5,4l45 0z"/>
     <path id="14" class="fil19" d="M18904 3625c48,0 85,-24 98,-66 6,-17 8,-33 8,-59 0,-26 -2,-42 -8,-59 -13,-41 -50,-66 -98,-66 -48,0 -85,25 -98,66 -6,17 -8,33 -8,59 0,26 2,42 8,59 13,42 50,66 98,66zm0 -50c-22,0 -38,-11 -45,-31 -4,-12 -5,-24 -5,-44 0,-20 1,-31 5,-44 7,-20 23,-31 45,-31 23,0 38,11 45,31 4,13 5,24 5,44 0,20 -1,32 -5,44 -7,20 -22,31 -45,31z"/>
     <path id="15" class="fil19" d="M19266 3619c3,0 5,-1 5,-4l0 -151c0,-51 -32,-89 -83,-89 -31,0 -52,13 -62,28l-1 0 0 -17c0,-3 -2,-5 -5,-5l-45 0c-3,0 -5,2 -5,5l0 229c0,3 2,4 5,4l45 0c3,0 5,-1 5,-4l0 -138c0,-31 17,-52 46,-52 29,0 45,21 45,52l0 138c0,3 2,4 5,4l45 0z"/>
     <path id="16" class="fil19" d="M17558 4136c0,3 2,5 5,5l45 0c3,0 5,-2 5,-5l0 -327c0,-3 -2,-5 -5,-5l-42 0c-4,0 -6,1 -9,3l-54 39c-2,2 -3,4 -3,7l0 51c0,4 2,5 5,3l52 -36 1 0 0 265z"/>
     <path id="17" class="fil19" d="M17747 4081c14,42 46,65 96,65 50,0 82,-23 96,-65 4,-14 7,-30 7,-108 0,-79 -3,-94 -7,-108 -14,-42 -46,-66 -96,-66 -50,0 -82,24 -96,66 -4,14 -7,29 -7,108 0,78 3,94 7,108zm55 -11c-4,-10 -5,-22 -5,-97 0,-76 1,-87 5,-98 6,-18 20,-27 41,-27 21,0 35,9 41,27 4,11 5,22 5,98 0,75 -1,87 -5,97 -6,18 -20,27 -41,27 -21,0 -35,-9 -41,-27z"/>
     <path id="18" class="fil19" d="M18019 4081c13,42 46,65 96,65 50,0 82,-23 96,-65 4,-14 7,-30 7,-108 0,-79 -3,-94 -7,-108 -14,-42 -46,-66 -96,-66 -50,0 -83,24 -96,66 -4,14 -7,29 -7,108 0,78 3,94 7,108zm55 -11c-4,-10 -5,-22 -5,-97 0,-76 1,-87 5,-98 6,-18 20,-27 41,-27 20,0 35,9 41,27 4,11 5,22 5,98 0,75 -1,87 -5,97 -6,18 -21,27 -41,27 -21,0 -35,-9 -41,-27z"/>
     <path id="19" class="fil19" d="M18326 4142c-2,2 -1,4 2,4l33 0c3,0 5,-1 7,-4l196 -338c1,-3 0,-5 -3,-5l-32 0c-4,0 -6,1 -8,5l-195 338zm20 -164c29,0 52,-16 60,-40 4,-10 4,-15 4,-49 0,-34 0,-39 -4,-49 -8,-24 -31,-40 -60,-40 -30,0 -53,16 -60,40 -4,10 -4,15 -4,49 0,34 0,39 4,49 7,24 30,40 60,40zm0 -36c-10,0 -18,-5 -22,-14 -1,-4 -2,-8 -2,-39 0,-31 1,-35 2,-39 4,-9 12,-14 22,-14 10,0 18,5 21,14 2,4 2,8 2,39 0,31 0,35 -2,39 -3,9 -11,14 -21,14zm136 164c8,24 31,39 61,39 29,0 53,-15 60,-39 4,-11 4,-15 4,-49 0,-34 0,-39 -4,-49 -7,-24 -31,-40 -60,-40 -30,0 -53,16 -61,40 -3,10 -4,15 -4,49 0,34 1,38 4,49l0 0zm39 -11c-1,-3 -2,-7 -2,-38 0,-31 1,-35 2,-39 4,-9 12,-14 22,-14 10,0 18,5 21,14 2,4 2,8 2,39 0,31 0,35 -2,38 -3,10 -11,15 -21,15 -10,0 -18,-5 -22,-15z"/>
    </g>
    <path class="fil15" d="M18024 4863l0 722 -49 0 0 -722 49 0z"/>
   </g>
  </g>
  <rect class="fil20" width="22495" height="13334"/>
 </g>
</svg>
