<?xml version="1.0" encoding="UTF-8"?>
<!DOCTYPE svg PUBLIC "-//W3C//DTD SVG 1.0//EN" "http://www.w3.org/TR/2001/REC-SVG-20010904/DTD/svg10.dtd">
<!-- Creator: CorelDRAW X7 -->
<svg xmlns="http://www.w3.org/2000/svg" xml:space="preserve" width="1766px" height="928px" version="1.0" style="shape-rendering:geometricPrecision; text-rendering:geometricPrecision; image-rendering:optimizeQuality; fill-rule:evenodd; clip-rule:evenodd"
viewBox="0 0 6308 3315"
 xmlns:xlink="http://www.w3.org/1999/xlink">
 <defs>
  <style type="text/css">
   <![CDATA[
    .fil15 {fill:#00C877}
    .fil16 {fill:#3F99FF}
    .fil14 {fill:#6A55ED}
    .fil18 {fill:#F17462}
    .fil17 {fill:#FFD970}
    .fil12 {fill:#FEFEFE;fill-rule:nonzero}
    .fil19 {fill:#606062;fill-rule:nonzero}
    .fil0 {fill:#4B4B4D;fill-rule:nonzero}
    .fil1 {fill:#373435;fill-rule:nonzero}
    .fil11 {fill:#00C877;fill-rule:nonzero}
    .fil13 {fill:#0F53C8;fill-rule:nonzero}
    .fil6 {fill:#3F99FF;fill-rule:nonzero}
    .fil10 {fill:#63F0E5;fill-rule:nonzero}
    .fil3 {fill:#6A55ED;fill-rule:nonzero}
    .fil5 {fill:#6BE0FF;fill-rule:nonzero}
    .fil2 {fill:#7497FF;fill-rule:nonzero}
    .fil4 {fill:#EBFFFF;fill-rule:nonzero}
    .fil7 {fill:#EFD28E;fill-rule:nonzero}
    .fil9 {fill:#F17462;fill-rule:nonzero}
    .fil8 {fill:#FFD970;fill-rule:nonzero}
   ]]>
  </style>
 </defs>
 <g id="Layer_x0020_1">
  <metadata id="CorelCorpID_0Corel-Layer"/>
  <g id="_2411467986672">
   <path class="fil0" d="M2841 1050c7,21 22,31 43,31 20,0 35,-10 42,-27 1,-1 0,-2 -1,-2l-15 -7c-1,-1 -2,0 -3,0 -4,9 -10,17 -23,17 -12,0 -19,-7 -22,-17 -2,-5 -2,-10 -2,-28 0,-18 0,-23 2,-29 3,-10 10,-16 22,-16 13,0 19,7 23,16 1,1 2,2 3,1l15 -7c1,-1 2,-2 1,-3 -7,-16 -22,-26 -42,-26 -21,0 -36,10 -43,30 -2,8 -3,14 -3,34 0,19 1,26 3,33z"/>
   <path id="1" class="fil0" d="M2965 1079c1,0 2,-1 2,-2l0 -48c0,-14 5,-22 16,-22 5,0 9,2 13,4 1,1 2,1 3,0l9 -12c1,-1 1,-2 0,-3 -4,-4 -11,-7 -18,-7 -11,0 -19,4 -23,11l0 0 0 -7c0,-1 -1,-2 -2,-2l-17 0c-1,0 -2,1 -2,2l0 84c0,1 1,2 2,2l17 0z"/>
   <path id="2" class="fil0" d="M3056 1081c18,0 31,-9 36,-24 2,-7 3,-12 3,-22 0,-10 -1,-16 -3,-22 -5,-15 -18,-24 -36,-24 -18,0 -31,9 -36,24 -2,6 -3,12 -3,22 0,10 1,15 3,22 5,15 18,24 36,24zm0 -18c-8,0 -14,-5 -16,-12 -2,-4 -2,-9 -2,-16 0,-8 0,-12 2,-16 2,-8 8,-12 16,-12 8,0 14,4 17,12 1,4 1,8 1,16 0,7 0,12 -1,16 -3,7 -9,12 -17,12z"/>
   <path id="3" class="fil0" d="M3207 1079c1,0 2,-1 2,-2l28 -84c0,-1 0,-2 -1,-2l-18 0c-1,0 -2,0 -2,2l-16 58 -1 0 -18 -58c0,-1 -1,-2 -2,-2l-13 0c-1,0 -2,1 -2,2l-17 58 -1 0 -17 -58c0,-2 -1,-2 -2,-2l-18 0c-1,0 -1,1 -1,2l28 84c0,1 1,2 2,2l15 0c1,0 2,-1 2,-2l17 -56 1 0 17 56c0,1 1,2 2,2l15 0z"/>
   <path id="4" class="fil0" d="M3325 1079c1,0 2,-1 2,-2l0 -120c0,-2 -1,-2 -2,-2l-17 0c-1,0 -1,0 -1,2l0 42 -1 0c-4,-6 -11,-10 -23,-10 -15,0 -26,7 -31,21 -2,7 -3,13 -3,25 0,12 1,18 3,25 5,14 16,21 31,21 12,0 19,-5 23,-11l1 0 0 7c0,1 0,2 1,2l17 0zm-37 -16c-8,0 -14,-4 -16,-12 -1,-4 -2,-8 -2,-16 0,-8 1,-13 2,-17 2,-7 8,-11 16,-11 9,0 14,4 17,11 1,4 2,9 2,17 0,8 -1,12 -2,16 -3,8 -8,12 -17,12z"/>
   <path id="5" class="fil0" d="M3436 1081c31,0 47,-17 47,-39 0,-21 -13,-32 -37,-36l-7 -1c-17,-2 -23,-8 -23,-16 0,-10 7,-17 20,-17 10,0 20,3 30,10 1,0 2,0 2,-1l9 -13c1,-1 1,-2 0,-3 -10,-7 -25,-12 -40,-12 -26,0 -42,15 -42,37 0,21 13,32 37,36l7 0c17,3 22,9 22,18 0,10 -8,18 -23,18 -14,0 -26,-7 -34,-14 -1,0 -2,0 -3,1l-11 13c-1,1 0,2 1,2 9,10 27,17 45,17z"/>
   <path id="6" class="fil0" d="M3572 1079c1,0 2,-1 2,-2l0 -57c0,-22 -10,-31 -37,-31 -15,0 -24,3 -31,8 -1,1 -1,2 -1,3l7 12c1,1 2,1 3,0 4,-3 10,-6 20,-6 14,0 19,5 19,15l0 4c0,1 0,1 -1,1l-18 0c-22,0 -35,9 -35,28 0,18 13,27 30,27 12,0 20,-4 24,-10l1 0 0 6c0,1 0,2 1,2l16 0zm-37 -15c-10,0 -16,-3 -16,-11 0,-8 6,-12 19,-12l15 0c1,0 1,1 1,2l0 6c0,10 -7,15 -19,15z"/>
   <path id="7" class="fil0" d="M3631 1080c1,0 2,-1 2,-2l0 -14c0,-2 -1,-2 -2,-2l-4 0c-5,0 -7,-2 -7,-8l0 -97c0,-2 -1,-2 -2,-2l-17 0c-1,0 -2,0 -2,2l0 98c0,17 7,25 24,25l8 0z"/>
   <path id="8" class="fil0" d="M3688 1081c16,0 28,-6 36,-15 1,-1 1,-2 0,-3l-11 -9c-1,-1 -2,-1 -3,0 -4,5 -11,9 -21,9 -9,0 -16,-5 -19,-14 -1,-2 -2,-4 -2,-6 0,-1 1,-2 2,-2l54 0c1,0 2,0 2,-1 0,-15 -1,-21 -3,-27 -5,-15 -18,-24 -36,-24 -18,0 -31,9 -36,24 -2,6 -3,13 -3,22 0,9 1,16 3,21 5,16 18,25 37,25zm17 -56c0,1 0,1 -1,1l-34 0c-1,0 -2,0 -2,-1 0,-3 1,-5 2,-7 2,-8 9,-12 17,-12 8,0 15,4 17,12 1,2 1,4 1,7z"/>
   <path class="fil1" d="M3132 852c4,20 22,32 46,32 27,0 46,-17 46,-43 0,-19 -10,-30 -18,-34l0 -1c10,-6 16,-17 16,-29 0,-23 -16,-39 -44,-39 -25,0 -41,14 -45,32 0,2 1,2 2,3l23 4c1,0 2,0 2,-1 2,-8 7,-14 16,-14 10,0 16,7 16,17 0,11 -6,18 -17,18l-6 0c-1,0 -2,1 -2,2l0 20c0,1 1,2 2,2l6 0c12,0 20,7 20,20 0,11 -7,19 -17,19 -10,0 -16,-6 -19,-14 0,-1 -1,-2 -2,-1l-23 4c-2,0 -2,1 -2,3z"/>
   <path id="1" class="fil1" d="M3251 853c2,18 19,31 44,31 20,0 36,-9 41,-26 2,-6 4,-13 4,-22 0,-12 -2,-19 -3,-25 -6,-15 -19,-24 -37,-24 -10,0 -18,4 -21,7l-1 0 0 -28c0,-1 1,-1 2,-1l54 0c1,0 2,-1 2,-2l0 -21c0,-1 -1,-2 -2,-2l-79 0c-2,0 -2,1 -2,2l0 78c0,1 0,2 2,2l22 0c1,0 2,0 3,-2 2,-4 6,-8 14,-8 7,0 13,3 15,10 1,3 2,7 2,14 0,6 -1,10 -2,14 -2,6 -8,10 -15,10 -9,0 -14,-5 -16,-12 -1,-1 -2,-2 -3,-2l-22 5c-2,0 -2,1 -2,2l0 0z"/>
   <path id="2" class="fil1" d="M3385 882c-1,1 0,2 1,2l17 0c2,0 3,-1 4,-2l82 -142c0,-1 0,-2 -1,-2l-17 0c-2,0 -3,0 -4,2l-82 142zm8 -69c14,0 24,-7 27,-17 2,-4 2,-7 2,-20 0,-13 0,-16 -2,-20 -3,-11 -13,-18 -27,-18 -13,0 -23,7 -27,18 -1,4 -1,7 -1,20 0,13 0,16 1,20 4,10 14,17 27,17zm0 -16c-3,0 -6,-2 -7,-5 -1,-2 -1,-4 -1,-16 0,-13 0,-15 1,-16 1,-3 4,-5 7,-5 4,0 7,2 8,5 0,1 0,3 0,16 0,12 0,14 0,16 -1,3 -4,5 -8,5zm60 69c4,11 14,18 27,18 14,0 24,-7 27,-18 1,-4 2,-7 2,-20 0,-13 -1,-16 -2,-20 -3,-10 -13,-17 -27,-17 -13,0 -23,7 -27,17 -1,4 -1,7 -1,20 0,13 0,16 1,20zm20 -4c-1,-1 -1,-3 -1,-16 0,-12 0,-14 1,-16 1,-3 4,-4 7,-4 4,0 7,1 8,4 0,2 0,4 0,16 0,13 0,15 0,16 -1,4 -4,5 -8,5 -3,0 -6,-1 -7,-5z"/>
   <path class="fil0" d="M2956 2408c0,1 0,2 1,2l45 0c27,0 43,-12 43,-37 0,-15 -9,-25 -17,-28l0 0c8,-4 14,-12 14,-26 0,-20 -12,-34 -38,-34l-47 0c-1,0 -1,1 -1,2l0 121zm22 -71c-1,0 -1,0 -1,-1l0 -30c0,-1 0,-2 1,-2l25 0c11,0 18,7 18,17 0,10 -7,16 -18,16l-25 0zm-1 53l0 -33c0,-1 0,-1 1,-1l26 0c12,0 19,7 19,17 0,11 -7,18 -19,18l-26 0c-1,0 -1,-1 -1,-1z"/>
   <path id="1" class="fil0" d="M3101 2412c17,0 31,-9 36,-25 2,-6 3,-12 3,-21 0,-10 -1,-16 -3,-22 -5,-15 -19,-24 -36,-24 -18,0 -32,9 -37,24 -2,6 -3,12 -3,22 0,9 1,15 3,21 5,16 19,25 37,25zm0 -19c-9,0 -14,-4 -17,-11 -1,-5 -2,-9 -2,-16 0,-8 1,-12 2,-17 3,-7 8,-11 17,-11 8,0 13,4 16,11 1,5 2,9 2,17 0,7 -1,11 -2,16 -3,7 -8,11 -16,11z"/>
   <path id="2" class="fil0" d="M3232 2410c2,0 2,-1 2,-2l0 -85c0,-1 0,-1 -2,-1l-16 0c-1,0 -2,0 -2,1l0 51c0,12 -6,19 -17,19 -11,0 -16,-7 -16,-19l0 -51c0,-1 -1,-1 -2,-1l-17 0c-1,0 -2,0 -2,1l0 56c0,19 12,33 31,33 11,0 18,-5 23,-11l0 0 0 7c0,1 1,2 2,2l16 0z"/>
   <path id="3" class="fil0" d="M3333 2410c2,0 2,-1 2,-2l0 -56c0,-19 -11,-32 -30,-32 -12,0 -20,4 -23,10l-1 0 0 -7c0,-1 0,-1 -1,-1l-17 0c-1,0 -2,0 -2,1l0 85c0,1 1,2 2,2l17 0c1,0 1,-1 1,-2l0 -51c0,-11 7,-19 17,-19 11,0 17,8 17,19l0 51c0,1 1,2 2,2l16 0z"/>
   <path id="4" class="fil0" d="M3396 2411c1,0 1,-1 1,-2l0 -15c0,-1 0,-2 -1,-2l-5 0c-6,0 -8,-2 -8,-8l0 -45c0,-1 0,-1 1,-1l12 0c1,0 1,-1 1,-2l0 -13c0,-1 0,-1 -1,-1l-12 0c-1,0 -1,-1 -1,-1l0 -25c0,-1 -1,-1 -2,-1l-17 0c-1,0 -2,0 -2,1l0 25c0,0 0,1 -1,1l-6 0c-1,0 -1,0 -1,1l0 13c0,1 0,2 1,2l6 0c1,0 1,0 1,1l0 46c0,17 7,26 25,26l9 0z"/>
   <path id="5" class="fil0" d="M3428 2443c15,0 22,-7 30,-28l34 -92c0,-1 -1,-1 -2,-1l-17 0c-1,0 -2,0 -2,1l-19 58 -1 0 -20 -58c0,-1 -1,-1 -2,-1l-18 0c-1,0 -2,0 -1,1l32 83 -3 8c-3,7 -6,10 -13,10l-3 0c-1,0 -2,1 -2,2l0 15c0,1 1,2 2,2l5 0z"/>
   <path id="6" class="fil0" d="M2997 2576c1,0 2,-1 2,-2l0 -102c0,-1 0,-1 1,-1l32 0c1,0 2,-1 2,-2l0 -16c0,-1 -1,-2 -2,-2l-89 0c-1,0 -1,1 -1,2l0 16c0,1 0,2 1,2l33 0c1,0 1,0 1,1l0 102c0,1 1,2 2,2l18 0z"/>
   <path id="7" class="fil0" d="M3073 2578c17,0 31,-9 36,-25 2,-6 3,-12 3,-21 0,-10 -1,-16 -3,-22 -5,-16 -19,-24 -36,-24 -18,0 -32,8 -37,24 -2,6 -3,12 -3,22 0,9 1,15 3,21 5,16 19,25 37,25zm0 -19c-8,0 -14,-4 -17,-11 -1,-5 -2,-9 -2,-16 0,-8 1,-12 2,-17 3,-7 9,-11 17,-11 8,0 14,4 16,11 2,5 2,9 2,17 0,7 0,11 -2,16 -2,7 -8,11 -16,11z"/>
   <path id="8" class="fil0" d="M3210 2576c2,0 2,-2 1,-2l-32 -53 28 -32c1,0 1,-1 -1,-1l-18 0c-2,0 -3,0 -4,1l-30 36 0 -72c0,-1 -1,-2 -2,-2l-16 0c-2,0 -2,1 -2,2l0 121c0,1 0,2 2,2l16 0c1,0 2,-1 2,-2l0 -23 12 -14 22 37c1,1 2,2 3,2l19 0z"/>
   <path id="9" class="fil0" d="M3261 2578c17,0 29,-7 37,-15 0,-1 0,-2 -1,-3l-10 -9c-1,-1 -2,-1 -3,0 -5,5 -11,8 -21,8 -10,0 -17,-4 -20,-13 0,-2 -1,-4 -1,-7 0,-1 1,-1 1,-1l55 0c1,0 2,-1 2,-2 0,-14 -1,-20 -3,-26 -5,-15 -18,-24 -37,-24 -17,0 -31,8 -36,24 -1,5 -2,12 -2,22 0,9 1,15 3,21 5,15 18,25 36,25zm18 -56c0,0 0,1 -1,1l-35 0c0,0 -1,-1 -1,-1 0,-3 1,-6 1,-8 3,-7 9,-11 18,-11 8,0 14,4 17,11 1,2 1,5 1,8z"/>
   <path id="10" class="fil0" d="M3394 2576c1,0 2,-1 2,-2l0 -56c0,-19 -12,-32 -31,-32 -11,0 -19,4 -23,10l0 0 0 -7c0,-1 -1,-1 -2,-1l-17 0c-1,0 -2,0 -2,1l0 85c0,1 1,2 2,2l17 0c1,0 2,-1 2,-2l0 -51c0,-11 6,-19 17,-19 11,0 16,8 16,19l0 51c0,1 1,2 2,2l17 0z"/>
   <path id="11" class="fil0" d="M3454 2578c24,0 37,-13 37,-30 0,-15 -9,-24 -27,-26l-10 -1c-11,-1 -14,-4 -14,-9 0,-5 4,-9 13,-9 9,0 18,3 23,7 1,1 2,1 3,0l9 -11c0,-1 0,-2 -1,-3 -8,-6 -19,-10 -33,-10 -22,0 -34,10 -34,27 0,15 9,24 27,26l10 1c11,1 14,4 14,10 0,6 -5,10 -16,10 -9,0 -19,-4 -26,-10 -1,-1 -2,-1 -2,0l-11 11c0,1 0,2 0,3 8,6 20,14 38,14z"/>
   <path class="fil1" d="M3086 2220c0,1 1,2 2,2l85 0c1,0 2,-1 2,-2l0 -21c0,-1 -1,-2 -2,-2l-50 0 0 -1 38 -44c9,-10 14,-21 14,-35 0,-23 -17,-40 -44,-40 -27,0 -43,17 -45,37 0,1 1,2 2,2l23 4c2,0 2,0 2,-2 2,-11 7,-16 17,-16 10,0 16,6 16,16 0,7 -3,13 -9,20l-50 59c-1,1 -1,2 -1,3l0 20z"/>
   <path id="1" class="fil1" d="M3222 2222c0,1 0,2 1,2l18 0c2,0 2,0 3,-2l83 -143c1,-1 1,-2 -1,-2l-17 0c-2,0 -3,0 -4,2l-83 143zm9 -69c13,0 23,-7 27,-18 1,-4 2,-7 2,-20 0,-13 -1,-16 -2,-20 -4,-11 -14,-18 -27,-18 -14,0 -24,7 -27,18 -2,4 -2,7 -2,20 0,13 0,16 2,20 3,11 13,18 27,18zm0 -17c-4,0 -7,-2 -8,-5 0,-2 0,-3 0,-16 0,-13 0,-15 0,-16 1,-3 4,-5 8,-5 3,0 6,2 7,5 1,1 1,3 1,16 0,13 0,14 -1,16 -1,3 -4,5 -7,5zm60 70c4,11 14,18 28,18 13,0 23,-7 27,-18 1,-4 2,-7 2,-20 0,-13 -1,-16 -2,-20 -4,-11 -14,-17 -27,-17 -14,0 -24,6 -28,17 -1,4 -1,7 -1,20 0,13 0,16 1,20zm20 -4c0,-1 -1,-3 -1,-16 0,-13 1,-14 1,-16 1,-3 4,-5 8,-5 3,0 6,2 7,5 1,2 1,3 1,16 0,13 0,15 -1,16 -1,3 -4,5 -7,5 -4,0 -7,-2 -8,-5z"/>
   <g>
    <path class="fil2" d="M1955 592c-294,-44 -592,54 -801,266 -209,212 -305,511 -257,804l918 -150 140 -920z"/>
    <g>
     <path class="fil3" d="M1955 592c-294,-44 -592,54 -801,266 -209,212 -305,511 -257,804l918 -150 140 -920z"/>
     <path id="1" class="fil4" d="M1156 860l-4 -4 0 0 20 -20 20 -19 21 -18 21 -17 22 -17 23 -16 22 -16 23 -15 24 -14 24 -13 24 -13 25 -12 24 -11 26 -10 25 -10 26 -9 26 -8 26 -8 26 -6 27 -6 27 -5 27 -5 27 -3 27 -3 28 -2 27 -1 28 0 27 0 28 1 27 3 28 3 28 3 -1 7 -28 -4 -27 -3 -28 -2 -27 -1 -28 -1 -27 0 -27 2 -27 1 -27 3 -27 4 -27 4 -27 5 -26 6 -26 7 -26 7 -26 8 -26 9 -25 10 -25 10 -25 11 -24 12 -24 12 -24 14 -23 14 -23 14 -23 16 -22 16 -22 17 -21 17 -21 18 -20 19 -20 19 0 0zm0 0c-1,2 -3,2 -4,0 -2,-1 -2,-3 0,-4l4 4zm-259 799l1 7 -4 -3 -4 -28 -3 -27 -3 -28 -1 -28 -1 -27 0 -28 1 -27 2 -28 2 -27 3 -27 4 -27 5 -27 6 -27 6 -26 7 -26 8 -27 9 -25 9 -26 10 -25 11 -25 12 -25 12 -24 13 -24 14 -24 15 -23 15 -23 16 -23 16 -22 18 -21 18 -21 18 -21 20 -20 4 4 -19 20 -19 21 -17 21 -18 21 -16 22 -16 23 -15 22 -15 23 -13 24 -13 24 -12 24 -12 24 -11 25 -10 25 -9 26 -9 25 -8 26 -7 26 -6 27 -6 26 -4 27 -4 27 -4 27 -2 27 -2 27 -1 27 0 28 1 27 2 28 2 27 3 27 4 28 -3 -3zm3 3c1,2 0,3 -2,4 -2,0 -4,-1 -4,-3l6 -1zm916 -147l-918 151 -1 -7 918 -150 4 4 -3 2zm-1 -6c2,0 3,1 4,3 0,1 -1,3 -3,3l-1 -6zm143 -916l-139 920 -7 -1 140 -920 4 -3 2 4zm-6 -1c0,-2 2,-3 4,-3 2,1 3,2 2,4l-6 -1z"/>
    </g>
    <path class="fil5" d="M897 1663c49,294 235,547 501,680l417 -831 -918 151z"/>
    <g>
     <path class="fil6" d="M897 1663c49,294 235,547 501,680l417 -831 -918 151z"/>
     <path id="1" class="fil4" d="M1395 2342l6 3 -5 1 -24 -13 -25 -13 -24 -15 -23 -14 -23 -16 -22 -16 -22 -17 -21 -17 -20 -18 -21 -19 -19 -19 -19 -20 -18 -20 -18 -21 -17 -21 -17 -22 -15 -22 -16 -22 -14 -24 -14 -23 -13 -24 -12 -24 -12 -25 -11 -25 -11 -25 -9 -26 -9 -26 -8 -27 -7 -26 -7 -27 -6 -28 -5 -27 7 -1 5 27 5 27 7 27 7 27 8 26 9 26 9 25 11 25 11 25 11 25 13 24 13 24 13 23 15 23 15 23 16 22 16 21 17 21 17 21 19 20 18 19 20 19 20 19 20 18 21 17 22 17 22 16 23 15 23 15 23 14 25 14 24 13 -4 1zm4 -1c2,0 2,2 2,4 -1,1 -3,2 -5,1l3 -5zm419 -827l-417 831 -6 -3 418 -831 2 -2 3 5zm-5 -3c0,-2 2,-2 4,-2 1,1 2,3 1,5l-5 -3zm-916 149l918 -151 1 6 -918 151 -4 -2 3 -4zm1 6c-2,1 -3,0 -4,-2 0,-2 1,-4 3,-4l1 6z"/>
    </g>
    <path class="fil7" d="M1399 2344c321,161 708,122 991,-100l-575 -732 -416 832z"/>
    <g>
     <path class="fil8" d="M1399 2344c321,161 708,122 991,-100l-575 -732 -416 832z"/>
     <path id="1" class="fil4" d="M2387 2246l5 -4 0 5 -27 20 -28 19 -28 18 -28 17 -29 17 -30 14 -30 14 -30 13 -31 12 -31 10 -31 10 -32 8 -31 7 -32 6 -33 5 -32 4 -32 3 -33 1 -33 1 -32 -1 -33 -2 -32 -3 -33 -4 -32 -5 -32 -7 -32 -7 -32 -9 -32 -10 -31 -11 -32 -12 -30 -14 -31 -14 3 -6 30 15 31 13 31 12 31 11 31 10 32 9 32 7 32 6 32 6 32 4 33 3 32 2 32 0 33 0 32 -2 32 -2 32 -4 32 -5 32 -6 32 -7 31 -9 31 -9 31 -10 31 -12 30 -13 29 -13 30 -15 28 -16 29 -17 28 -18 27 -19 27 -20 -1 4zm1 -4c1,-2 3,-1 4,0 1,1 1,3 0,5l-4 -5zm-570 -732l574 732 -5 4 -574 -732 0 -3 5 -1zm-5 4c-1,-1 -1,-3 0,-4 2,-1 4,-1 5,0l-5 4zm-417 828l417 -831 5 3 -417 831 -4 2 -1 -5zm5 3c0,2 -2,2 -4,2 -1,-1 -2,-3 -1,-5l5 3z"/>
    </g>
    <path class="fil9" d="M2391 2243c30,-23 58,-49 86,-76l-662 -655 576 731z"/>
    <g>
     <path class="fil4" d="M2474 2169l5 -5 0 5 -3 2 -2 3 -3 3 -2 2 -3 3 -3 2 -2 3 -3 2 -3 3 -2 2 -3 3 -2 2 -3 2 -3 3 -2 2 -3 3 -3 2 -3 3 -2 2 -3 2 -3 3 -3 2 -2 2 -3 3 -3 2 -3 2 -2 3 -3 2 -3 2 -3 2 -3 3 -3 2 -3 -5 2 -2 3 -3 3 -2 3 -2 3 -2 2 -3 3 -2 3 -2 3 -2 2 -3 3 -2 3 -3 3 -2 2 -2 3 -3 3 -2 2 -2 3 -3 3 -2 2 -3 3 -2 3 -3 2 -2 3 -2 2 -3 3 -2 3 -3 2 -2 3 -3 2 -2 3 -3 2 -3 0 5zm0 -5c2,-1 4,-1 5,0 1,2 1,4 0,5l-5 -5zm-656 -654l661 654 -5 5 -661 -655 0 0 5 -4zm-5 4c-1,-1 -1,-3 0,-4 1,-1 3,-1 5,0l-5 4zm575 731l-575 -731 5 -4 575 731 -1 5 -4 -1zm5 -4c1,2 1,4 -1,5 -1,1 -3,1 -4,-1l5 -4z"/>
    </g>
    <path class="fil10" d="M2477 2166c246,-249 331,-614 222,-946 -110,-332 -397,-574 -743,-627l-141 919 662 654z"/>
    <g>
     <path class="fil11" d="M2477 2166c246,-249 331,-614 222,-946 -110,-332 -397,-574 -743,-627l-141 919 662 654z"/>
     <path id="1" class="fil4" d="M2696 1221l6 -2 0 0 9 31 9 32 7 31 7 32 5 32 4 32 3 32 2 32 1 32 0 31 -2 32 -2 32 -4 31 -4 32 -6 31 -7 31 -7 31 -9 30 -10 30 -11 30 -12 29 -13 30 -13 28 -15 28 -16 28 -17 28 -18 26 -19 26 -19 26 -21 25 -22 25 -23 23 -4 -4 22 -24 22 -24 21 -25 19 -25 19 -26 18 -27 16 -27 16 -28 15 -28 14 -28 12 -29 12 -29 11 -30 10 -30 8 -30 8 -31 7 -30 5 -31 5 -31 3 -32 3 -31 1 -32 1 -31 -1 -32 -2 -32 -3 -32 -4 -31 -5 -32 -7 -31 -7 -32 -9 -31 -9 -31 0 0zm0 0c-1,-2 0,-4 2,-4 1,-1 3,0 4,2l-6 2zm-736 -628l-7 -1 4 -3 32 6 32 7 32 7 31 9 31 10 30 11 30 12 29 12 29 14 28 15 28 16 27 16 26 18 26 18 25 19 25 20 24 21 23 22 22 22 22 23 21 24 20 25 19 25 19 26 17 27 17 28 15 28 15 28 14 30 13 29 12 31 11 31 -6 2 -11 -31 -12 -30 -13 -30 -13 -29 -15 -28 -16 -28 -16 -27 -18 -27 -18 -26 -19 -25 -20 -25 -21 -23 -21 -23 -22 -23 -23 -21 -24 -21 -24 -20 -26 -19 -25 -18 -27 -17 -26 -17 -28 -15 -28 -15 -29 -14 -29 -13 -29 -11 -30 -11 -31 -10 -31 -8 -31 -8 -32 -7 -32 -5 4 -3zm-4 3c-2,0 -3,-2 -3,-4 1,-2 2,-3 4,-3l-1 7zm-144 916l141 -920 7 1 -141 920 -6 1 -1 -2zm7 1c-1,1 -2,3 -4,2 -2,0 -3,-2 -3,-3l7 1zm656 655l-662 -654 5 -4 661 654 0 4 -4 0zm4 -4c2,1 2,3 0,4 -1,1 -3,2 -4,0l4 -4z"/>
    </g>
    <path class="fil12" d="M1707 2264c409,62 792,-220 854,-629 62,-410 -219,-792 -629,-855 -410,-62 -792,220 -854,629 -63,410 219,793 629,855z"/>
    <path class="fil13" d="M1560 1592l0 -139 27 0 57 93 0 -93 26 0 0 139 -28 0 -56 -91 0 91 -26 0z"/>
    <path id="1" class="fil13" d="M1699 1592l0 -139 28 0 0 55 55 0 0 -55 28 0 0 139 -28 0 0 -61 -55 0 0 61 -28 0z"/>
    <path id="2" class="fil13" d="M1928 1541l27 8c-4,15 -11,27 -21,34 -10,7 -22,11 -37,11 -18,0 -33,-6 -45,-19 -12,-12 -18,-30 -18,-51 0,-23 6,-41 18,-54 12,-13 28,-19 47,-19 17,0 31,5 41,15 7,6 11,14 14,25l-27 7c-2,-7 -5,-13 -11,-17 -5,-4 -11,-6 -18,-6 -11,0 -19,3 -25,11 -7,7 -10,19 -10,36 0,17 3,29 9,37 7,7 15,11 25,11 7,0 14,-2 19,-7 6,-5 9,-12 12,-22z"/>
    <path id="3" class="fil13" d="M2010 1592l0 -115 -41 0 0 -24 110 0 0 24 -41 0 0 115 -28 0z"/>
   </g>
   <path class="fil14" d="M634 815l650 0 0 14 -650 0 0 -14z"/>
   <path class="fil15" d="M3024 815l-680 0 0 14 680 0 0 -14z"/>
   <path class="fil0" d="M1361 3079c0,2 1,2 2,2l78 0c1,0 2,0 2,-2l0 -15c0,-1 -1,-2 -2,-2l-57 0c-1,0 -1,0 -1,-1l0 -32c0,0 0,-1 1,-1l48 0c1,0 2,0 2,-2l0 -15c0,-1 -1,-2 -2,-2l-48 0c-1,0 -1,0 -1,-1l0 -30c0,-1 0,-2 1,-2l57 0c1,0 2,0 2,-1l0 -16c0,-1 -1,-2 -2,-2l-78 0c-1,0 -2,1 -2,2l0 120z"/>
   <path id="1" class="fil0" d="M1500 3083c13,0 23,-5 30,-13 1,-1 1,-2 0,-3l-12 -10c-1,-1 -2,-1 -2,0 -5,5 -9,8 -16,8 -8,0 -14,-4 -17,-11 -1,-5 -2,-10 -2,-17 0,-7 1,-12 2,-16 3,-8 9,-12 17,-12 7,0 11,3 16,8 0,1 1,1 2,1l12 -11c1,0 1,-1 0,-2 -7,-8 -17,-14 -30,-14 -18,0 -32,9 -37,25 -2,5 -3,12 -3,21 0,10 1,16 3,22 5,16 19,24 37,24z"/>
   <path id="2" class="fil0" d="M1586 3083c18,0 32,-9 37,-24 2,-6 3,-12 3,-22 0,-9 -1,-15 -3,-21 -5,-16 -19,-25 -37,-25 -17,0 -31,9 -36,25 -2,6 -3,12 -3,21 0,10 1,16 3,22 5,15 19,24 36,24zm0 -18c-8,0 -14,-4 -16,-12 -2,-4 -2,-8 -2,-16 0,-7 0,-11 2,-16 2,-7 8,-12 16,-12 9,0 14,5 17,12 1,5 2,9 2,16 0,8 -1,12 -2,16 -3,8 -8,12 -17,12z"/>
   <path id="3" class="fil0" d="M1680 3083c24,0 37,-12 37,-30 0,-14 -9,-23 -27,-25l-10 -1c-11,-1 -14,-4 -14,-9 0,-6 4,-10 13,-10 9,0 18,4 23,8 1,0 2,0 3,-1l9 -10c0,-1 0,-2 -1,-3 -8,-6 -19,-11 -33,-11 -22,0 -34,11 -34,28 0,15 9,24 27,26l10 1c11,1 14,4 14,10 0,6 -5,10 -16,10 -9,0 -19,-4 -26,-10 -1,-1 -2,-1 -2,0l-11 11c-1,1 -1,2 0,2 7,7 20,14 38,14z"/>
   <path id="4" class="fil0" d="M1747 3114c15,0 22,-6 30,-27l33 -92c1,-1 0,-2 -1,-2l-17 0c-2,0 -2,1 -3,2l-19 58 0 0 -20 -58c0,-1 -1,-2 -2,-2l-18 0c-1,0 -2,1 -2,2l32 83 -2 7c-3,8 -6,11 -13,11l-4 0c-1,0 -1,1 -1,2l0 14c0,1 0,2 1,2l6 0z"/>
   <path id="5" class="fil0" d="M1858 3083c24,0 37,-12 37,-30 0,-14 -9,-23 -28,-25l-9 -1c-11,-1 -15,-4 -15,-9 0,-6 5,-10 14,-10 8,0 17,4 23,8 1,0 2,0 2,-1l9 -10c1,-1 1,-2 0,-3 -8,-6 -19,-11 -33,-11 -22,0 -34,11 -34,28 0,15 9,24 27,26l9 1c12,1 15,4 15,10 0,6 -6,10 -16,10 -10,0 -20,-4 -26,-10 -1,-1 -2,-1 -3,0l-10 11c-1,1 -1,2 0,2 7,7 20,14 38,14z"/>
   <path id="6" class="fil0" d="M1951 3082c1,0 1,0 1,-1l0 -15c0,-1 0,-2 -1,-2l-5 0c-6,0 -8,-2 -8,-8l0 -46c0,-1 0,-1 1,-1l12 0c1,0 1,-1 1,-2l0 -12c0,-1 0,-2 -1,-2l-12 0c-1,0 -1,0 -1,-1l0 -24c0,-1 -1,-2 -2,-2l-17 0c-1,0 -2,1 -2,2l0 24c0,1 0,1 -1,1l-6 0c-1,0 -1,1 -1,2l0 12c0,1 0,2 1,2l6 0c1,0 1,0 1,1l0 47c0,17 7,25 25,25l9 0z"/>
   <path id="7" class="fil0" d="M2010 3083c16,0 28,-6 36,-15 1,-1 1,-2 0,-2l-11 -10c-1,0 -2,0 -3,1 -4,4 -11,8 -20,8 -10,0 -17,-5 -20,-13 -1,-2 -1,-5 -1,-7 0,-1 0,-1 1,-1l54 0c1,0 2,-1 2,-2 0,-14 -1,-20 -3,-26 -5,-15 -18,-25 -36,-25 -18,0 -31,9 -36,25 -2,5 -3,12 -3,21 0,9 1,16 3,22 5,15 18,24 37,24zm17 -56c0,1 0,1 -1,1l-34 0c-1,0 -1,0 -1,-1 0,-3 0,-5 1,-7 2,-7 9,-11 17,-11 8,0 15,4 17,11 1,2 1,4 1,7z"/>
   <path id="8" class="fil0" d="M2196 3081c1,0 2,0 2,-2l0 -55c0,-19 -11,-33 -32,-33 -12,0 -21,5 -28,12l0 0c-5,-8 -14,-12 -24,-12 -12,0 -20,5 -24,10l0 0 0 -6c0,-1 0,-2 -2,-2l-16 0c-1,0 -2,1 -2,2l0 84c0,2 1,2 2,2l16 0c2,0 2,0 2,-2l0 -50c0,-12 7,-20 17,-20 11,0 17,8 17,20l0 50c0,2 0,2 2,2l16 0c1,0 2,0 2,-2l0 -50c0,-12 6,-20 17,-20 11,0 17,8 17,20l0 50c0,2 0,2 1,2l17 0z"/>
   <path id="9" class="fil0" d="M1269 3280c0,1 0,2 2,2l44 0c21,0 36,-10 41,-28 2,-6 4,-13 4,-34 0,-22 -2,-29 -4,-35 -5,-18 -20,-27 -41,-27l-44 0c-2,0 -2,0 -2,1l0 121zm21 -19l0 -83c0,-1 1,-1 1,-1l19 0c14,0 22,5 26,16 1,3 2,9 2,27 0,18 -1,23 -2,27 -4,11 -12,15 -26,15l-19 0c0,0 -1,0 -1,-1z"/>
   <path id="10" class="fil0" d="M1418 3284c16,0 28,-6 36,-15 0,-1 0,-2 0,-3l-11 -9c-1,-1 -2,-1 -3,0 -4,5 -11,9 -21,9 -9,0 -16,-5 -19,-14 -1,-2 -2,-4 -2,-7 0,0 1,-1 2,-1l54 0c1,0 2,0 2,-1 0,-15 -1,-21 -3,-27 -5,-15 -18,-24 -36,-24 -18,0 -31,9 -36,24 -2,6 -3,13 -3,22 0,9 1,16 3,21 5,16 18,25 37,25zm17 -56c0,1 0,1 -1,1l-34 0c-1,0 -2,0 -2,-1 0,-3 1,-5 2,-8 2,-7 8,-11 17,-11 8,0 15,4 17,11 1,3 1,5 1,8z"/>
   <path id="11" class="fil0" d="M1516 3282c1,0 2,-1 2,-2l31 -84c1,-1 0,-2 -1,-2l-18 0c-1,0 -1,1 -2,2l-19 57 0 0 -19 -57c-1,-1 -2,-2 -3,-2l-18 0c-1,0 -1,1 -1,2l31 84c0,1 1,2 2,2l15 0z"/>
   <path id="12" class="fil0" d="M1600 3284c17,0 29,-6 37,-15 0,-1 0,-2 -1,-3l-10 -9c-1,-1 -2,-1 -3,0 -5,5 -11,9 -21,9 -10,0 -17,-5 -19,-14 -1,-2 -2,-4 -2,-7 0,0 1,-1 1,-1l55 0c1,0 2,0 2,-1 0,-15 -1,-21 -3,-27 -5,-15 -18,-24 -36,-24 -18,0 -32,9 -36,24 -2,6 -3,13 -3,22 0,9 1,16 3,21 5,16 18,25 36,25zm18 -56c0,1 0,1 -1,1l-35 0c0,0 -1,0 -1,-1 0,-3 1,-5 1,-8 3,-7 9,-11 18,-11 8,0 14,4 17,11 1,3 1,5 1,8z"/>
   <path id="13" class="fil0" d="M1692 3283c1,0 2,-1 2,-2l0 -15c0,-1 -1,-1 -2,-1l-4 0c-5,0 -7,-2 -7,-8l0 -98c0,-1 -1,-1 -2,-1l-17 0c-1,0 -2,0 -2,1l0 99c0,17 7,25 24,25l8 0z"/>
   <path id="14" class="fil0" d="M1748 3284c18,0 31,-9 36,-24 2,-7 3,-13 3,-22 0,-10 -1,-16 -3,-22 -5,-15 -18,-24 -36,-24 -18,0 -31,9 -36,24 -2,6 -3,12 -3,22 0,9 1,15 3,22 5,15 18,24 36,24zm0 -18c-8,0 -14,-5 -16,-12 -2,-5 -2,-9 -2,-16 0,-8 0,-12 2,-16 2,-8 8,-12 16,-12 8,0 14,4 17,12 1,4 1,8 1,16 0,7 0,11 -1,16 -3,7 -9,12 -17,12z"/>
   <path id="15" class="fil0" d="M1828 3315c1,0 2,-1 2,-2l0 -40 0 0c4,6 11,11 23,11 15,0 26,-7 31,-21 2,-7 3,-13 3,-25 0,-12 -1,-18 -3,-25 -5,-14 -16,-21 -31,-21 -12,0 -19,4 -23,10l0 0 0 -6c0,-1 -1,-2 -2,-2l-17 0c-1,0 -2,1 -2,2l0 117c0,1 1,2 2,2l17 0zm20 -49c-9,0 -14,-4 -17,-12 -1,-4 -1,-8 -1,-16 0,-8 0,-13 1,-17 3,-7 8,-11 17,-11 8,0 14,4 16,11 1,4 2,9 2,17 0,8 -1,12 -2,16 -2,8 -8,12 -16,12z"/>
   <path id="16" class="fil0" d="M2035 3282c1,0 2,-1 2,-2l0 -56c0,-18 -12,-32 -32,-32 -13,0 -21,4 -28,11l0 0c-6,-7 -14,-11 -24,-11 -12,0 -20,5 -24,10l0 0 0 -6c0,-1 -1,-2 -2,-2l-16 0c-2,0 -2,1 -2,2l0 84c0,1 0,2 2,2l16 0c1,0 2,-1 2,-2l0 -51c0,-11 6,-19 17,-19 11,0 17,8 17,19l0 51c0,1 0,2 1,2l17 0c1,0 2,-1 2,-2l0 -51c0,-11 6,-19 17,-19 11,0 16,8 16,19l0 51c0,1 1,2 2,2l17 0z"/>
   <path id="17" class="fil0" d="M2098 3284c16,0 28,-6 36,-15 1,-1 1,-2 0,-3l-11 -9c-1,-1 -2,-1 -3,0 -4,5 -11,9 -20,9 -10,0 -17,-5 -20,-14 -1,-2 -1,-4 -1,-7 0,0 0,-1 1,-1l54 0c1,0 2,0 2,-1 0,-15 -1,-21 -3,-27 -5,-15 -18,-24 -36,-24 -18,0 -31,9 -36,24 -2,6 -3,13 -3,22 0,9 1,16 3,21 5,16 18,25 37,25zm17 -56c0,1 0,1 -1,1l-34 0c-1,0 -1,0 -1,-1 0,-3 0,-5 1,-8 2,-7 9,-11 17,-11 8,0 15,4 17,11 1,3 1,5 1,8z"/>
   <path id="18" class="fil0" d="M2230 3282c1,0 2,-1 2,-2l0 -56c0,-18 -12,-32 -30,-32 -12,0 -20,5 -24,10l0 0 0 -6c0,-1 0,-2 -2,-2l-16 0c-1,0 -2,1 -2,2l0 84c0,1 1,2 2,2l16 0c2,0 2,-1 2,-2l0 -51c0,-11 6,-19 17,-19 11,0 17,8 17,19l0 51c0,1 0,2 1,2l17 0z"/>
   <path id="19" class="fil0" d="M2292 3283c1,0 2,-1 2,-2l0 -15c0,-1 -1,-1 -2,-1l-4 0c-6,0 -8,-2 -8,-9l0 -45c0,-1 0,-1 1,-1l11 0c1,0 2,-1 2,-2l0 -12c0,-1 -1,-2 -2,-2l-11 0c-1,0 -1,-1 -1,-1l0 -24c0,-1 -1,-2 -2,-2l-17 0c-1,0 -2,1 -2,2l0 24c0,0 0,1 -1,1l-6 0c-1,0 -2,1 -2,2l0 12c0,1 1,2 2,2l6 0c1,0 1,0 1,1l0 46c0,17 7,26 25,26l8 0z"/>
   <path class="fil1" d="M1624 2868c0,2 1,3 2,3l25 0c1,0 2,-1 2,-3l0 -138c0,-1 -1,-2 -2,-2l-24 0c-1,0 -2,0 -3,1l-24 17c-1,1 -2,2 -2,3l0 26c0,2 1,2 3,1l22 -15 1 0 0 107z"/>
   <path id="1" class="fil1" d="M1700 2829c0,27 20,44 48,44 28,0 48,-17 48,-44 0,-16 -8,-27 -17,-33l0 0c7,-5 14,-16 14,-29 0,-22 -16,-42 -45,-42 -29,0 -45,20 -45,42 0,13 7,24 14,29l0 0c-9,6 -17,17 -17,33zm48 -45c-10,0 -16,-8 -16,-17 0,-9 6,-17 16,-17 10,0 16,8 16,17 0,9 -6,17 -16,17l0 0zm-19 44c0,-11 7,-20 19,-20 12,0 19,9 19,20 0,12 -7,20 -19,20 -12,0 -19,-8 -19,-20z"/>
   <path id="2" class="fil1" d="M1840 2871c-1,1 -1,2 1,2l17 0c2,0 3,-1 3,-2l83 -143c1,-2 1,-3 0,-3l-18 0c-2,0 -3,1 -3,3l-83 143zm8 -70c13,0 23,-6 27,-17 2,-4 2,-7 2,-20 0,-14 0,-17 -2,-21 -4,-10 -14,-17 -27,-17 -13,0 -24,7 -27,17 -2,4 -2,7 -2,21 0,13 0,16 2,20 3,11 14,17 27,17zm0 -16c-4,0 -6,-2 -7,-5 -1,-2 -1,-4 -1,-16 0,-13 0,-15 1,-17 1,-3 3,-4 7,-4 4,0 6,1 7,4 1,2 1,4 1,17 0,12 0,14 -1,16 -1,3 -3,5 -7,5zm61 70c3,11 13,17 27,17 13,0 23,-6 27,-17 1,-4 2,-7 2,-20 0,-13 -1,-16 -2,-21 -4,-10 -14,-17 -27,-17 -14,0 -24,7 -27,17 -2,5 -2,8 -2,21 0,13 0,16 2,20zm19 -4c0,-2 0,-3 0,-16 0,-13 0,-15 0,-16 1,-3 4,-5 8,-5 3,0 6,2 7,5 1,1 1,3 1,16 0,13 0,14 -1,16 -1,3 -4,5 -7,5 -4,0 -7,-2 -8,-5z"/>
   <path class="fil0" d="M12 2312c0,1 0,1 1,1l18 0c1,0 2,0 2,-1l0 -121c0,-1 -1,-2 -2,-2l-18 0c-1,0 -1,1 -1,2l0 121z"/>
   <path id="1" class="fil0" d="M60 2285c7,20 22,30 43,30 20,0 35,-10 42,-26 1,-1 0,-2 -1,-2l-15 -8c-1,0 -2,0 -2,1 -4,9 -11,16 -24,16 -12,0 -18,-6 -22,-16 -2,-5 -2,-10 -2,-29 0,-18 0,-23 2,-28 4,-10 10,-16 22,-16 13,0 20,7 24,16 0,1 1,1 2,1l15 -8c1,0 2,-1 1,-2 -7,-17 -22,-27 -42,-27 -21,0 -36,10 -43,31 -2,7 -3,14 -3,33 0,20 1,26 3,34z"/>
   <path id="2" class="fil0" d="M209 2315c22,0 38,-10 44,-29 3,-8 3,-15 3,-35 0,-19 0,-26 -3,-34 -6,-20 -22,-30 -44,-30 -21,0 -37,10 -44,30 -2,8 -3,15 -3,34 0,20 1,27 3,35 7,19 23,29 44,29zm0 -19c-12,0 -19,-6 -23,-16 -1,-5 -2,-11 -2,-29 0,-17 1,-24 2,-28 4,-10 11,-16 23,-16 12,0 20,6 23,16 2,4 2,11 2,28 0,18 0,24 -2,29 -3,10 -11,16 -23,16z"/>
   <path id="3" class="fil0" d="M323 2285c6,20 22,30 43,30 20,0 35,-10 42,-26 0,-1 0,-2 -1,-2l-15 -8c-2,0 -2,0 -3,1 -4,9 -11,16 -23,16 -12,0 -19,-6 -22,-16 -2,-5 -3,-10 -3,-29 0,-18 1,-23 3,-28 3,-10 10,-16 22,-16 12,0 19,7 23,16 1,1 1,1 3,1l15 -8c1,0 1,-1 1,-2 -7,-17 -22,-27 -42,-27 -21,0 -37,10 -43,31 -3,7 -3,14 -3,33 0,20 0,26 3,34z"/>
   <path id="4" class="fil0" d="M462 2315c18,0 32,-8 37,-24 2,-6 2,-12 2,-22 0,-9 0,-15 -2,-21 -5,-16 -19,-25 -37,-25 -18,0 -31,9 -36,25 -2,6 -3,12 -3,21 0,10 1,16 3,22 5,16 18,24 36,24zm0 -18c-8,0 -14,-4 -16,-11 -2,-5 -2,-9 -2,-17 0,-7 0,-11 2,-16 2,-7 8,-11 16,-11 9,0 14,4 17,11 1,5 2,9 2,16 0,8 -1,12 -2,17 -3,7 -8,11 -17,11z"/>
   <path id="5" class="fil0" d="M542 2313c1,0 2,0 2,-1l0 -48c0,-14 5,-22 16,-22 5,0 9,1 13,4 1,1 2,0 3,0l10 -13c0,-1 0,-1 -1,-2 -4,-5 -11,-8 -18,-8 -11,0 -19,5 -23,12l0 0 0 -8c0,-1 -1,-2 -2,-2l-17 0c-1,0 -2,1 -2,2l0 85c0,1 1,1 2,1l17 0z"/>
   <path id="6" class="fil0" d="M634 2315c16,0 29,-6 36,-15 1,0 1,-1 0,-2l-11 -10c-1,0 -2,0 -3,1 -4,5 -10,8 -20,8 -10,0 -17,-5 -20,-13 -1,-2 -1,-4 -1,-7 0,-1 0,-1 1,-1l54 0c1,0 2,-1 2,-2 0,-14 -1,-20 -3,-26 -5,-15 -18,-25 -36,-25 -18,0 -31,9 -36,25 -2,5 -3,12 -3,21 0,10 1,16 3,22 5,15 18,24 37,24zm17 -55c0,0 0,1 -1,1l-34 0c-1,0 -1,-1 -1,-1 0,-4 0,-6 1,-8 2,-7 9,-11 17,-11 8,0 15,4 17,11 1,2 1,4 1,8z"/>
   <path id="7" class="fil0" d="M181 2501c2,0 2,0 2,-1l0 -102c0,-1 1,-1 1,-1l33 0c1,0 2,-1 2,-2l0 -16c0,-1 -1,-2 -2,-2l-89 0c-1,0 -2,1 -2,2l0 16c0,1 1,2 2,2l33 0c0,0 1,0 1,1l0 102c0,1 1,1 2,1l17 0z"/>
   <path id="8" class="fil0" d="M258 2503c16,0 29,-6 36,-14 1,-1 1,-2 0,-3l-11 -10c-1,0 -2,0 -3,1 -4,5 -10,8 -20,8 -10,0 -17,-5 -20,-13 -1,-2 -1,-4 -1,-7 0,-1 0,-1 1,-1l54 0c1,0 2,-1 2,-2 0,-14 -1,-20 -3,-26 -5,-15 -18,-25 -36,-25 -17,0 -31,9 -36,25 -2,5 -3,12 -3,21 0,10 1,16 3,22 5,15 18,24 37,24zm18 -55c0,0 -1,1 -2,1l-34 0c-1,0 -1,-1 -1,-1 0,-4 0,-6 1,-8 2,-7 9,-11 17,-11 9,0 15,4 17,11 1,2 2,4 2,8z"/>
   <path id="9" class="fil0" d="M386 2501c1,0 2,0 2,-1l0 -58c0,-21 -10,-31 -37,-31 -14,0 -24,4 -31,9 -1,1 -1,1 -1,2l7 12c1,1 2,2 3,1 4,-3 10,-6 20,-6 15,0 19,4 19,14l0 5c0,0 0,1 -1,1l-18 0c-21,0 -35,8 -35,28 0,18 14,26 30,26 12,0 20,-4 25,-10l0 0 0 7c0,1 0,1 2,1l15 0zm-37 -14c-10,0 -15,-4 -15,-11 0,-8 5,-12 19,-12l14 0c1,0 1,0 1,1l0 7c0,10 -7,15 -19,15z"/>
   <path id="10" class="fil0" d="M540 2501c1,0 2,0 2,-1l0 -56c0,-19 -12,-33 -32,-33 -13,0 -22,5 -28,12l0 0c-6,-7 -14,-12 -25,-12 -11,0 -19,5 -23,11l0 0 0 -7c0,-1 -1,-2 -2,-2l-17 0c-1,0 -1,1 -1,2l0 85c0,1 0,1 1,1l17 0c1,0 2,0 2,-1l0 -51c0,-11 6,-19 17,-19 11,0 16,8 16,19l0 51c0,1 1,1 2,1l17 0c1,0 2,0 2,-1l0 -51c0,-11 6,-19 17,-19 11,0 16,8 16,19l0 51c0,1 1,1 2,1l17 0z"/>
   <path class="fil0" d="M206 1070c-14,0 -24,-9 -24,-27l0 -78c0,-1 0,-2 -1,-2l-18 0c-1,0 -2,1 -2,2l0 79c0,29 19,45 45,45 27,0 46,-16 46,-45l0 -79c0,-1 0,-2 -2,-2l-17 0c-2,0 -2,1 -2,2l0 78c0,18 -10,27 -25,27z"/>
   <path id="1" class="fil0" d="M311 1089c24,0 37,-12 37,-29 0,-15 -9,-24 -27,-26l-10 -1c-11,-1 -14,-4 -14,-9 0,-6 4,-9 13,-9 9,0 18,3 23,7 1,0 2,0 3,0l9 -11c0,-1 0,-2 -1,-3 -8,-6 -19,-11 -33,-11 -22,0 -34,11 -34,28 0,15 9,24 27,26l10 1c11,1 14,4 14,10 0,6 -5,10 -16,10 -9,0 -19,-4 -26,-10 0,-1 -2,-1 -2,0l-11 11c0,1 0,2 0,3 8,6 20,13 38,13z"/>
   <path id="2" class="fil0" d="M405 1089c16,0 28,-6 36,-15 1,0 1,-1 0,-2l-11 -10c-1,0 -2,0 -3,1 -4,5 -11,8 -21,8 -9,0 -16,-5 -19,-13 -1,-2 -2,-4 -2,-7 0,-1 1,-1 2,-1l54 0c1,0 2,-1 2,-2 0,-14 -1,-20 -3,-26 -5,-15 -18,-25 -36,-25 -18,0 -31,9 -36,25 -2,5 -3,12 -3,21 0,10 1,16 3,22 5,15 18,24 37,24zm17 -55c0,0 0,1 -1,1l-34 0c-1,0 -2,-1 -2,-1 0,-4 1,-6 2,-8 2,-7 8,-11 17,-11 8,0 15,4 17,11 1,2 1,4 1,8z"/>
   <path id="3" class="fil0" d="M483 1087c1,0 2,0 2,-1l0 -48c0,-14 5,-22 17,-22 5,0 9,1 13,4 1,1 2,0 2,0l10 -13c1,-1 1,-1 0,-2 -5,-5 -12,-8 -19,-8 -11,0 -18,5 -23,12l0 0 0 -8c0,-1 -1,-2 -2,-2l-16 0c-2,0 -2,1 -2,2l0 85c0,1 0,1 2,1l16 0z"/>
   <path id="4" class="fil0" d="M91 1267c1,0 2,-1 1,-2l-26 -51c14,-5 23,-18 23,-34 0,-22 -16,-37 -39,-37l-48 0c-1,0 -2,1 -2,2l0 120c0,2 1,2 2,2l18 0c1,0 2,0 2,-2l0 -47c0,-1 0,-1 1,-1l21 0 24 48c0,2 1,2 2,2l21 0zm-42 -69l-26 0c-1,0 -1,-1 -1,-1l0 -33c0,-1 0,-2 1,-2l26 0c11,0 19,7 19,18 0,11 -8,18 -19,18z"/>
   <path id="5" class="fil0" d="M145 1269c17,0 29,-6 37,-15 0,-1 0,-2 -1,-2l-10 -10c-1,0 -2,0 -3,1 -5,4 -11,8 -21,8 -10,0 -17,-5 -20,-13 0,-2 -1,-5 -1,-7 0,-1 1,-1 1,-1l55 0c1,0 2,-1 2,-2 0,-14 -1,-20 -3,-26 -5,-15 -18,-25 -37,-25 -17,0 -31,9 -36,25 -1,5 -2,12 -2,21 0,9 1,16 3,22 5,15 18,24 36,24zm18 -56c0,1 0,1 -1,1l-35 0c0,0 -1,0 -1,-1 0,-3 1,-5 1,-7 3,-7 9,-11 18,-11 8,0 14,4 17,11 1,2 1,4 1,7z"/>
   <path id="6" class="fil0" d="M295 1267c1,0 2,0 3,-2l27 -84c1,-1 0,-2 -1,-2l-18 0c-1,0 -2,1 -2,2l-16 58 0 0 -18 -58c-1,-1 -2,-2 -3,-2l-13 0c-1,0 -2,1 -2,2l-17 58 0 0 -17 -58c-1,-1 -1,-2 -3,-2l-17 0c-1,0 -2,1 -1,2l27 84c1,2 1,2 2,2l15 0c2,0 2,0 3,-2l17 -56 0 0 17 56c1,2 1,2 2,2l15 0z"/>
   <path id="7" class="fil0" d="M410 1267c1,0 1,0 1,-2l0 -57c0,-22 -9,-31 -36,-31 -15,0 -24,4 -31,9 -1,0 -1,1 -1,2l7 12c0,1 2,1 2,1 5,-4 11,-6 21,-6 14,0 19,4 19,14l0 4c0,1 0,1 -1,1l-18 0c-22,0 -35,9 -35,28 0,19 13,27 29,27 13,0 21,-4 25,-10l0 0 0 6c0,2 1,2 2,2l16 0zm-37 -14c-10,0 -16,-4 -16,-11 0,-9 6,-12 19,-12l15 0c1,0 1,0 1,1l0 7c0,10 -7,15 -19,15z"/>
   <path id="8" class="fil0" d="M456 1267c1,0 2,0 2,-2l0 -47c0,-14 5,-23 16,-23 5,0 9,2 13,5 1,0 2,0 3,-1l10 -12c0,-1 0,-2 -1,-2 -4,-5 -11,-8 -18,-8 -11,0 -19,5 -23,12l0 0 0 -8c0,-1 -1,-2 -2,-2l-17 0c-1,0 -2,1 -2,2l0 84c0,2 1,2 2,2l17 0z"/>
   <path id="9" class="fil0" d="M584 1267c1,0 2,0 2,-2l0 -120c0,-1 -1,-2 -2,-2l-17 0c-1,0 -2,1 -2,2l0 43 0 0c-4,-6 -11,-11 -23,-11 -15,0 -26,7 -31,21 -2,7 -3,13 -3,25 0,12 1,18 3,25 5,14 16,21 31,21 12,0 19,-4 23,-10l0 0 0 6c0,2 1,2 2,2l17 0zm-37 -16c-8,0 -14,-4 -16,-11 -1,-4 -2,-9 -2,-17 0,-8 1,-12 2,-16 2,-7 8,-12 16,-12 9,0 14,5 17,12 1,4 1,8 1,16 0,8 0,13 -1,17 -3,7 -8,11 -17,11z"/>
   <path id="10" class="fil0" d="M645 1269c24,0 37,-12 37,-30 0,-14 -9,-23 -27,-25l-10 -1c-11,-1 -14,-4 -14,-9 0,-6 4,-10 13,-10 9,0 18,4 23,8 1,0 2,0 3,-1l9 -10c0,-1 0,-2 -1,-3 -8,-6 -19,-11 -33,-11 -22,0 -34,11 -34,28 0,15 9,24 27,26l10 1c11,1 14,4 14,10 0,6 -5,10 -16,10 -9,0 -19,-4 -26,-10 -1,-1 -2,-1 -2,0l-11 11c0,1 0,2 0,2 8,7 20,14 38,14z"/>
   <path class="fil1" d="M182 859c4,20 22,32 46,32 27,0 47,-17 47,-43 0,-19 -10,-31 -19,-35l0 0c11,-7 16,-17 16,-30 0,-23 -16,-39 -44,-39 -25,0 -41,14 -45,33 0,1 1,2 2,2l23 4c1,1 2,0 2,-1 3,-8 8,-13 17,-13 10,0 16,6 16,16 0,11 -7,18 -18,18l-6 0c-1,0 -2,1 -2,2l0 21c0,1 1,2 2,2l7 0c12,0 20,7 20,20 0,11 -7,19 -18,19 -10,0 -16,-6 -19,-14 0,-1 -1,-2 -2,-2l-23 5c-2,0 -2,1 -2,3z"/>
   <path id="1" class="fil1" d="M302 862c6,18 21,29 43,29 23,0 37,-11 43,-29 2,-6 3,-13 3,-44 0,-32 -1,-39 -3,-45 -6,-18 -20,-29 -43,-29 -22,0 -37,11 -43,29 -2,6 -3,13 -3,45 0,31 1,38 3,44zm29 -5c-1,-4 -2,-8 -2,-39 0,-32 1,-36 2,-40 2,-6 7,-9 14,-9 8,0 13,3 15,9 1,4 1,8 1,40 0,31 0,35 -1,39 -2,6 -7,10 -15,10 -7,0 -12,-4 -14,-10z"/>
   <path id="2" class="fil1" d="M437 889c-1,1 0,2 1,2l17 0c2,0 3,0 4,-2l83 -143c0,-1 0,-2 -1,-2l-18 0c-2,0 -2,1 -3,2l-83 143zm8 -69c14,0 24,-7 27,-18 2,-4 2,-7 2,-20 0,-13 0,-16 -2,-20 -3,-11 -13,-17 -27,-17 -13,0 -23,6 -27,17 -1,4 -2,7 -2,20 0,13 1,16 2,20 4,11 14,18 27,18zm0 -17c-3,0 -6,-2 -7,-5 -1,-1 -1,-3 -1,-16 0,-13 0,-14 1,-16 1,-3 4,-5 7,-5 4,0 7,2 8,5 0,2 0,3 0,16 0,13 0,15 0,16 -1,3 -4,5 -8,5zm61 70c4,11 13,18 27,18 13,0 24,-7 27,-18 1,-4 2,-7 2,-20 0,-13 -1,-16 -2,-20 -3,-11 -14,-17 -27,-17 -14,0 -23,6 -27,17 -2,4 -2,7 -2,20 0,13 0,16 2,20zm20 -4c-1,-1 -1,-3 -1,-16 0,-12 0,-14 1,-16 1,-3 3,-5 7,-5 4,0 6,2 7,5 1,2 1,4 1,16 0,13 0,15 -1,16 -1,4 -3,5 -7,5 -4,0 -6,-1 -7,-5z"/>
   <path class="fil16" d="M634 2038l466 0 0 14 -466 0 0 -14z"/>
   <path class="fil17" d="M1823 2357l0 308 -15 0 0 -308 15 0z"/>
   <path class="fil1" d="M217 2121c0,2 0,2 2,2l25 0c1,0 2,0 2,-2l0 -138c0,-2 -1,-2 -2,-2l-24 0c-1,0 -2,0 -3,1l-24 17c-1,1 -2,2 -2,3l0 26c0,2 1,2 2,1l23 -15 1 0 0 107z"/>
   <path id="1" class="fil1" d="M297 2094c3,19 20,32 44,32 21,0 37,-9 43,-27 1,-6 3,-13 3,-22 0,-12 -1,-19 -3,-25 -5,-16 -19,-24 -37,-24 -11,0 -18,4 -21,7l-1 0 0 -28c0,-1 0,-1 1,-1l55 0c1,0 2,-1 2,-2l0 -21c0,-2 -1,-2 -2,-2l-80 0c-1,0 -2,0 -2,2l0 78c0,2 1,2 2,2l23 0c1,0 2,0 2,-2 3,-4 7,-8 15,-8 7,0 13,3 15,10 1,3 2,7 2,14 0,7 -1,11 -2,14 -2,7 -8,10 -15,10 -9,0 -14,-5 -17,-12 0,-1 -1,-2 -2,-1l-23 4c-1,0 -2,1 -2,2l0 0z"/>
   <path id="2" class="fil1" d="M433 2124c-1,1 -1,2 1,2l17 0c2,0 3,-1 3,-2l83 -144c1,-1 1,-2 -1,-2l-17 0c-2,0 -3,1 -4,2l-82 144zm8 -70c13,0 23,-7 27,-17 1,-4 2,-7 2,-20 0,-14 -1,-17 -2,-21 -4,-10 -14,-17 -27,-17 -14,0 -24,7 -27,17 -2,4 -2,7 -2,21 0,13 0,16 2,20 3,10 13,17 27,17zm0 -16c-4,0 -6,-2 -7,-5 -1,-2 -1,-4 -1,-16 0,-13 0,-15 1,-17 1,-3 3,-4 7,-4 3,0 6,1 7,4 1,2 1,4 1,17 0,12 0,14 -1,16 -1,3 -4,5 -7,5zm61 70c3,11 13,17 27,17 13,0 23,-6 27,-17 1,-4 2,-7 2,-20 0,-13 -1,-16 -2,-21 -4,-10 -14,-17 -27,-17 -14,0 -24,7 -27,17 -2,5 -2,8 -2,21 0,13 0,16 2,20zm19 -4c0,-2 0,-3 0,-16 0,-13 0,-15 0,-16 1,-4 4,-5 8,-5 3,0 6,1 7,5 1,1 1,3 1,16 0,13 0,14 -1,16 -1,3 -4,5 -7,5 -4,0 -7,-2 -8,-5z"/>
   <path class="fil18" d="M3024 2177l-629 0 0 14 629 0 0 -14z"/>
   <g>
    <path class="fil0" d="M4159 1490c0,1 1,2 2,2l87 0c1,0 2,-1 2,-2l0 -17c0,-2 -1,-2 -2,-2l-63 0c-1,0 -2,-1 -2,-2l0 -35c0,0 1,-1 2,-1l53 0c1,0 2,-1 2,-2l0 -17c0,-2 -1,-2 -2,-2l-53 0c-1,0 -2,-1 -2,-2l0 -33c0,-1 1,-1 2,-1l63 0c1,0 2,-1 2,-3l0 -17c0,-1 -1,-2 -2,-2l-87 0c-1,0 -2,1 -2,2l0 134z"/>
    <path id="1" class="fil0" d="M4313 1494c15,0 26,-6 34,-15 1,-1 1,-2 0,-3l-13 -11c-1,0 -2,0 -3,1 -5,5 -10,8 -18,8 -9,0 -15,-4 -18,-13 -2,-4 -2,-10 -2,-18 0,-7 0,-13 2,-18 3,-8 9,-13 18,-13 8,0 13,3 18,9 1,1 2,1 3,0l13 -11c1,-1 1,-2 0,-3 -8,-9 -19,-15 -34,-15 -20,0 -35,10 -40,27 -2,6 -3,14 -3,24 0,11 1,18 3,24 5,18 20,27 40,27z"/>
    <path id="2" class="fil0" d="M4410 1494c19,0 34,-10 40,-27 2,-7 3,-13 3,-24 0,-11 -1,-17 -3,-24 -6,-17 -21,-27 -40,-27 -20,0 -35,10 -41,27 -2,7 -3,13 -3,24 0,11 1,17 3,24 6,17 21,27 41,27zm0 -20c-9,0 -16,-5 -19,-13 -1,-5 -2,-9 -2,-18 0,-8 1,-13 2,-18 3,-8 10,-13 19,-13 9,0 15,5 18,13 2,5 2,10 2,18 0,9 0,13 -2,18 -3,8 -9,13 -18,13z"/>
    <path id="3" class="fil0" d="M4514 1494c27,0 41,-13 41,-33 0,-16 -10,-26 -30,-28l-11 -1c-13,-2 -16,-5 -16,-11 0,-6 5,-10 15,-10 10,0 19,4 25,8 1,1 2,1 3,0l10 -12c1,-1 1,-2 0,-3 -9,-7 -22,-12 -37,-12 -24,0 -38,12 -38,31 0,17 10,27 30,29l11 1c12,1 16,5 16,10 0,7 -6,12 -18,12 -10,0 -22,-5 -29,-11 -1,-1 -2,-1 -3,0l-11 12c-1,1 -1,2 0,3 8,7 22,15 42,15z"/>
    <path id="4" class="fil0" d="M4589 1529c16,0 24,-8 32,-31l38 -102c0,-1 -1,-2 -2,-2l-19 0c-1,0 -2,1 -2,2l-22 64 0 0 -22 -64c-1,-1 -1,-2 -3,-2l-20 0c-1,0 -2,1 -1,2l35 92 -2 9c-3,8 -7,11 -15,11l-4 0c-1,0 -2,1 -2,2l0 17c0,1 1,2 2,2l7 0z"/>
    <path id="5" class="fil0" d="M4712 1494c26,0 41,-13 41,-33 0,-16 -10,-26 -31,-28l-10 -1c-13,-2 -16,-5 -16,-11 0,-6 5,-10 14,-10 10,0 20,4 26,8 1,1 2,1 3,0l10 -12c1,-1 1,-2 -1,-3 -8,-7 -21,-12 -36,-12 -25,0 -38,12 -38,31 0,17 10,27 30,29l10 1c13,1 17,5 17,10 0,7 -6,12 -18,12 -11,0 -22,-5 -29,-11 -1,-1 -2,-1 -3,0l-12 12c0,1 0,2 0,3 9,7 22,15 43,15z"/>
    <path id="6" class="fil0" d="M4815 1493c1,0 2,0 2,-2l0 -16c0,-1 -1,-2 -2,-2l-5 0c-6,0 -9,-2 -9,-9l0 -51c0,-1 0,-1 1,-1l13 0c1,0 2,-1 2,-2l0 -14c0,-1 -1,-2 -2,-2l-13 0c-1,0 -1,0 -1,-1l0 -27c0,-1 -1,-2 -2,-2l-19 0c-1,0 -2,1 -2,2l0 27c0,1 0,1 -1,1l-7 0c-1,0 -2,1 -2,2l0 14c0,1 1,2 2,2l7 0c1,0 1,0 1,1l0 52c0,19 7,28 27,28l10 0z"/>
    <path id="7" class="fil0" d="M4881 1494c18,0 32,-7 40,-16 1,-1 1,-2 0,-3l-12 -11c-1,-1 -2,0 -3,1 -5,5 -12,9 -23,9 -11,0 -19,-5 -22,-15 -1,-2 -2,-4 -2,-7 0,-1 1,-2 2,-2l60 0c1,0 2,0 2,-2 0,-15 -1,-22 -3,-29 -5,-17 -20,-27 -40,-27 -20,0 -35,10 -40,27 -2,6 -4,14 -4,24 0,10 2,18 4,24 5,17 20,27 41,27zm19 -62c0,1 0,1 -1,1l-38 0c-1,0 -2,0 -2,-1 0,-3 1,-6 2,-8 2,-8 10,-13 19,-13 9,0 16,5 19,13 1,2 1,5 1,8z"/>
    <path id="8" class="fil0" d="M5088 1492c1,0 2,-1 2,-2l0 -62c0,-21 -13,-36 -35,-36 -14,0 -24,5 -32,13l0 0c-6,-8 -15,-13 -27,-13 -13,0 -21,5 -25,11l-1 0 0 -7c0,-1 0,-2 -2,-2l-18 0c-2,0 -2,1 -2,2l0 94c0,1 0,2 2,2l18 0c2,0 2,-1 2,-2l0 -56c0,-13 7,-22 19,-22 12,0 19,9 19,22l0 56c0,1 0,2 2,2l18 0c2,0 2,-1 2,-2l0 -56c0,-13 7,-22 19,-22 12,0 19,9 19,22l0 56c0,1 0,2 2,2l18 0z"/>
    <path id="9" class="fil0" d="M5167 1490c0,1 1,2 2,2l50 0c23,0 39,-10 46,-31 2,-6 3,-14 3,-38 0,-24 -1,-31 -3,-38 -7,-20 -23,-31 -46,-31l-50 0c-1,0 -2,1 -2,2l0 134zm24 -21l0 -92c0,-1 1,-1 2,-1l20 0c15,0 25,5 29,17 1,4 2,10 2,30 0,20 -1,26 -2,30 -4,13 -14,18 -29,18l-20 0c-1,0 -2,-1 -2,-2z"/>
    <path id="10" class="fil0" d="M5333 1494c18,0 32,-7 40,-16 1,-1 1,-2 0,-3l-12 -11c-1,-1 -2,0 -3,1 -5,5 -12,9 -23,9 -11,0 -19,-5 -22,-15 -1,-2 -1,-4 -1,-7 0,-1 0,-2 1,-2l60 0c2,0 2,0 2,-2 0,-15 -1,-22 -3,-29 -5,-17 -20,-27 -40,-27 -20,0 -35,10 -40,27 -2,6 -3,14 -3,24 0,10 1,18 3,24 6,17 20,27 41,27zm19 -62c0,1 0,1 -1,1l-38 0c-1,0 -1,0 -1,-1 0,-3 0,-6 1,-8 2,-8 10,-13 19,-13 9,0 17,5 19,13 1,2 1,5 1,8z"/>
    <path id="11" class="fil0" d="M5442 1492c2,0 3,-1 3,-2l35 -94c0,-1 -1,-2 -2,-2l-19 0c-2,0 -3,1 -3,2l-21 64 0 0 -22 -64c0,-1 -1,-2 -2,-2l-20 0c-2,0 -2,1 -2,2l35 94c0,1 1,2 2,2l16 0z"/>
    <path id="12" class="fil0" d="M5536 1494c18,0 32,-7 41,-16 0,-1 0,-2 -1,-3l-12 -11c-1,-1 -2,0 -3,1 -5,5 -12,9 -23,9 -11,0 -18,-5 -22,-15 0,-2 -1,-4 -1,-7 0,-1 0,-2 1,-2l61 0c1,0 2,0 2,-2 0,-15 -1,-22 -3,-29 -6,-17 -21,-27 -41,-27 -19,0 -34,10 -40,27 -2,6 -3,14 -3,24 0,10 1,18 3,24 6,17 21,27 41,27zm20 -62c0,1 -1,1 -1,1l-39 0c-1,0 -1,0 -1,-1 0,-3 0,-6 1,-8 3,-8 10,-13 20,-13 9,0 16,5 19,13 0,2 1,5 1,8z"/>
    <path id="13" class="fil0" d="M5639 1493c1,0 2,0 2,-2l0 -16c0,-1 -1,-2 -2,-2l-5 0c-6,0 -8,-2 -8,-9l0 -108c0,-1 -1,-2 -2,-2l-19 0c-1,0 -2,1 -2,2l0 109c0,19 8,28 27,28l9 0z"/>
    <path id="14" class="fil0" d="M5701 1494c19,0 34,-10 40,-27 2,-7 3,-13 3,-24 0,-11 -1,-17 -3,-24 -6,-17 -21,-27 -40,-27 -20,0 -35,10 -41,27 -2,7 -3,13 -3,24 0,11 1,17 3,24 6,17 21,27 41,27zm0 -20c-9,0 -16,-5 -19,-13 -1,-5 -2,-9 -2,-18 0,-8 1,-13 2,-18 3,-8 10,-13 19,-13 9,0 15,5 18,13 2,5 2,10 2,18 0,9 0,13 -2,18 -3,8 -9,13 -18,13z"/>
    <path id="15" class="fil0" d="M5789 1529c2,0 2,-1 2,-2l0 -44 1 0c4,7 12,11 26,11 16,0 28,-8 34,-23 2,-8 3,-15 3,-28 0,-13 -1,-20 -3,-27 -6,-16 -18,-24 -34,-24 -14,0 -22,5 -26,12l-1 0 0 -8c0,-1 0,-2 -2,-2l-18 0c-2,0 -2,1 -2,2l0 131c0,1 0,2 2,2l18 0zm23 -55c-10,0 -16,-4 -19,-13 -1,-4 -2,-9 -2,-18 0,-9 1,-14 2,-18 3,-8 9,-13 19,-13 9,0 15,5 18,13 1,4 2,9 2,18 0,9 -1,14 -2,18 -3,9 -9,13 -18,13z"/>
    <path id="16" class="fil0" d="M6020 1492c1,0 2,-1 2,-2l0 -62c0,-21 -13,-36 -36,-36 -14,0 -23,5 -31,13l0 0c-6,-8 -15,-13 -27,-13 -13,0 -21,5 -26,11l0 0 0 -7c0,-1 -1,-2 -2,-2l-19 0c-1,0 -2,1 -2,2l0 94c0,1 1,2 2,2l19 0c1,0 2,-1 2,-2l0 -56c0,-13 7,-22 19,-22 12,0 18,9 18,22l0 56c0,1 1,2 2,2l19 0c1,0 2,-1 2,-2l0 -56c0,-13 7,-22 19,-22 12,0 18,9 18,22l0 56c0,1 1,2 2,2l19 0z"/>
    <path id="17" class="fil0" d="M6090 1494c18,0 32,-7 40,-16 1,-1 1,-2 0,-3l-12 -11c-1,-1 -2,0 -3,1 -5,5 -12,9 -23,9 -11,0 -19,-5 -22,-15 -1,-2 -2,-4 -2,-7 0,-1 1,-2 2,-2l60 0c1,0 2,0 2,-2 0,-15 -1,-22 -3,-29 -6,-17 -20,-27 -40,-27 -20,0 -35,10 -40,27 -2,6 -4,14 -4,24 0,10 2,18 4,24 5,17 20,27 41,27zm19 -62c0,1 0,1 -1,1l-38 0c-1,0 -2,0 -2,-1 0,-3 1,-6 2,-8 2,-8 10,-13 19,-13 9,0 16,5 19,13 1,2 1,5 1,8z"/>
    <path id="18" class="fil0" d="M6237 1492c1,0 2,-1 2,-2l0 -62c0,-21 -13,-36 -34,-36 -13,0 -21,5 -26,11l0 0 0 -7c0,-1 -1,-2 -2,-2l-18 0c-2,0 -2,1 -2,2l0 94c0,1 0,2 2,2l18 0c1,0 2,-1 2,-2l0 -56c0,-13 7,-22 19,-22 12,0 18,9 18,22l0 56c0,1 1,2 3,2l18 0z"/>
    <path id="19" class="fil0" d="M6306 1493c2,0 2,0 2,-2l0 -16c0,-1 0,-2 -2,-2l-5 0c-6,0 -9,-2 -9,-9l0 -51c0,-1 0,-1 1,-1l13 0c2,0 2,-1 2,-2l0 -14c0,-1 0,-2 -2,-2l-13 0c-1,0 -1,0 -1,-1l0 -27c0,-1 -1,-2 -2,-2l-19 0c-1,0 -2,1 -2,2l0 27c0,1 0,1 -1,1l-6 0c-2,0 -2,1 -2,2l0 14c0,1 0,2 2,2l6 0c1,0 1,0 1,1l0 52c0,19 8,28 28,28l9 0z"/>
    <path class="fil0" d="M4608 1668c0,22 13,37 39,37 14,0 24,-5 36,-17l3 4c7,9 11,11 20,11l7 0c1,0 2,-1 2,-2l0 -16c0,-2 -1,-2 -2,-2l-3 0c-4,0 -6,-2 -9,-5l-4 -6 16 -20c1,-1 0,-2 -1,-3l-11 -9c-1,-1 -2,-1 -3,0l-13 17 -22 -28c18,-14 24,-23 24,-35 0,-17 -13,-32 -34,-32 -19,0 -34,14 -34,32 0,10 4,17 15,32 -19,15 -26,28 -26,42zm43 -54c-9,-12 -11,-16 -11,-20 0,-8 6,-13 13,-13 8,0 13,6 13,12 0,6 -2,11 -15,21l0 0zm-22 53c0,-8 4,-15 17,-26l25 32c-9,9 -15,12 -23,12 -12,0 -19,-7 -19,-18z"/>
    <path id="1" class="fil0" d="M4840 1684c-16,0 -27,-11 -27,-30l0 -87c0,-1 -1,-2 -2,-2l-20 0c-1,0 -2,1 -2,2l0 87c0,32 22,51 51,51 29,0 51,-19 51,-51l0 -87c0,-1 -1,-2 -2,-2l-20 0c-1,0 -2,1 -2,2l0 87c0,19 -11,30 -27,30z"/>
    <path id="2" class="fil0" d="M4956 1705c27,0 41,-13 41,-33 0,-16 -9,-27 -30,-29l-11 -1c-12,-1 -16,-4 -16,-10 0,-6 5,-10 15,-10 10,0 20,4 26,8 1,1 2,1 3,0l10 -12c0,-1 0,-2 -1,-3 -9,-7 -21,-12 -37,-12 -24,0 -38,12 -38,31 0,16 11,26 31,28l10 1c13,2 16,5 16,11 0,7 -6,12 -18,12 -10,0 -21,-5 -28,-11 -1,-1 -2,-1 -3,0l-12 12c-1,1 -1,2 0,3 8,7 22,15 42,15z"/>
    <path id="3" class="fil0" d="M5060 1705c18,0 32,-7 41,-17 0,-1 0,-2 -1,-2l-12 -11c-1,-1 -2,-1 -3,0 -5,6 -12,10 -23,10 -11,0 -18,-5 -22,-15 0,-2 -1,-5 -1,-8 0,0 0,-1 1,-1l61 0c1,0 2,-1 2,-2 0,-16 -1,-22 -3,-29 -6,-17 -21,-27 -41,-27 -19,0 -34,10 -40,27 -2,6 -3,14 -3,24 0,10 1,18 3,24 6,17 21,27 41,27zm20 -62c0,1 -1,1 -1,1l-39 0c-1,0 -1,0 -1,-1 0,-3 0,-6 1,-8 3,-8 10,-13 19,-13 10,0 17,5 20,13 0,2 1,5 1,8z"/>
    <path id="4" class="fil0" d="M5148 1703c1,0 2,-1 2,-2l0 -53c0,-16 6,-25 18,-25 6,0 10,2 15,5 1,1 2,0 3,-1l10 -13c1,-1 1,-2 0,-3 -5,-5 -13,-8 -20,-8 -13,0 -21,5 -26,12l0 0 0 -8c0,-1 -1,-2 -2,-2l-19 0c-1,0 -2,1 -2,2l0 94c0,1 1,2 2,2l19 0z"/>
    <path id="5" class="fil0" d="M5362 1703c2,0 3,-1 2,-3l-29 -56c16,-6 26,-20 26,-38 0,-24 -19,-41 -44,-41l-53 0c-2,0 -3,1 -3,2l0 134c0,1 1,2 3,2l19 0c2,0 2,-1 2,-2l0 -53c0,-1 1,-1 2,-1l23 0 27 54c0,1 1,2 3,2l22 0zm-46 -78l-29 0c-1,0 -2,0 -2,-1l0 -37c0,0 1,-1 2,-1l29 0c13,0 21,8 21,20 0,12 -8,19 -21,19z"/>
    <path id="6" class="fil0" d="M5423 1705c18,0 32,-7 40,-17 1,-1 1,-2 0,-2l-12 -11c-1,-1 -2,-1 -3,0 -5,6 -12,10 -23,10 -11,0 -18,-5 -22,-15 -1,-2 -1,-5 -1,-8 0,0 0,-1 1,-1l60 0c2,0 3,-1 3,-2 0,-16 -1,-22 -4,-29 -5,-17 -20,-27 -40,-27 -19,0 -34,10 -40,27 -2,6 -3,14 -3,24 0,10 1,18 3,24 6,17 20,27 41,27zm20 -62c0,1 -1,1 -1,1l-39 0c-1,0 -1,0 -1,-1 0,-3 0,-6 1,-8 3,-8 10,-13 19,-13 10,0 17,5 20,13 0,2 1,5 1,8z"/>
    <path id="7" class="fil0" d="M5590 1703c1,0 2,-1 3,-2l30 -94c1,-1 0,-2 -1,-2l-20 0c-1,0 -2,1 -2,2l-18 65 0 0 -20 -65c-1,-1 -2,-2 -3,-2l-15 0c-1,0 -2,1 -2,2l-19 65 0 0 -19 -65c-1,-1 -2,-2 -3,-2l-19 0c-2,0 -2,1 -2,2l31 94c0,1 1,2 2,2l17 0c1,0 2,-1 3,-2l19 -63 0 0 19 63c0,1 1,2 2,2l17 0z"/>
    <path id="8" class="fil0" d="M5717 1703c1,0 2,-1 2,-2l0 -64c0,-24 -11,-34 -41,-34 -16,0 -26,4 -34,9 -1,1 -1,2 -1,3l8 13c0,1 2,2 3,1 4,-4 11,-7 22,-7 16,0 22,5 22,16l0 5c0,1 -1,1 -1,1l-20 0c-25,0 -40,10 -40,31 0,21 15,30 33,30 14,0 23,-5 28,-11l0 0 0 7c0,1 1,2 2,2l17 0zm-41 -16c-11,0 -17,-4 -17,-13 0,-9 7,-13 21,-13l17 0c0,0 1,1 1,1l0 8c0,11 -8,17 -22,17z"/>
    <path id="9" class="fil0" d="M5769 1703c1,0 2,-1 2,-2l0 -53c0,-16 6,-25 18,-25 6,0 10,2 15,5 1,1 2,0 3,-1l10 -13c1,-1 1,-2 0,-3 -5,-5 -13,-8 -20,-8 -13,0 -21,5 -26,12l0 0 0 -8c0,-1 -1,-2 -2,-2l-19 0c-1,0 -2,1 -2,2l0 94c0,1 1,2 2,2l19 0z"/>
    <path id="10" class="fil0" d="M5911 1703c2,0 2,-1 2,-2l0 -134c0,-1 0,-2 -2,-2l-18 0c-2,0 -2,1 -2,2l0 47 -1 0c-4,-6 -12,-11 -26,-11 -16,0 -28,8 -34,23 -2,8 -3,15 -3,28 0,13 1,20 3,28 6,15 18,23 34,23 14,0 22,-5 26,-11l1 0 0 7c0,1 0,2 2,2l18 0zm-41 -18c-9,0 -15,-5 -18,-13 -1,-4 -2,-9 -2,-18 0,-9 1,-14 2,-18 3,-8 9,-13 18,-13 10,0 16,5 19,13 1,4 2,9 2,18 0,9 -1,14 -2,18 -3,8 -9,13 -19,13z"/>
    <path id="11" class="fil0" d="M5979 1705c27,0 41,-13 41,-33 0,-16 -10,-27 -30,-29l-11 -1c-12,-1 -16,-4 -16,-10 0,-6 5,-10 15,-10 10,0 20,4 26,8 1,1 2,1 3,0l10 -12c0,-1 0,-2 -1,-3 -9,-7 -21,-12 -37,-12 -24,0 -38,12 -38,31 0,16 11,26 30,28l11 1c13,2 16,5 16,11 0,7 -6,12 -18,12 -10,0 -21,-5 -28,-11 -1,-1 -2,-1 -3,0l-12 12c-1,1 -1,2 0,3 8,7 22,15 42,15z"/>
   </g>
   <g>
    <g>
     <path class="fil8" d="M5234 1832c-329,0 -596,267 -596,596 0,330 267,596 596,596 329,0 596,-266 596,-596 0,-329 -267,-596 -596,-596z"/>
     <path class="fil12" d="M5234 2884c252,0 456,-204 456,-456 0,-252 -204,-456 -456,-456 -252,0 -456,204 -456,456 0,252 204,456 456,456z"/>
     <path class="fil13" d="M4954 2350l-32 -136 29 0 20 94 25 -94 33 0 23 95 21 -95 28 0 -33 136 -30 0 -26 -102 -28 102 -30 0z"/>
     <path id="1" class="fil13" d="M5127 2282l-23 -4c2,-10 7,-17 14,-22 6,-4 16,-7 29,-7 11,0 20,2 26,5 5,2 9,6 12,10 2,4 3,12 3,23l0 31c0,9 0,15 1,19 1,4 2,9 5,13l-26 0c-1,-1 -2,-4 -3,-7 0,-2 -1,-3 -1,-3 -4,4 -9,7 -14,10 -5,2 -10,3 -16,3 -10,0 -18,-3 -24,-8 -6,-6 -9,-13 -9,-21 0,-6 1,-11 4,-15 3,-5 6,-8 11,-10 5,-3 12,-5 21,-6 12,-3 21,-5 25,-7l0 -2c0,-5 -1,-9 -3,-11 -3,-2 -8,-4 -14,-4 -5,0 -9,1 -11,3 -3,2 -5,5 -7,10zm35 21c-3,1 -8,3 -16,4 -7,2 -11,3 -14,5 -3,2 -5,5 -5,9 0,4 2,7 4,9 3,3 6,4 11,4 4,0 9,-1 13,-4 3,-3 5,-5 6,-9 1,-2 1,-6 1,-13l0 -5z"/>
     <path id="2" class="fil13" d="M5239 2350l-26 0 0 -98 24 0 0 14c4,-7 8,-11 11,-13 3,-3 7,-4 11,-4 6,0 12,2 18,5l-8 23c-5,-3 -9,-4 -13,-4 -3,0 -6,1 -9,3 -3,2 -5,6 -6,11 -1,5 -2,16 -2,33l0 30z"/>
     <path id="3" class="fil13" d="M5286 2252l24 0 0 13c9,-10 19,-16 31,-16 6,0 12,2 16,4 5,3 9,7 12,12 4,-5 9,-9 14,-12 5,-2 10,-4 16,-4 7,0 13,2 18,5 5,3 9,7 11,13 2,4 3,11 3,20l0 63 -26 0 0 -56c0,-10 -1,-16 -3,-19 -2,-4 -6,-6 -11,-6 -3,0 -7,2 -10,4 -3,2 -6,5 -7,10 -2,4 -2,11 -2,20l0 47 -26 0 0 -54c0,-9 -1,-15 -2,-18 -1,-3 -2,-5 -4,-6 -2,-2 -5,-3 -8,-3 -4,0 -8,2 -11,4 -3,2 -5,5 -7,9 -1,4 -2,11 -2,20l0 48 -26 0 0 -98z"/>
     <path id="4" class="fil13" d="M5477 2282l-24 -4c3,-10 7,-17 14,-22 6,-4 16,-7 29,-7 11,0 20,2 26,5 6,2 10,6 12,10 2,4 3,12 3,23l0 31c0,9 0,15 1,19 1,4 3,9 5,13l-26 0c-1,-1 -1,-4 -2,-7 -1,-2 -1,-3 -1,-3 -5,4 -10,7 -15,10 -5,2 -10,3 -16,3 -10,0 -18,-3 -24,-8 -6,-6 -9,-13 -9,-21 0,-6 2,-11 4,-15 3,-5 7,-8 12,-10 4,-3 11,-5 20,-6 13,-3 21,-5 26,-7l0 -2c0,-5 -2,-9 -4,-11 -3,-2 -7,-4 -14,-4 -5,0 -8,1 -11,3 -3,2 -5,5 -6,10zm35 21c-4,1 -9,3 -16,4 -7,2 -12,3 -14,5 -4,2 -6,5 -6,9 0,4 2,7 5,9 2,3 6,4 10,4 5,0 9,-1 13,-4 4,-3 6,-5 7,-9 0,-2 1,-6 1,-13l0 -5z"/>
     <path id="5" class="fil19" d="M4844 2514c0,1 1,2 2,2l38 0c19,0 31,-8 36,-24 2,-5 3,-11 3,-29 0,-19 -1,-25 -3,-30 -5,-16 -17,-24 -36,-24l-38 0c-1,0 -2,1 -2,2l0 103zm19 -16l0 -71c0,-1 0,-1 1,-1l16 0c12,0 19,4 22,13 1,3 2,8 2,24 0,15 -1,20 -2,23 -3,9 -10,13 -22,13l-16 0c-1,0 -1,0 -1,-1z"/>
     <path id="6" class="fil19" d="M4959 2426c0,0 1,-1 1,-2l0 -13c0,-1 -1,-2 -1,-2l-15 0c-1,0 -2,1 -2,2l0 13c0,1 1,2 2,2l15 0zm0 90c0,0 1,-1 1,-2l0 -72c0,-1 -1,-2 -1,-2l-15 0c-1,0 -2,1 -2,2l0 72c0,1 1,2 2,2l15 0z"/>
     <path id="7" class="fil19" d="M5011 2518c21,0 32,-11 32,-26 0,-12 -8,-20 -24,-22l-8 -1c-10,-1 -12,-3 -12,-8 0,-4 4,-8 11,-8 8,0 15,3 20,7 1,0 2,0 2,-1l8 -9c0,-1 0,-2 0,-2 -7,-6 -17,-9 -29,-9 -19,0 -29,9 -29,23 0,13 8,21 23,23l8 1c10,0 13,3 13,8 0,5 -5,9 -14,9 -8,0 -17,-4 -22,-9 -1,0 -2,0 -3,0l-9 10c0,0 0,1 0,2 7,6 17,12 33,12z"/>
     <path id="8" class="fil19" d="M5091 2517c1,0 2,-1 2,-2l0 -12c0,-1 -1,-2 -2,-2l-4 0c-5,0 -7,-1 -7,-7l0 -39c0,-1 0,-1 1,-1l10 0c1,0 2,-1 2,-2l0 -10c0,-1 -1,-2 -2,-2l-10 0c-1,0 -1,0 -1,-1l0 -20c0,-1 -1,-2 -1,-2l-15 0c-1,0 -2,1 -2,2l0 20c0,1 0,1 0,1l-5 0c-1,0 -2,1 -2,2l0 10c0,1 1,2 2,2l5 0c0,0 0,0 0,1l0 40c0,15 6,22 22,22l7 0z"/>
     <path id="9" class="fil19" d="M5128 2516c1,0 2,-1 2,-2l0 -41c0,-12 4,-19 14,-19 4,0 8,2 11,4 1,0 2,0 2,0l9 -11c0,-1 0,-1 -1,-2 -4,-4 -10,-6 -16,-6 -9,0 -16,3 -19,9l0 0 0 -6c0,-1 -1,-2 -2,-2l-15 0c0,0 -1,1 -1,2l0 72c0,1 1,2 1,2l15 0z"/>
     <path id="10" class="fil19" d="M5194 2426c1,0 2,-1 2,-2l0 -13c0,-1 -1,-2 -2,-2l-14 0c-1,0 -2,1 -2,2l0 13c0,1 1,2 2,2l14 0zm0 90c1,0 2,-1 2,-2l0 -72c0,-1 -1,-2 -2,-2l-14 0c-1,0 -2,1 -2,2l0 72c0,1 1,2 2,2l14 0z"/>
     <path id="11" class="fil19" d="M5257 2518c13,0 22,-6 26,-18 2,-6 3,-12 3,-22 0,-10 -1,-15 -3,-21 -4,-12 -13,-18 -26,-18 -10,0 -17,3 -20,8l0 0 0 -36c0,-1 -1,-2 -2,-2l-14 0c-1,0 -2,1 -2,2l0 103c0,1 1,2 2,2l14 0c1,0 2,-1 2,-2l0 -5 0 0c3,5 10,9 20,9zm-5 -16c-7,0 -12,-3 -14,-10 -1,-3 -1,-7 -1,-14 0,-7 0,-11 1,-14 2,-6 7,-10 14,-10 7,0 12,4 14,10 1,3 2,7 2,14 0,7 -1,11 -2,14 -2,7 -7,10 -14,10z"/>
     <path id="12" class="fil19" d="M5366 2516c1,0 1,-1 1,-2l0 -72c0,-1 0,-2 -1,-2l-15 0c-1,0 -1,1 -1,2l0 44c0,9 -5,16 -14,16 -10,0 -15,-7 -15,-16l0 -44c0,-1 0,-2 -1,-2l-15 0c-1,0 -1,1 -1,2l0 48c0,16 10,28 26,28 9,0 15,-4 20,-9l0 0 0 5c0,1 0,2 1,2l15 0z"/>
     <path id="13" class="fil19" d="M5420 2517c1,0 2,-1 2,-2l0 -12c0,-1 -1,-2 -2,-2l-4 0c-5,0 -7,-1 -7,-7l0 -39c0,-1 0,-1 1,-1l10 0c1,0 2,-1 2,-2l0 -10c0,-1 -1,-2 -2,-2l-10 0c-1,0 -1,0 -1,-1l0 -20c0,-1 -1,-2 -2,-2l-14 0c-1,0 -2,1 -2,2l0 20c0,1 0,1 -1,1l-5 0c-1,0 -1,1 -1,2l0 10c0,1 0,2 1,2l5 0c1,0 1,0 1,1l0 40c0,15 6,22 21,22l8 0z"/>
     <path id="14" class="fil19" d="M5457 2426c1,0 1,-1 1,-2l0 -13c0,-1 0,-2 -1,-2l-15 0c-1,0 -1,1 -1,2l0 13c0,1 0,2 1,2l15 0zm0 90c1,0 1,-1 1,-2l0 -72c0,-1 0,-2 -1,-2l-15 0c-1,0 -1,1 -1,2l0 72c0,1 0,2 1,2l15 0z"/>
     <path id="15" class="fil19" d="M5511 2518c15,0 27,-8 31,-21 2,-5 3,-11 3,-19 0,-8 -1,-13 -3,-19 -4,-13 -16,-20 -31,-20 -15,0 -27,7 -31,20 -2,6 -3,11 -3,19 0,8 1,14 3,19 4,13 16,21 31,21zm0 -16c-7,0 -12,-4 -14,-10 -1,-4 -2,-7 -2,-14 0,-6 1,-10 2,-14 2,-6 7,-10 14,-10 7,0 12,4 14,10 2,4 2,8 2,14 0,7 0,10 -2,14 -2,6 -7,10 -14,10z"/>
     <path id="16" class="fil19" d="M5626 2516c1,0 2,-1 2,-2l0 -47c0,-17 -10,-28 -27,-28 -10,0 -16,4 -20,8l0 0 0 -5c0,-1 0,-2 -1,-2l-15 0c-1,0 -1,1 -1,2l0 72c0,1 0,2 1,2l15 0c1,0 1,-1 1,-2l0 -43c0,-10 6,-17 15,-17 9,0 14,7 14,17l0 43c0,1 1,2 2,2l14 0z"/>
     <path id="17" class="fil19" d="M5083 2680c0,1 1,2 2,2l14 0c1,0 2,-1 2,-2l0 -104c0,-1 -1,-1 -2,-1l-13 0c-1,0 -2,0 -3,1l-17 12c-1,1 -1,1 -1,2l0 16c0,2 1,2 2,1l16 -11 0 0 0 84z"/>
     <path id="18" class="fil19" d="M5144 2663c4,13 14,20 30,20 16,0 26,-7 30,-20 2,-5 3,-10 3,-35 0,-25 -1,-30 -3,-34 -4,-13 -14,-21 -30,-21 -16,0 -26,8 -30,21 -2,4 -3,9 -3,34 0,25 1,30 3,35zm17 -4c-1,-3 -2,-7 -2,-31 0,-24 1,-27 2,-31 2,-5 6,-8 13,-8 7,0 11,3 13,8 1,4 2,7 2,31 0,24 -1,28 -2,31 -2,6 -6,9 -13,9 -7,0 -11,-3 -13,-9z"/>
     <path id="19" class="fil19" d="M5230 2663c4,13 14,20 30,20 16,0 26,-7 31,-20 1,-5 2,-10 2,-35 0,-25 -1,-30 -2,-34 -5,-13 -15,-21 -31,-21 -16,0 -26,8 -30,21 -1,4 -2,9 -2,34 0,25 1,30 2,35zm17 -4c-1,-3 -1,-7 -1,-31 0,-24 0,-27 1,-31 2,-5 7,-8 13,-8 7,0 11,3 14,8 1,4 1,7 1,31 0,24 0,28 -1,31 -3,6 -7,9 -14,9 -6,0 -11,-3 -13,-9z"/>
     <path id="20" class="fil19" d="M5327 2682c0,1 0,1 1,1l10 0c2,0 2,0 3,-1l62 -107c0,-1 0,-2 -1,-2l-10 0c-1,0 -2,1 -3,2l-62 107zm7 -52c9,0 16,-5 19,-13 1,-3 1,-4 1,-15 0,-11 0,-13 -1,-16 -3,-7 -10,-12 -19,-12 -10,0 -17,5 -19,12 -2,3 -2,5 -2,16 0,11 0,12 2,15 2,8 9,13 19,13zm0 -12c-4,0 -6,-1 -7,-4 -1,-1 -1,-3 -1,-12 0,-10 0,-11 1,-13 1,-3 3,-4 7,-4 3,0 6,1 7,4 0,2 0,3 0,13 0,9 0,11 0,12 -1,3 -4,4 -7,4zm43 53c3,7 10,12 19,12 10,0 17,-5 20,-12 1,-4 1,-5 1,-16 0,-11 0,-12 -1,-16 -3,-7 -10,-12 -20,-12 -9,0 -16,5 -19,12 -1,4 -1,5 -1,16 0,11 0,12 1,16l0 0zm12 -4c0,-1 0,-2 0,-12 0,-10 0,-11 0,-12 2,-3 4,-5 7,-5 3,0 6,2 7,5 1,1 1,2 1,12 0,10 0,11 -1,12 -1,3 -4,5 -7,5 -3,0 -5,-2 -7,-5z"/>
    </g>
    <path class="fil17" d="M5242 1722l0 229 -16 0 0 -229 16 0z"/>
   </g>
   <g>
    <g>
     <path class="fil11" d="M5234 1192c-329,0 -596,-267 -596,-596 0,-329 267,-596 596,-596 329,0 596,267 596,596 0,329 -267,596 -596,596z"/>
     <path class="fil12" d="M5236 1059c252,0 456,-204 456,-456 0,-252 -204,-456 -456,-456 -252,0 -456,204 -456,456 0,252 204,456 456,456z"/>
     <path class="fil13" d="M5004 525l-32 -137 28 0 21 94 25 -94 32 0 24 96 21 -96 28 0 -33 137 -30 0 -27 -102 -27 102 -30 0z"/>
     <path id="1" class="fil13" d="M5177 456l-23 -4c2,-10 7,-17 13,-21 7,-5 17,-7 29,-7 12,0 21,1 26,4 6,3 10,6 12,10 3,5 4,12 4,24l0 30c0,9 0,15 1,19 1,5 2,9 5,14l-26 0c-1,-2 -2,-5 -3,-8 0,-1 -1,-2 -1,-3 -4,4 -9,8 -14,10 -5,2 -11,3 -16,3 -10,0 -18,-3 -24,-8 -6,-6 -9,-13 -9,-21 0,-6 1,-11 4,-15 3,-4 6,-8 11,-10 5,-2 12,-4 21,-6 12,-2 21,-5 25,-6l0 -3c0,-5 -1,-9 -3,-11 -3,-2 -8,-3 -15,-3 -4,0 -8,1 -10,3 -3,1 -5,5 -7,9zm35 21c-3,2 -8,3 -16,4 -7,2 -12,4 -14,5 -3,2 -5,5 -5,9 0,4 1,7 4,10 3,2 6,4 11,4 4,0 9,-2 13,-5 3,-2 5,-5 6,-9 1,-2 1,-6 1,-12l0 -6z"/>
     <path id="2" class="fil13" d="M5282 525l-31 -99 25 0 19 65 17 -65 25 0 16 65 19 -65 26 0 -32 99 -25 0 -17 -64 -17 64 -25 0z"/>
     <path id="3" class="fil13" d="M5431 456l-23 -4c2,-10 7,-17 13,-21 7,-5 17,-7 29,-7 12,0 21,1 26,4 6,3 10,6 13,10 2,5 3,12 3,24l0 30c0,9 0,15 1,19 1,5 2,9 5,14l-26 0c-1,-2 -2,-5 -3,-8 0,-1 -1,-2 -1,-3 -4,4 -9,8 -14,10 -5,2 -11,3 -16,3 -10,0 -18,-3 -24,-8 -6,-6 -9,-13 -9,-21 0,-6 1,-11 4,-15 3,-4 6,-8 11,-10 5,-2 12,-4 21,-6 12,-2 21,-5 25,-6l0 -3c0,-5 -1,-9 -3,-11 -3,-2 -8,-3 -15,-3 -4,0 -8,1 -10,3 -3,1 -5,5 -7,9zm35 21c-3,2 -8,3 -16,4 -7,2 -12,4 -14,5 -3,2 -5,5 -5,9 0,4 1,7 4,10 3,2 6,4 11,4 4,0 9,-2 13,-5 3,-2 5,-5 6,-9 1,-2 1,-6 1,-12l0 -6z"/>
     <path id="4" class="fil19" d="M4847 689c0,1 0,1 1,1l39 0c18,0 30,-8 35,-23 2,-6 3,-12 3,-30 0,-19 -1,-25 -3,-30 -5,-15 -17,-24 -35,-24l-39 0c-1,0 -1,1 -1,2l0 104zm18 -16l0 -72c0,-1 1,-1 1,-1l16 0c12,0 19,4 22,14 1,3 2,7 2,23 0,15 -1,20 -2,23 -3,10 -10,14 -22,14l-16 0c0,0 -1,-1 -1,-1z"/>
     <path id="5" class="fil19" d="M4961 600c1,0 1,0 1,-1l0 -14c0,-1 0,-2 -1,-2l-15 0c-1,0 -1,1 -1,2l0 14c0,1 0,1 1,1l15 0zm0 90c1,0 1,0 1,-1l0 -73c0,-1 0,-1 -1,-1l-15 0c-1,0 -1,0 -1,1l0 73c0,1 0,1 1,1l15 0z"/>
     <path id="6" class="fil19" d="M5013 692c21,0 32,-10 32,-26 0,-12 -7,-20 -23,-22l-9 -1c-9,0 -12,-3 -12,-8 0,-4 4,-7 12,-7 7,0 15,3 19,6 1,0 2,0 3,0l7 -10c1,0 1,-1 0,-2 -7,-5 -17,-9 -29,-9 -18,0 -29,9 -29,24 0,13 8,20 23,22l8 1c10,1 13,4 13,8 0,5 -5,9 -14,9 -8,0 -17,-3 -22,-9 -1,0 -2,0 -2,0l-9 10c-1,1 -1,2 0,2 6,6 17,12 32,12z"/>
     <path id="7" class="fil19" d="M5093 691c1,0 2,0 2,-1l0 -13c0,-1 -1,-1 -2,-1l-4 0c-4,0 -7,-2 -7,-8l0 -39c0,0 1,-1 1,-1l10 0c1,0 2,0 2,-1l0 -11c0,-1 -1,-1 -2,-1l-10 0c0,0 -1,-1 -1,-1l0 -21c0,-1 0,-2 -1,-2l-15 0c-1,0 -1,1 -1,2l0 21c0,0 -1,1 -1,1l-5 0c-1,0 -2,0 -2,1l0 11c0,1 1,1 2,1l5 0c0,0 1,1 1,1l0 40c0,15 6,22 21,22l7 0z"/>
     <path id="8" class="fil19" d="M5130 690c1,0 2,0 2,-1l0 -41c0,-12 4,-19 14,-19 4,0 8,1 11,3 1,1 2,1 2,0l9 -11c0,0 0,-1 -1,-2 -3,-4 -9,-6 -15,-6 -10,0 -16,4 -20,10l0 0 0 -7c0,-1 -1,-1 -2,-1l-14 0c-1,0 -2,0 -2,1l0 73c0,1 1,1 2,1l14 0z"/>
     <path id="9" class="fil19" d="M5197 600c1,0 1,0 1,-1l0 -14c0,-1 0,-2 -1,-2l-15 0c-1,0 -1,1 -1,2l0 14c0,1 0,1 1,1l15 0zm0 90c1,0 1,0 1,-1l0 -73c0,-1 0,-1 -1,-1l-15 0c-1,0 -1,0 -1,1l0 73c0,1 0,1 1,1l15 0z"/>
     <path id="10" class="fil19" d="M5259 692c13,0 22,-6 26,-18 2,-6 3,-11 3,-22 0,-10 -1,-15 -3,-21 -4,-12 -13,-18 -26,-18 -10,0 -16,4 -20,9l0 0 0 -37c0,-1 -1,-2 -2,-2l-14 0c-1,0 -2,1 -2,2l0 104c0,1 1,1 2,1l14 0c1,0 2,0 2,-1l0 -6 0 0c4,5 10,9 20,9zm-4 -16c-8,0 -13,-3 -15,-9 -1,-4 -1,-8 -1,-15 0,-6 0,-10 1,-14 2,-6 7,-9 15,-9 7,0 12,3 14,9 1,4 1,8 1,14 0,7 0,11 -1,15 -2,6 -7,9 -14,9z"/>
     <path id="11" class="fil19" d="M5368 690c1,0 2,0 2,-1l0 -73c0,-1 -1,-1 -2,-1l-14 0c-1,0 -2,0 -2,1l0 44c0,10 -5,16 -14,16 -10,0 -14,-6 -14,-16l0 -44c0,-1 -1,-1 -2,-1l-14 0c-1,0 -2,0 -2,1l0 48c0,16 10,28 26,28 10,0 16,-4 20,-9l0 0 0 6c0,1 1,1 2,1l14 0z"/>
     <path id="12" class="fil19" d="M5422 691c1,0 2,0 2,-1l0 -13c0,-1 -1,-1 -2,-1l-4 0c-5,0 -7,-2 -7,-8l0 -39c0,0 1,-1 1,-1l10 0c1,0 2,0 2,-1l0 -11c0,-1 -1,-1 -2,-1l-10 0c0,0 -1,-1 -1,-1l0 -21c0,-1 0,-2 -1,-2l-15 0c-1,0 -1,1 -1,2l0 21c0,0 -1,1 -1,1l-5 0c-1,0 -2,0 -2,1l0 11c0,1 1,1 2,1l5 0c0,0 1,1 1,1l0 40c0,15 5,22 21,22l7 0z"/>
     <path id="13" class="fil19" d="M5459 600c1,0 2,0 2,-1l0 -14c0,-1 -1,-2 -2,-2l-14 0c-1,0 -2,1 -2,2l0 14c0,1 1,1 2,1l14 0zm0 90c1,0 2,0 2,-1l0 -73c0,-1 -1,-1 -2,-1l-14 0c-1,0 -2,0 -2,1l0 73c0,1 1,1 2,1l14 0z"/>
     <path id="14" class="fil19" d="M5513 692c16,0 27,-8 31,-21 2,-5 3,-10 3,-19 0,-8 -1,-13 -3,-18 -4,-13 -15,-21 -31,-21 -15,0 -27,8 -31,21 -2,5 -2,10 -2,18 0,9 0,14 2,19 4,13 16,21 31,21zm0 -16c-7,0 -12,-3 -14,-10 -1,-3 -2,-7 -2,-14 0,-6 1,-9 2,-14 2,-6 7,-9 14,-9 7,0 12,3 14,9 2,5 2,8 2,14 0,7 0,11 -2,14 -2,7 -7,10 -14,10z"/>
     <path id="15" class="fil19" d="M5628 690c1,0 2,0 2,-1l0 -48c0,-16 -10,-28 -26,-28 -10,0 -17,4 -20,9l-1 0 0 -6c0,-1 0,-1 -1,-1l-15 0c-1,0 -1,0 -1,1l0 73c0,1 0,1 1,1l15 0c1,0 1,0 1,-1l0 -44c0,-10 6,-16 15,-16 9,0 14,6 14,16l0 44c0,1 1,1 2,1l14 0z"/>
     <path id="16" class="fil19" d="M5086 854c0,1 0,2 1,2l15 0c1,0 1,-1 1,-2l0 -103c0,-1 0,-2 -1,-2l-14 0c-1,0 -2,0 -3,1l-17 12c-1,1 -1,2 -1,3l0 16c0,1 1,1 2,1l16 -12 1 0 0 84z"/>
     <path id="17" class="fil19" d="M5146 837c4,13 14,21 30,21 16,0 26,-8 31,-21 1,-5 2,-10 2,-34 0,-25 -1,-30 -2,-35 -5,-13 -15,-21 -31,-21 -16,0 -26,8 -30,21 -2,5 -2,10 -2,35 0,24 0,29 2,34zm17 -3c-1,-4 -1,-7 -1,-31 0,-25 0,-28 1,-31 2,-6 7,-9 13,-9 7,0 11,3 13,9 1,3 2,6 2,31 0,24 -1,27 -2,31 -2,5 -6,8 -13,8 -6,0 -11,-3 -13,-8z"/>
     <path id="18" class="fil19" d="M5232 837c4,13 15,21 31,21 15,0 26,-8 30,-21 1,-5 2,-10 2,-34 0,-25 -1,-30 -2,-35 -4,-13 -15,-21 -30,-21 -16,0 -27,8 -31,21 -1,5 -2,10 -2,35 0,24 1,29 2,34zm17 -3c-1,-4 -1,-7 -1,-31 0,-25 0,-28 1,-31 3,-6 7,-9 14,-9 6,0 11,3 13,9 1,3 1,6 1,31 0,24 0,27 -1,31 -2,5 -7,8 -13,8 -7,0 -11,-3 -14,-8z"/>
     <path id="19" class="fil19" d="M5330 856c-1,1 -1,2 0,2l11 0c1,0 1,-1 2,-2l62 -107c1,-1 0,-2 -1,-2l-10 0c-1,0 -2,1 -2,2l-62 107zm6 -52c9,0 17,-5 19,-12 1,-4 1,-5 1,-16 0,-11 0,-12 -1,-16 -2,-7 -10,-12 -19,-12 -9,0 -17,5 -19,12 -1,4 -1,5 -1,16 0,11 0,12 1,16 2,7 10,12 19,12zm0 -11c-3,0 -6,-2 -7,-5 0,-1 -1,-2 -1,-12 0,-10 1,-11 1,-12 1,-3 4,-5 7,-5 3,0 6,2 7,5 0,1 0,2 0,12 0,10 0,11 0,12 -1,3 -4,5 -7,5zm43 52c3,7 10,12 20,12 9,0 16,-5 19,-12 1,-3 1,-5 1,-16 0,-11 0,-12 -1,-15 -3,-8 -10,-13 -19,-13 -10,0 -17,5 -20,13 -1,3 -1,4 -1,15 0,11 0,13 1,16l0 0zm13 -3c-1,-2 -1,-3 -1,-13 0,-9 0,-11 1,-12 1,-3 3,-5 7,-5 3,0 5,2 6,5 1,1 1,3 1,12 0,10 0,11 -1,13 -1,3 -3,4 -6,4 -4,0 -6,-1 -7,-4z"/>
    </g>
    <path class="fil15" d="M5234 1085l0 230 -16 0 0 -230 16 0z"/>
   </g>
  </g>
 </g>
</svg>
